<?xml version="1.0" encoding="UTF-8"?>
<!DOCTYPE svg PUBLIC "-//W3C//DTD SVG 1.1//EN" "http://www.w3.org/Graphics/SVG/1.1/DTD/svg11.dtd">
<!-- Creator: CorelDRAW 2021 (64 Bit) -->
<svg xmlns="http://www.w3.org/2000/svg" xml:space="preserve" width="110mm" height="160mm" version="1.1" style="shape-rendering:geometricPrecision; text-rendering:geometricPrecision; image-rendering:optimizeQuality; fill-rule:evenodd; clip-rule:evenodd"
viewBox="0 0 11000 16000"
 xmlns:xlink="http://www.w3.org/1999/xlink"
 xmlns:xodm="http://www.corel.com/coreldraw/odm/2003">
 <defs>
  <style type="text/css">
   <![CDATA[
    .str0 {stroke:#201E1E;stroke-width:20;stroke-miterlimit:22.9256}
    .str9 {stroke:#CD7A22;stroke-width:37.02;stroke-miterlimit:22.9256}
    .str5 {stroke:#CD7A22;stroke-width:37.02;stroke-miterlimit:22.9256}
    .str6 {stroke:#CD7A22;stroke-width:37.02;stroke-miterlimit:22.9256}
    .str7 {stroke:#CD7A22;stroke-width:37.02;stroke-miterlimit:22.9256}
    .str10 {stroke:#CD7A22;stroke-width:37.02;stroke-miterlimit:22.9256}
    .str8 {stroke:#CD7A22;stroke-width:37.02;stroke-miterlimit:22.9256}
    .str12 {stroke:#CD7A22;stroke-width:9.87;stroke-miterlimit:22.9256}
    .str13 {stroke:#CD7A22;stroke-width:9.87;stroke-miterlimit:22.9256}
    .str2 {stroke:#201E1E;stroke-width:9.87;stroke-miterlimit:22.9256}
    .str1 {stroke:#CD7A22;stroke-width:9.87;stroke-miterlimit:22.9256}
    .str4 {stroke:#CD7A22;stroke-width:9.87;stroke-miterlimit:22.9256}
    .str3 {stroke:#CD7A22;stroke-width:9.87;stroke-miterlimit:22.9256}
    .str11 {stroke:#CD7A22;stroke-width:9.87;stroke-miterlimit:22.9256}
    .str14 {stroke:#CD7A22;stroke-width:9.87;stroke-miterlimit:22.9256}
    .str15 {stroke:#CD7A22;stroke-width:9.87;stroke-miterlimit:22.9256}
    .str17 {stroke:#FEFEFE;stroke-width:35.49;stroke-miterlimit:22.9256}
    .str16 {stroke:#FEFEFE;stroke-width:35.49;stroke-miterlimit:22.9256}
    .fil2 {fill:none}
    .fil5 {fill:#FEFEFE}
    .fil0 {fill:#201E1E}
    .fil3 {fill:black}
    .fil1 {fill:#CD7A22}
    .fil4 {fill:white}
    .fil6 {fill:#FEFEFE;fill-rule:nonzero}
   ]]>
  </style>
 </defs>
 <g id="Camada_x0020_1">
  <metadata id="CorelCorpID_0Corel-Layer"/>
  <g id="_2484527330624">
   <rect class="fil0 str0" x="705.08" y="3388.6" width="9313.93" height="9313.93" rx="700" ry="700"/>
   <path class="fil1 str1" d="M6444.53 7107.01l-2414.81 -3.99c-56.69,-1.26 -80.56,-32.35 -79.83,-85.81l-3.99 -1634.49c4.17,-62.33 34.66,-95.73 91.8,-99.78l385.17 0c-1.65,-1111.85 1624.12,-1029.61 1601.21,0l402.49 0c41.19,5.07 66.69,26.73 71.85,69.85l0 1680.38c0.66,41.75 -16.72,66.89 -53.89,73.84z"/>
   <path class="fil0 str2" d="M6382.05 7039.86l-2291.38 -3.79c-53.78,-1.2 -76.44,-30.7 -75.74,-81.43l-3.79 -1550.93c3.96,-59.15 32.89,-90.83 87.11,-94.68l365.48 0c-1.56,-1055.01 1541.1,-976.97 1519.36,0l381.91 0c39.09,4.81 63.29,25.36 68.17,66.28l0 1594.48c0.63,39.62 -15.86,63.47 -51.12,70.07z"/>
   <path class="fil1" d="M4429.99 6318.74c263.69,-29.81 296.31,-52.51 317.62,-323.52 -266.5,26.94 -284.38,51.96 -317.62,323.52z"/>
   <path class="fil1" d="M4404.4 6318.37c-30.61,-229.05 -91.75,-307.73 -318.87,-318.88 21.74,267.83 47.18,286.26 318.87,318.88z"/>
   <path class="fil1" d="M4429.99 6627.72c263.69,-29.82 296.31,-52.51 317.62,-323.52 -266.5,26.94 -284.38,51.95 -317.62,323.52z"/>
   <path class="fil1" d="M4404.4 6627.34c-30.61,-229.05 -91.75,-307.73 -318.87,-318.87 21.74,267.83 47.18,286.25 318.87,318.87z"/>
   <path class="fil1" d="M4429.99 6936.69c263.69,-29.82 296.31,-52.51 317.62,-323.52 -266.5,26.94 -284.38,51.96 -317.62,323.52z"/>
   <path class="fil1" d="M4404.4 6936.31c-30.61,-229.05 -91.75,-307.72 -318.87,-318.87 21.74,267.83 47.18,286.25 318.87,318.87z"/>
   <path class="fil1" d="M4424.74 6047.07c141.25,-182.89 154.16,-281.68 2.3,-450.95 -175.05,203.87 -170.25,234.91 -2.3,450.95z"/>
   <path class="fil1" d="M5996.23 6322.26c263.69,-29.82 296.31,-52.51 317.62,-323.52 -266.5,26.94 -284.39,51.96 -317.62,323.52z"/>
   <path class="fil1" d="M5970.64 6321.88c-30.61,-229.05 -91.75,-307.72 -318.87,-318.87 21.74,267.83 47.18,286.25 318.87,318.87z"/>
   <path class="fil1" d="M5996.23 6631.23c263.69,-29.82 296.31,-52.51 317.62,-323.52 -266.5,26.94 -284.39,51.96 -317.62,323.52z"/>
   <path class="fil1" d="M5970.64 6630.86c-30.61,-229.05 -91.75,-307.73 -318.87,-318.88 21.74,267.83 47.18,286.25 318.87,318.88z"/>
   <path class="fil1" d="M5996.23 6940.2c263.69,-29.81 296.31,-52.51 317.62,-323.52 -266.5,26.94 -284.39,51.96 -317.62,323.52z"/>
   <path class="fil1" d="M5970.64 6939.83c-30.61,-229.05 -91.75,-307.73 -318.87,-318.88 21.74,267.84 47.18,286.26 318.87,318.88z"/>
   <path class="fil1" d="M5990.98 6050.59c141.25,-182.89 154.16,-281.69 2.3,-450.95 -175.05,203.87 -170.25,234.91 -2.3,450.95z"/>
   <polygon class="fil1 str3" points="4431.51,6924.35 4402.47,6922.36 4400.98,7088.72 4431.15,7088.72 "/>
   <polygon class="fil1 str4" points="5995.51,6928.8 5966.47,6926.82 5964.98,7093.17 5995.15,7093.17 "/>
   <path class="fil2 str5" d="M5233.2 5999.07c263.69,-29.81 296.31,-52.51 317.62,-323.52 -266.51,26.95 -284.39,51.96 -317.62,323.52z"/>
   <path class="fil2 str5" d="M5207.61 5998.7c-30.62,-229.05 -91.75,-307.73 -318.88,-318.87 21.75,267.83 47.19,286.25 318.88,318.87z"/>
   <path class="fil2 str6" d="M5233.2 6308.05c263.69,-29.82 296.31,-52.51 317.62,-323.52 -266.51,26.94 -284.39,51.96 -317.62,323.52z"/>
   <path class="fil2 str6" d="M5207.61 6307.67c-30.62,-229.05 -91.75,-307.72 -318.88,-318.87 21.75,267.83 47.19,286.25 318.88,318.87z"/>
   <path class="fil2 str7" d="M5233.2 6617.02c263.69,-29.82 296.31,-52.51 317.62,-323.52 -266.51,26.94 -284.39,51.96 -317.62,323.52z"/>
   <path class="fil2 str7" d="M5207.61 6616.65c-30.62,-229.05 -91.75,-307.73 -318.88,-318.88 21.75,267.83 47.19,286.25 318.88,318.88z"/>
   <path class="fil2 str8" d="M5227.94 5791.57c141.25,-182.89 154.16,-281.69 2.31,-450.95 -175.06,203.87 -170.25,234.91 -2.31,450.95z"/>
   <path class="fil2 str9" d="M5237.18 6925.66c263.69,-29.81 296.31,-52.51 317.62,-323.52 -266.51,26.94 -284.39,51.96 -317.62,323.52z"/>
   <path class="fil2 str9" d="M5211.59 6925.29c-30.62,-229.05 -91.75,-307.73 -318.88,-318.88 21.74,267.83 47.18,286.26 318.88,318.88z"/>
   <polygon class="fil1 str10" points="5226.59,6904.39 5197.54,6902.41 5196.05,7068.76 5226.22,7068.76 "/>
   <polygon class="fil1 str11" points="5218.98,4582.28 5263.95,4677.53 5367.6,4690.25 5290.9,4762.46 5310.83,4864.95 5218.46,4814.33 5127.14,4864.95 5146.74,4761.46 5070.37,4690.25 5174.86,4676.92 "/>
   <polygon class="fil1 str12" points="4890.24,4769.84 4917.51,4827.59 4980.34,4835.3 4933.85,4879.07 4945.93,4941.21 4889.93,4910.52 4834.56,4941.21 4846.45,4878.47 4800.15,4835.3 4863.49,4827.21 "/>
   <polygon class="fil1 str13" points="5549.37,4769.84 5576.64,4827.59 5639.47,4835.3 5592.98,4879.07 5605.06,4941.21 5549.06,4910.52 5493.69,4941.21 5505.58,4878.47 5459.28,4835.3 5522.62,4827.21 "/>
   <polygon class="fil1 str14" points="4678.5,5008.79 4700.86,5056.15 4752.4,5062.48 4714.26,5098.38 4724.17,5149.34 4678.24,5124.17 4632.84,5149.34 4642.58,5097.88 4604.61,5062.48 4656.56,5055.84 "/>
   <polygon class="fil1 str15" points="5767.43,5008.79 5789.79,5056.15 5841.32,5062.48 5803.19,5098.38 5813.1,5149.34 5767.17,5124.17 5721.76,5149.34 5731.51,5097.88 5693.54,5062.48 5745.49,5055.84 "/>
   <path class="fil1" d="M4223.76 8894.88l846.53 -0.59c24.7,-1.96 37.26,-14.32 36.95,-37.69l2.21 -316.13 -42.66 58.81 -470.32 -1.16 0.02 -245.26 270.61 -0.29 117.34 59.64 -1.5 -370.33 -116.86 54.3 -269.19 -0.03 0.16 -274.51 471.44 0.75 36.44 46.2 3.51 -269.88c0.6,-60.88 -10.38,-92.83 -34.69,-91.46l-850.43 0.6 72.3 89.88 -0.86 1189.49 -71 107.66z"/>
   <path class="fil1" d="M6254.73 8895.24l487.19 -1.06 -102.88 -106.95 0.84 -432.5 182.41 -1.51c53.51,-0.45 77.87,21.7 77.66,86.01l-1.14 347.55c12.17,67.2 34.2,106.59 71.28,106.85l357.59 2.55 -90.84 -135.15 -1.24 -404.1c-22.3,-55.33 -63.1,-93.88 -124.98,-113.22 26.54,-31.58 79.69,-57.8 79.98,-145.71l3.9 -498.74c0.52,-65.69 -39.8,-93.09 -80.82,-92.89l-854.14 4.18 69.31 88.32 -0.4 1189.16 -73.72 107.21z"/>
   <path class="fil0" d="M6681.9 8102.74l170.82 0.33c22.95,-5.16 35.77,-16.78 36.06,-36.36l1.39 -232.37c-1.88,-25.57 -15.58,-37.11 -39.13,-36.94l-170.51 -0.22c-28.37,2.92 -42.14,21.79 -42.21,44.36l-0.77 219.91c-1.59,27.01 13.22,40.75 44.35,41.29z"/>
   <path class="fil1" d="M3116.65 8895.14l832.91 -0.26c64.52,-0.03 138.83,-69.82 139.14,-118.48l2.26 -367.75c8.93,-152.74 -162.32,-222.64 -134.32,-230.95 39.7,-11.78 87.96,-62.48 88.4,-109.84l4.04 -439.53c-3.97,-65.92 1.45,-120.19 -99.57,-120.32l-830.63 -1.02 68.17 90.35 0.94 1189.27 -71.34 108.53z"/>
   <path class="fil3" d="M3506.63 8591.9l248.54 -1.18c13.76,-2.38 21.62,-10.25 23.25,-23.88l2.18 -293.24 -274.41 147.11 0.44 171.19z"/>
   <path class="fil3" d="M3782.41 7837.6l-249.46 0.82c-13.76,1.92 -21.62,8.25 -23.25,19.22l-2.18 236.05 273.57 -114.44 1.32 -141.65z"/>
   <path class="fil1" d="M5286.16 8894.88l846.54 -0.59c24.7,-1.96 37.25,-14.32 36.95,-37.69l2.2 -316.13 -42.65 58.81 -470.33 -1.16 0.03 -245.26 270.61 -0.29 117.34 59.64 -1.5 -370.33 -116.86 54.3 -269.19 -0.03 0.16 -274.51 471.44 0.75 36.43 46.2 3.51 -269.88c0.6,-60.88 -10.37,-92.83 -34.68,-91.46l-850.43 0.6 72.29 89.88 -0.85 1189.49 -71.01 107.66z"/>
   <path class="fil4" d="M7434.52 10580.9l490.59 3.59 -89.83 -104.75 -1.43 -676.57 385.65 755.3c8.67,15.7 21.18,25.24 38.9,26.45l355.94 -1.39 -68.34 -102.29 -1.09 -1182.24 69.17 -104.68 -447.5 -0.5 67.54 104.56 -0.59 582.89 -312.07 -617.17c-36.95,-64.25 -71.87,-70.52 -86.01,-69.08l-393.83 -1.04 75.05 104.67 3.24 1179.88 -85.39 102.37z"/>
   <path class="fil4" d="M2825.86 9871.56l-548.45 1.35 76.17 108.19c40.47,29.91 60.04,85.85 57.14,114.95l1.3 144.23c-1.07,40.11 -27.73,41.79 -59.1,44.47l-161.45 -2.26c-35.89,1.51 -54.06,-16.95 -56.9,-52.61l1.61 -684.33c4.81,-29.87 23.59,-34.99 43.52,-35.07 98.5,-0.46 144.64,-1.6 173.76,-0.76 43.24,1.24 59.06,9.42 58.99,56.43 1.18,74.94 -57.15,67.15 -57.15,67.15 -0.32,40.26 20.2,70.62 57.55,74.59l282.8 -2.91c33.1,-0.34 49.71,-30.8 49.65,-72.35l-0.49 -284.96c-0.2,-119.29 -137.13,-149.55 -297.78,-154.74 -625.53,-20.18 -611.77,11.45 -609.69,610.29 1.93,558.92 -148.4,781.37 441.49,781.69 196.39,0.11 401.18,-2.76 463.7,-178.43l1.71 -424.42 81.62 -110.5z"/>
   <path class="fil4" d="M5311.73 10580.69l819.66 4.22c71.63,0.37 185.55,-58.35 185.48,-170.55l-0.77 -1021.91c-0.09,-139.58 -71.02,-202.07 -185.34,-201.62l-819.08 3.38 95.53 113.31 0.66 1144.38 -96.14 128.79z"/>
   <path class="fil3" d="M5735.99 10265.65l229.73 0.41c20.73,-1.17 31.81,-11.64 31.36,-33.22l-0.08 -707.15c-0.06,-7.71 -3.74,-12.44 -11.23,-13.9l-258.03 -0.99c-9.63,1.23 -10.48,3.46 -10.48,11.38l-0.19 719.18c0,19.8 4.39,24.45 18.92,24.29z"/>
   <polygon class="fil3" points="4532.31,10584.92 4722.28,10584.01 4748.55,10304.47 4530.25,10299.58 "/>
   <path class="fil4" d="M2903.83 10584.92l467.4 -0.27 -51.28 -85.17 -0.15 -186.5c4.38,-23.8 20.28,-38.63 49.33,-43.23l241.63 1.1c28.44,-1.1 49.94,8.25 56.44,40.08l-0.13 182.41 -58.01 85.36 480.44 5.42 -51.77 -87.95 -232.03 -1200 50.37 -99.28 -717.8 -0.15 58.72 101.55 -249.64 1196.93 -43.52 89.7z"/>
   <path class="fil0 str0" d="M3612.5 9973.46l-119.67 -444.4 -121.07 442.14c-2.79,11.62 1,18.34 13.36,18.7l214.52 1.12c11.33,-1.16 15.71,-6.96 12.86,-17.56z"/>
   <path class="fil5" d="M4134.11 10583.98l487.19 -1.06 -102.87 -106.95 0.83 -432.5 182.42 -1.51c53.51,-0.45 77.87,21.69 77.65,86.01l-1.13 347.55c12.16,67.2 34.19,106.59 71.27,106.85l357.6 2.55 -90.85 -135.16 -1.23 -404.09c-22.31,-55.33 -63.11,-93.88 -124.98,-113.23 26.53,-31.57 79.68,-57.79 79.98,-145.7l3.89 -498.74c0.52,-65.69 -39.8,-93.09 -80.82,-92.89l-854.14 4.18 69.32 88.32 -0.4 1189.15 -73.73 107.22z"/>
   <path class="fil0" d="M4561.29 9791.48l170.81 0.33c22.95,-5.16 35.78,-16.78 36.06,-36.36l1.4 -232.37c-1.88,-25.57 -15.59,-37.11 -39.14,-36.94l-170.51 -0.23c-28.37,2.93 -42.13,21.79 -42.2,44.37l-0.78 219.91c-1.58,27.01 13.23,40.75 44.36,41.29z"/>
   <path class="fil5" d="M6418.93 10584.92l846.53 -0.59c24.7,-1.96 37.26,-14.31 36.95,-37.69l2.21 -316.13 -42.66 58.81 -470.32 -1.16 0.02 -245.26 270.61 -0.28 117.34 59.63 -1.5 -370.33 -116.86 54.31 -269.19 -0.04 0.16 -274.51 471.45 0.75 36.43 46.2 3.51 -269.88c0.6,-60.88 -10.38,-92.83 -34.69,-91.46l-850.43 0.6 72.3 89.88 -0.86 1189.49 -71 107.66z"/>
   <line class="fil2 str16" x1="2504.2" y1="11118.12" x2="3098.42" y2= "11118.12" />
   <line class="fil2 str17" x1="7365.17" y1="11118.12" x2="7959.4" y2= "11118.12" />
   <polygon class="fil6" points="3307.33,11270.33 3307.33,11001.72 3249.78,11001.72 3249.78,10966.02 3388.06,10966.02 3388.06,11001.72 3330.5,11001.72 3330.5,11270.33 "/>
   <polygon id="_1" class="fil6" points="3611.3,11270.33 3611.3,10966.02 3737.39,10966.02 3737.39,11001.72 3634.47,11001.72 3634.47,11095.22 3730.81,11095.22 3730.81,11130.92 3634.47,11130.92 3634.47,11234.63 3741.54,11234.63 3741.54,11270.33 "/>
   <path id="_2" class="fil6" d="M3977.26 11270.33l0 -304.31 77.39 0c15.57,0 27.4,2.76 35.49,8.21 8.09,5.46 14.55,15.09 19.39,28.9 4.84,13.82 7.24,29.12 7.24,45.84 0,21.6 -4.03,39.81 -12.04,54.61 -8,14.81 -20.36,24.16 -37.11,28.19 6.14,5.1 10.77,10.2 13.94,15.16 6.75,10.77 13.13,24.3 19.11,40.52l30.2 82.88 -28.86 0 -23.09 -63.33c-6.71,-18.34 -12.27,-32.3 -16.62,-42 -4.39,-9.71 -8.29,-16.44 -11.75,-20.33 -3.42,-3.83 -6.95,-6.52 -10.53,-8.08 -2.6,-0.92 -6.87,-1.42 -12.85,-1.42l-26.74 0 0 135.16 -23.17 0zm23.17 -170.01l49.59 0c10.57,0 18.78,-1.91 24.71,-5.74 5.94,-3.75 10.45,-9.84 13.5,-18.27 3.09,-8.36 4.64,-17.43 4.64,-27.27 0,-14.38 -2.98,-26.28 -8.95,-35.56 -5.97,-9.28 -15.41,-13.89 -28.29,-13.89l-55.2 0 0 100.73z"/>
   <polygon id="_3" class="fil6" points="4356.67,11270.33 4356.67,10966.02 4482.76,10966.02 4482.76,11001.72 4379.84,11001.72 4379.84,11095.22 4476.18,11095.22 4476.18,11130.92 4379.84,11130.92 4379.84,11234.63 4486.91,11234.63 4486.91,11270.33 "/>
   <path id="_4" class="fil6" d="M4714.58 11172.58l21.71 -3.4c1.01,15.3 3.41,27.83 7.19,37.68 3.78,9.78 9.63,17.71 17.56,23.8 7.93,6.02 16.87,9.07 26.79,9.07 8.82,0 16.59,-2.27 23.33,-6.87 6.75,-4.61 11.75,-10.91 15.04,-18.92 3.3,-8 4.96,-16.71 4.96,-26.06 0,-9.5 -1.58,-17.78 -4.76,-24.94 -3.16,-7.08 -8.41,-13.03 -15.72,-17.92 -4.68,-3.12 -15.04,-8.08 -31.1,-14.8 -16.06,-6.73 -27.28,-13.04 -33.7,-18.99 -8.33,-7.65 -14.51,-17.14 -18.58,-28.4 -4.1,-11.27 -6.13,-23.95 -6.13,-37.9 0,-15.44 2.52,-29.82 7.52,-43.14 4.99,-13.39 12.27,-23.52 21.9,-30.46 9.6,-6.94 20.29,-10.41 32.04,-10.41 12.93,0 24.34,3.61 34.23,10.9 9.87,7.23 17.48,17.93 22.8,32.09 5.32,14.1 8.17,30.11 8.57,47.96l-22.19 2.97c-1.18,-19.19 -5.2,-33.71 -12.07,-43.49 -6.87,-9.85 -17.03,-14.73 -30.45,-14.73 -13.98,0 -24.19,4.46 -30.57,13.39 -6.38,8.92 -9.59,19.69 -9.59,32.3 0,10.91 2.28,19.9 6.79,26.99 4.47,7.01 16.05,14.3 34.83,21.67 18.79,7.44 31.67,13.89 38.66,19.41 10.12,8.15 17.64,18.42 22.48,30.96 4.84,12.46 7.24,26.84 7.24,43.14 0,16.22 -2.65,31.38 -7.97,45.69 -5.33,14.3 -12.93,25.43 -22.89,33.36 -9.95,7.93 -21.13,11.9 -33.61,11.9 -15.77,0 -28.99,-4.04 -39.64,-12.04 -10.69,-8.01 -19.02,-20.05 -25.08,-36.2 -6.1,-16.08 -9.26,-34.28 -9.59,-54.61z"/>
   <path class="fil6" d="M5598.13 11270.33l0 -304.31 65.93 0c11.59,0 20.45,0.99 26.59,2.9 8.57,2.48 15.77,7.23 21.58,14.17 5.81,7.01 10.49,16.79 14.02,29.32 3.54,12.54 5.29,26.35 5.29,41.44 0,25.79 -4.71,47.68 -14.19,65.53 -9.43,17.92 -26.54,26.84 -51.25,26.84l-44.8 0 0 124.11 -23.17 0zm23.17 -159.81l45.12 0c14.96,0 25.53,-4.81 31.83,-14.52 6.26,-9.7 9.39,-23.3 9.39,-40.94 0,-12.68 -1.83,-23.59 -5.53,-32.66 -3.7,-9.07 -8.58,-15.09 -14.59,-17.99 -3.9,-1.77 -11.1,-2.69 -21.55,-2.69l-44.67 0 0 108.8z"/>
   <polygon class="fil6" points="6492.77,11270.33 6492.77,10966.02 6515.94,10966.02 6515.94,11234.63 6601.79,11234.63 6601.79,11270.33 "/>
   <polygon id="_1_0" class="fil6" points="6827.52,11270.33 6827.52,10966.02 6850.68,10966.02 6850.68,11270.33 "/>
   <path id="_2_1" class="fil6" d="M7087.09 11172.58l21.71 -3.4c1.01,15.3 3.41,27.83 7.19,37.68 3.78,9.78 9.63,17.71 17.56,23.8 7.93,6.02 16.87,9.07 26.79,9.07 8.82,0 16.58,-2.27 23.33,-6.87 6.75,-4.61 11.75,-10.91 15.04,-18.92 3.3,-8 4.96,-16.71 4.96,-26.06 0,-9.5 -1.58,-17.78 -4.76,-24.94 -3.17,-7.08 -8.41,-13.03 -15.73,-17.92 -4.67,-3.12 -15.04,-8.08 -31.09,-14.8 -16.06,-6.73 -27.28,-13.04 -33.7,-18.99 -8.34,-7.65 -14.51,-17.14 -18.58,-28.4 -4.1,-11.27 -6.13,-23.95 -6.13,-37.9 0,-15.44 2.51,-29.82 7.51,-43.14 5,-13.39 12.28,-23.52 21.91,-30.46 9.6,-6.94 20.29,-10.41 32.03,-10.41 12.93,0 24.35,3.61 34.23,10.9 9.88,7.23 17.48,17.93 22.81,32.09 5.32,14.1 8.16,30.11 8.57,47.96l-22.19 2.97c-1.18,-19.19 -5.2,-33.71 -12.07,-43.49 -6.87,-9.85 -17.03,-14.73 -30.45,-14.73 -13.99,0 -24.19,4.46 -30.57,13.39 -6.38,8.92 -9.59,19.69 -9.59,32.3 0,10.91 2.27,19.9 6.78,26.99 4.48,7.01 16.06,14.3 34.84,21.67 18.78,7.44 31.67,13.89 38.66,19.41 10.12,8.15 17.64,18.42 22.48,30.96 4.84,12.46 7.24,26.84 7.24,43.14 0,16.22 -2.65,31.38 -7.97,45.69 -5.33,14.3 -12.93,25.43 -22.89,33.36 -9.96,7.93 -21.13,11.9 -33.62,11.9 -15.76,0 -28.98,-4.04 -39.63,-12.04 -10.69,-8.01 -19.02,-20.05 -25.08,-36.2 -6.1,-16.08 -9.27,-34.28 -9.59,-54.61z"/>
   <path class="fil6" d="M5096.38 11114.16c0,-50.98 13.36,-90.93 40.03,-119.78 26.67,-28.85 61.05,-43.24 103.25,-43.24 27.63,0 52.49,6.8 74.7,20.33 22.13,13.53 39.05,32.43 50.68,56.7 11.62,24.2 17.48,51.7 17.48,82.41 0,31.14 -6.13,59.06 -18.38,83.62 -12.26,24.63 -29.59,43.24 -52.01,55.84 -22.49,12.67 -46.71,18.97 -72.69,18.97 -28.19,0 -53.33,-7.01 -75.54,-20.97 -22.13,-13.96 -38.98,-33.01 -50.4,-57.21 -11.41,-24.12 -17.12,-49.68 -17.12,-76.67zm40.94 0.71c0,37.02 9.67,66.16 29.02,87.42 19.36,21.26 43.66,31.93 72.9,31.93 29.79,0 54.23,-10.74 73.51,-32.22 19.22,-21.47 28.83,-51.97 28.83,-91.49 0,-24.99 -4.11,-46.82 -12.32,-65.44 -8.22,-18.61 -20.27,-33.08 -36.07,-43.31 -15.87,-10.24 -33.63,-15.4 -53.33,-15.4 -27.99,0 -52.07,9.88 -72.26,29.64 -20.19,19.76 -30.28,52.7 -30.28,98.87zm71.84 -177.48l26.73 -58.85 48.46 0 -44.69 58.85 -30.5 0z"/>
   <path class="fil6" d="M5992.6 11117.33c0,-50.98 13.36,-90.93 40.03,-119.78 26.67,-28.85 61.05,-43.24 103.25,-43.24 27.63,0 52.49,6.8 74.7,20.33 22.13,13.53 39.05,32.43 50.68,56.7 11.62,24.2 17.47,51.7 17.47,82.41 0,31.14 -6.12,59.06 -18.37,83.62 -12.26,24.63 -29.59,43.24 -52.01,55.84 -22.49,12.67 -46.72,18.97 -72.69,18.97 -28.19,0 -53.33,-7.01 -75.54,-20.97 -22.13,-13.96 -38.98,-33.01 -50.4,-57.21 -11.41,-24.12 -17.12,-49.68 -17.12,-76.67zm40.94 0.71c0,37.02 9.67,66.16 29.02,87.42 19.36,21.26 43.66,31.93 72.9,31.93 29.79,0 54.23,-10.74 73.51,-32.22 19.22,-21.47 28.83,-51.97 28.83,-91.49 0,-24.99 -4.11,-46.82 -12.33,-65.44 -8.21,-18.61 -20.26,-33.08 -36.06,-43.31 -15.87,-10.24 -33.63,-15.4 -53.33,-15.4 -27.99,0 -52.07,9.88 -72.26,29.64 -20.19,19.76 -30.28,52.7 -30.28,98.87z"/>
   <line class="fil2 str16" x1="2504.2" y1="11118.12" x2="3098.42" y2= "11118.12" />
   <line class="fil2 str17" x1="7365.17" y1="11118.12" x2="7959.4" y2= "11118.12" />
   <polygon class="fil6" points="3307.33,11270.33 3307.33,11001.72 3249.78,11001.72 3249.78,10966.02 3388.06,10966.02 3388.06,11001.72 3330.5,11001.72 3330.5,11270.33 "/>
   <polygon id="_1_2" class="fil6" points="3611.3,11270.33 3611.3,10966.02 3737.39,10966.02 3737.39,11001.72 3634.47,11001.72 3634.47,11095.22 3730.81,11095.22 3730.81,11130.92 3634.47,11130.92 3634.47,11234.63 3741.54,11234.63 3741.54,11270.33 "/>
   <path id="_2_3" class="fil6" d="M3977.26 11270.33l0 -304.31 77.39 0c15.57,0 27.4,2.76 35.49,8.21 8.09,5.46 14.55,15.09 19.39,28.9 4.84,13.82 7.24,29.12 7.24,45.84 0,21.6 -4.03,39.81 -12.04,54.61 -8,14.81 -20.36,24.16 -37.11,28.19 6.14,5.1 10.77,10.2 13.94,15.16 6.75,10.77 13.13,24.3 19.11,40.52l30.2 82.88 -28.86 0 -23.09 -63.33c-6.71,-18.34 -12.27,-32.3 -16.62,-42 -4.39,-9.71 -8.29,-16.44 -11.75,-20.33 -3.42,-3.83 -6.95,-6.52 -10.53,-8.08 -2.6,-0.92 -6.87,-1.42 -12.85,-1.42l-26.74 0 0 135.16 -23.17 0zm23.17 -170.01l49.59 0c10.57,0 18.78,-1.91 24.71,-5.74 5.94,-3.75 10.45,-9.84 13.5,-18.27 3.09,-8.36 4.64,-17.43 4.64,-27.27 0,-14.38 -2.98,-26.28 -8.95,-35.56 -5.97,-9.28 -15.41,-13.89 -28.29,-13.89l-55.2 0 0 100.73z"/>
   <polygon id="_3_4" class="fil6" points="4356.67,11270.33 4356.67,10966.02 4482.76,10966.02 4482.76,11001.72 4379.84,11001.72 4379.84,11095.22 4476.18,11095.22 4476.18,11130.92 4379.84,11130.92 4379.84,11234.63 4486.91,11234.63 4486.91,11270.33 "/>
   <path id="_4_5" class="fil6" d="M4714.58 11172.58l21.71 -3.4c1.01,15.3 3.41,27.83 7.19,37.68 3.78,9.78 9.63,17.71 17.56,23.8 7.93,6.02 16.87,9.07 26.79,9.07 8.82,0 16.59,-2.27 23.33,-6.87 6.75,-4.61 11.75,-10.91 15.04,-18.92 3.3,-8 4.96,-16.71 4.96,-26.06 0,-9.5 -1.58,-17.78 -4.76,-24.94 -3.16,-7.08 -8.41,-13.03 -15.72,-17.92 -4.68,-3.12 -15.04,-8.08 -31.1,-14.8 -16.06,-6.73 -27.28,-13.04 -33.7,-18.99 -8.33,-7.65 -14.51,-17.14 -18.58,-28.4 -4.1,-11.27 -6.13,-23.95 -6.13,-37.9 0,-15.44 2.52,-29.82 7.52,-43.14 4.99,-13.39 12.27,-23.52 21.9,-30.46 9.6,-6.94 20.29,-10.41 32.04,-10.41 12.93,0 24.34,3.61 34.23,10.9 9.87,7.23 17.48,17.93 22.8,32.09 5.32,14.1 8.17,30.11 8.57,47.96l-22.19 2.97c-1.18,-19.19 -5.2,-33.71 -12.07,-43.49 -6.87,-9.85 -17.03,-14.73 -30.45,-14.73 -13.98,0 -24.19,4.46 -30.57,13.39 -6.38,8.92 -9.59,19.69 -9.59,32.3 0,10.91 2.28,19.9 6.79,26.99 4.47,7.01 16.05,14.3 34.83,21.67 18.79,7.44 31.67,13.89 38.66,19.41 10.12,8.15 17.64,18.42 22.48,30.96 4.84,12.46 7.24,26.84 7.24,43.14 0,16.22 -2.65,31.38 -7.97,45.69 -5.33,14.3 -12.93,25.43 -22.89,33.36 -9.95,7.93 -21.13,11.9 -33.61,11.9 -15.77,0 -28.99,-4.04 -39.64,-12.04 -10.69,-8.01 -19.02,-20.05 -25.08,-36.2 -6.1,-16.08 -9.26,-34.28 -9.59,-54.61z"/>
   <path class="fil6" d="M5598.13 11270.33l0 -304.31 65.93 0c11.59,0 20.45,0.99 26.59,2.9 8.57,2.48 15.77,7.23 21.58,14.17 5.81,7.01 10.49,16.79 14.02,29.32 3.54,12.54 5.29,26.35 5.29,41.44 0,25.79 -4.71,47.68 -14.19,65.53 -9.43,17.92 -26.54,26.84 -51.25,26.84l-44.8 0 0 124.11 -23.17 0zm23.17 -159.81l45.12 0c14.96,0 25.53,-4.81 31.83,-14.52 6.26,-9.7 9.39,-23.3 9.39,-40.94 0,-12.68 -1.83,-23.59 -5.53,-32.66 -3.7,-9.07 -8.58,-15.09 -14.59,-17.99 -3.9,-1.77 -11.1,-2.69 -21.55,-2.69l-44.67 0 0 108.8z"/>
   <polygon class="fil6" points="6492.77,11270.33 6492.77,10966.02 6515.94,10966.02 6515.94,11234.63 6601.79,11234.63 6601.79,11270.33 "/>
   <polygon id="_1_6" class="fil6" points="6827.52,11270.33 6827.52,10966.02 6850.68,10966.02 6850.68,11270.33 "/>
   <path id="_2_7" class="fil6" d="M7087.09 11172.58l21.71 -3.4c1.01,15.3 3.41,27.83 7.19,37.68 3.78,9.78 9.63,17.71 17.56,23.8 7.93,6.02 16.87,9.07 26.79,9.07 8.82,0 16.58,-2.27 23.33,-6.87 6.75,-4.61 11.75,-10.91 15.04,-18.92 3.3,-8 4.96,-16.71 4.96,-26.06 0,-9.5 -1.58,-17.78 -4.76,-24.94 -3.17,-7.08 -8.41,-13.03 -15.73,-17.92 -4.67,-3.12 -15.04,-8.08 -31.09,-14.8 -16.06,-6.73 -27.28,-13.04 -33.7,-18.99 -8.34,-7.65 -14.51,-17.14 -18.58,-28.4 -4.1,-11.27 -6.13,-23.95 -6.13,-37.9 0,-15.44 2.51,-29.82 7.51,-43.14 5,-13.39 12.28,-23.52 21.91,-30.46 9.6,-6.94 20.29,-10.41 32.03,-10.41 12.93,0 24.35,3.61 34.23,10.9 9.88,7.23 17.48,17.93 22.81,32.09 5.32,14.1 8.16,30.11 8.57,47.96l-22.19 2.97c-1.18,-19.19 -5.2,-33.71 -12.07,-43.49 -6.87,-9.85 -17.03,-14.73 -30.45,-14.73 -13.99,0 -24.19,4.46 -30.57,13.39 -6.38,8.92 -9.59,19.69 -9.59,32.3 0,10.91 2.27,19.9 6.78,26.99 4.48,7.01 16.06,14.3 34.84,21.67 18.78,7.44 31.67,13.89 38.66,19.41 10.12,8.15 17.64,18.42 22.48,30.96 4.84,12.46 7.24,26.84 7.24,43.14 0,16.22 -2.65,31.38 -7.97,45.69 -5.33,14.3 -12.93,25.43 -22.89,33.36 -9.96,7.93 -21.13,11.9 -33.62,11.9 -15.76,0 -28.98,-4.04 -39.63,-12.04 -10.69,-8.01 -19.02,-20.05 -25.08,-36.2 -6.1,-16.08 -9.27,-34.28 -9.59,-54.61z"/>
   <path class="fil6" d="M5096.38 11114.16c0,-50.98 13.36,-90.93 40.03,-119.78 26.67,-28.85 61.05,-43.24 103.25,-43.24 27.63,0 52.49,6.8 74.7,20.33 22.13,13.53 39.05,32.43 50.68,56.7 11.62,24.2 17.48,51.7 17.48,82.41 0,31.14 -6.13,59.06 -18.38,83.62 -12.26,24.63 -29.59,43.24 -52.01,55.84 -22.49,12.67 -46.71,18.97 -72.69,18.97 -28.19,0 -53.33,-7.01 -75.54,-20.97 -22.13,-13.96 -38.98,-33.01 -50.4,-57.21 -11.41,-24.12 -17.12,-49.68 -17.12,-76.67zm40.94 0.71c0,37.02 9.67,66.16 29.02,87.42 19.36,21.26 43.66,31.93 72.9,31.93 29.79,0 54.23,-10.74 73.51,-32.22 19.22,-21.47 28.83,-51.97 28.83,-91.49 0,-24.99 -4.11,-46.82 -12.32,-65.44 -8.22,-18.61 -20.27,-33.08 -36.07,-43.31 -15.87,-10.24 -33.63,-15.4 -53.33,-15.4 -27.99,0 -52.07,9.88 -72.26,29.64 -20.19,19.76 -30.28,52.7 -30.28,98.87zm71.84 -177.48l26.73 -58.85 48.46 0 -44.69 58.85 -30.5 0z"/>
   <path class="fil6" d="M5992.6 11117.33c0,-50.98 13.36,-90.93 40.03,-119.78 26.67,-28.85 61.05,-43.24 103.25,-43.24 27.63,0 52.49,6.8 74.7,20.33 22.13,13.53 39.05,32.43 50.68,56.7 11.62,24.2 17.47,51.7 17.47,82.41 0,31.14 -6.12,59.06 -18.37,83.62 -12.26,24.63 -29.59,43.24 -52.01,55.84 -22.49,12.67 -46.72,18.97 -72.69,18.97 -28.19,0 -53.33,-7.01 -75.54,-20.97 -22.13,-13.96 -38.98,-33.01 -50.4,-57.21 -11.41,-24.12 -17.12,-49.68 -17.12,-76.67zm40.94 0.71c0,37.02 9.67,66.16 29.02,87.42 19.36,21.26 43.66,31.93 72.9,31.93 29.79,0 54.23,-10.74 73.51,-32.22 19.22,-21.47 28.83,-51.97 28.83,-91.49 0,-24.99 -4.11,-46.82 -12.33,-65.44 -8.21,-18.61 -20.26,-33.08 -36.06,-43.31 -15.87,-10.24 -33.63,-15.4 -53.33,-15.4 -27.99,0 -52.07,9.88 -72.26,29.64 -20.19,19.76 -30.28,52.7 -30.28,98.87z"/>
  </g>
 </g>
</svg>
