<?xml version="1.0" encoding="UTF-8"?>
<!DOCTYPE svg PUBLIC "-//W3C//DTD SVG 1.1//EN" "http://www.w3.org/Graphics/SVG/1.1/DTD/svg11.dtd">
<!-- Creator: CorelDRAW 2021 (64 Bit) -->
<svg xmlns="http://www.w3.org/2000/svg" xml:space="preserve" width="110mm" height="160mm" version="1.1" style="shape-rendering:geometricPrecision; text-rendering:geometricPrecision; image-rendering:optimizeQuality; fill-rule:evenodd; clip-rule:evenodd"
viewBox="0 0 11000 16000"
 xmlns:xlink="http://www.w3.org/1999/xlink"
 xmlns:xodm="http://www.corel.com/coreldraw/odm/2003">
 <defs>
  <style type="text/css">
   <![CDATA[
    .fil1 {fill:#0C597A;fill-rule:nonzero}
    .fil0 {fill:#313745;fill-rule:nonzero}
    .fil2 {fill:#D73117;fill-rule:nonzero}
   ]]>
  </style>
 </defs>
 <g id="Layer_x0020_1">
  <metadata id="CorelCorpID_0Corel-Layer"/>
  <g id="_2082301160272">
   <path class="fil0" d="M4067.95 6570.75c0,-394.67 299.32,-699.28 701.92,-699.28 256.95,0 484.74,135.09 598.63,339.04l-346.98 201.32c-45.03,-92.72 -140.39,-148.35 -256.94,-148.35 -172.16,0 -299.31,124.49 -299.31,307.27 0,182.77 127.15,307.25 299.31,307.25 116.55,0 214.55,-55.62 256.94,-148.32l346.98 198.66c-113.89,206.61 -339.04,341.7 -598.63,341.7 -402.6,0 -701.92,-304.62 -701.92,-699.29z"/>
   <path class="fil0" d="M8334.88 6419.77l0 813.17 -397.34 0 0 -754.91c0,-164.22 -103.29,-241.03 -230.43,-241.03 -145.68,0 -246.34,84.77 -246.34,272.82l0 723.12 -397.31 0 0 -1324.38 397.31 0 0 124.49c71.52,-98.02 203.95,-161.58 378.77,-161.58 267.53,0 495.34,190.71 495.34,548.3z"/>
   <path class="fil0" d="M1272.25 8115.74c0,-394.65 299.32,-699.28 701.92,-699.28 256.95,0 484.74,135.07 598.63,339.05l-346.98 201.31c-45.03,-92.72 -140.39,-148.36 -256.94,-148.36 -172.16,0 -299.31,124.5 -299.31,307.28 0,182.79 127.15,307.26 299.31,307.26 116.55,0 214.55,-55.65 256.94,-148.33l346.98 198.66c-113.89,206.63 -339.04,341.7 -598.63,341.7 -402.6,0 -701.92,-304.63 -701.92,-699.29z"/>
   <path class="fil0" d="M3645.42 8115.74c0,-188.06 -132.43,-312.56 -304.61,-312.56 -172.16,0 -304.61,124.5 -304.61,312.56 0,188.07 132.45,312.53 304.61,312.53 172.18,0 304.61,-124.46 304.61,-312.53zm-1006.54 0c0,-394.65 312.55,-699.28 701.93,-699.28 389.37,0 701.94,304.63 701.94,699.28 0,394.66 -312.57,699.29 -701.94,699.29 -389.38,0 -701.93,-304.63 -701.93,-699.29z"/>
   <path class="fil0" d="M5539.17 7964.76l0 813.2 -397.33 0 0 -754.93c0,-164.21 -103.29,-241.02 -230.43,-241.02 -145.68,0 -246.34,84.75 -246.34,272.81l0 723.14 -397.31 0 0 -1324.43 397.31 0 0 124.51c71.52,-98 203.95,-161.58 378.77,-161.58 267.53,0 495.33,190.71 495.33,548.3z"/>
   <path class="fil1" d="M6141.7 6258.18c172.18,0 304.62,124.52 304.62,312.57 0,188.06 -132.44,312.56 -304.62,312.56 -172.16,0 -304.62,-124.5 -304.62,-312.56 0,-188.05 132.46,-312.57 304.62,-312.57zm701.94 312.57c0,-394.67 -312.57,-699.29 -701.94,-699.29 -389.37,0 -701.92,304.62 -701.92,699.29 0,313.13 197.06,568.94 472.82,661.53l0 221.25 -211.92 0 0 381.43 211.92 0 0 468.84c0,370.84 150.97,527.1 670.13,474.15l0 -360.23c-177.94,0 -272.81,0 -272.81,-113.92l0 -468.84 272.81 0 0 -381.43 -272.81 0 0 -203.91c307.23,-73.33 533.72,-343.14 533.72,-678.87z"/>
   <path class="fil0" d="M7634.06 7427.06l0 450.3c-164.22,-26.52 -397.31,39.73 -397.31,301.97l0 598.63 -397.31 0 0 -1324.42 397.31 0 0 235.72c52.97,-177.46 230.45,-262.2 397.31,-262.2z"/>
   <path class="fil0" d="M8719.97 8115.74c0,-188.06 -132.42,-312.56 -304.61,-312.56 -172.16,0 -304.61,124.5 -304.61,312.56 0,188.07 132.45,312.53 304.61,312.53 172.19,0 304.61,-124.46 304.61,-312.53zm-1006.53 0c0,-394.65 312.55,-699.28 701.92,-699.28 389.37,0 701.93,304.63 701.93,699.28 0,394.66 -312.56,699.29 -701.93,699.29 -389.37,0 -701.92,-304.63 -701.92,-699.29z"/>
   <path class="fil0" d="M9342.31 6874.77c-148.42,0 -231.51,-11.42 -231.51,-115.96l0 -468.83 272.83 0 0 -381.42 -272.83 0 0 -370.84 -397.31 119.2 0 251.64 -211.91 0 0 381.42 211.91 0 0 468.83c0,360.78 143.01,518.4 628.82,477.92l0 1541.22 397.32 0 0 -1902.21c0,0 -248.9,-0.97 -397.32,-0.97z"/>
   <polygon class="fil2" points="9462.53,6413.95 9462.53,6731.48 9875.32,6731.48 9875.32,7144.27 10192.85,7144.27 10192.85,6413.95 "/>
   <path class="fil0" d="M1457.82 9328.96l-77.42 198.67 154.26 0 -76.84 -198.67zm138.31 358.62l-50.08 -127.51 -177.03 0 -50.1 127.51 -38.13 0 167.92 -420.65 18.79 0 166.78 420.65 -38.15 0z"/>
   <path class="fil0" d="M1767.45 9606.74l27.89 -18.78c21.06,46.11 59.76,73.43 109.29,73.43 28.46,0 51.79,-7.96 69.44,-23.34 17.64,-15.36 26.76,-34.72 26.76,-58.07 0,-32.44 -18.78,-53.49 -55.22,-71.71 -7.97,-3.98 -22.2,-10.82 -43.25,-19.93 -20.5,-9.1 -34.16,-15.36 -41.55,-19.34 -47.82,-23.91 -71.72,-57.5 -71.72,-100.19 0,-31.31 10.81,-57.5 33.01,-77.98 22.19,-21.07 51.79,-31.31 87.65,-31.31 50.09,0 89.94,21.07 118.97,62.62l-26.18 21.05c-23.92,-34.14 -54.65,-51.22 -92.22,-51.22 -49.51,0 -84.81,30.17 -84.81,75.14 0,29.02 17.08,52.36 50.66,70.01 7.4,3.99 22.77,11.37 46.11,21.63 23.33,10.25 39.28,17.65 47.82,22.2 44.96,24.47 67.72,56.92 67.72,97.9 0,34.16 -12.51,62.05 -38.13,83.68 -25.05,21.06 -56.34,31.86 -93.93,31.86 -59.2,0 -112.69,-30.15 -138.31,-87.65z"/>
   <path class="fil0" d="M2194.92 9606.74l27.89 -18.78c21.06,46.11 59.76,73.43 109.29,73.43 28.46,0 51.79,-7.96 69.44,-23.34 17.65,-15.36 26.76,-34.72 26.76,-58.07 0,-32.44 -18.78,-53.49 -55.22,-71.71 -7.97,-3.98 -22.2,-10.82 -43.25,-19.93 -20.5,-9.1 -34.16,-15.36 -41.55,-19.34 -47.82,-23.91 -71.72,-57.5 -71.72,-100.19 0,-31.31 10.81,-57.5 33.01,-77.98 22.19,-21.07 51.79,-31.31 87.65,-31.31 50.1,0 89.95,21.07 118.97,62.62l-26.17 21.05c-23.92,-34.14 -54.65,-51.22 -92.23,-51.22 -49.51,0 -84.8,30.17 -84.8,75.14 0,29.02 17.08,52.36 50.65,70.01 7.4,3.99 22.77,11.37 46.11,21.63 23.33,10.25 39.28,17.65 47.82,22.2 44.96,24.47 67.72,56.92 67.72,97.9 0,34.16 -12.51,62.05 -38.12,83.68 -25.05,21.06 -56.35,31.86 -93.94,31.86 -59.19,0 -112.69,-30.15 -138.31,-87.65z"/>
   <polygon class="fil0" points="2661.66,9687.57 2661.66,9266.92 2914.96,9266.92 2914.96,9299.94 2696.37,9299.94 2696.37,9458.19 2900.16,9458.19 2900.16,9490.62 2696.37,9490.62 2696.37,9654.56 2916.09,9654.56 2916.09,9687.57 "/>
   <path class="fil0" d="M3078.31 9606.74l27.89 -18.78c21.06,46.11 59.76,73.43 109.29,73.43 28.46,0 51.81,-7.96 69.44,-23.34 17.64,-15.36 26.76,-34.72 26.76,-58.07 0,-32.44 -18.78,-53.49 -55.22,-71.71 -7.97,-3.98 -22.2,-10.82 -43.25,-19.93 -20.5,-9.1 -34.16,-15.36 -41.56,-19.34 -47.81,-23.91 -71.71,-57.5 -71.71,-100.19 0,-31.31 10.81,-57.5 33.01,-77.98 22.19,-21.07 51.79,-31.31 87.65,-31.31 50.09,0 89.94,21.07 118.97,62.62l-26.18 21.05c-23.92,-34.14 -54.65,-51.22 -92.22,-51.22 -49.52,0 -84.81,30.17 -84.81,75.14 0,29.02 17.06,52.36 50.66,70.01 7.41,3.99 22.77,11.37 46.11,21.63 23.33,10.25 39.28,17.65 47.81,22.2 44.97,24.47 67.74,56.92 67.74,97.9 0,34.16 -12.52,62.05 -38.14,83.68 -25.04,21.06 -56.34,31.86 -93.93,31.86 -59.2,0 -112.69,-30.15 -138.31,-87.65z"/>
   <path class="fil0" d="M3505.78 9606.74l27.89 -18.78c21.06,46.11 59.76,73.43 109.29,73.43 28.46,0 51.81,-7.96 69.44,-23.34 17.65,-15.36 26.76,-34.72 26.76,-58.07 0,-32.44 -18.78,-53.49 -55.22,-71.71 -7.97,-3.98 -22.2,-10.82 -43.25,-19.93 -20.5,-9.1 -34.16,-15.36 -41.56,-19.34 -47.81,-23.91 -71.71,-57.5 -71.71,-100.19 0,-31.31 10.81,-57.5 33.01,-77.98 22.19,-21.07 51.79,-31.31 87.65,-31.31 50.1,0 89.95,21.07 118.97,62.62l-26.17 21.05c-23.93,-34.14 -54.65,-51.22 -92.23,-51.22 -49.52,0 -84.8,30.17 -84.8,75.14 0,29.02 17.06,52.36 50.65,70.01 7.41,3.99 22.77,11.37 46.11,21.63 23.33,10.25 39.28,17.65 47.81,22.2 44.96,24.47 67.73,56.92 67.73,97.9 0,34.16 -12.51,62.05 -38.12,83.68 -25.05,21.06 -56.35,31.86 -93.94,31.86 -59.19,0 -112.69,-30.15 -138.31,-87.65z"/>
   <path class="fil0" d="M4287.86 9607.89c34.72,-35.86 52.36,-79.13 52.36,-130.36 0,-51.79 -17.64,-95.06 -52.36,-130.92 -34.72,-35.87 -77.41,-53.51 -128.06,-53.51 -50.66,0 -93.37,18.22 -128.67,54.08 -34.71,35.86 -52.35,79.12 -52.35,130.35 0,51.23 17.64,94.5 52.35,130.36 34.73,35.28 78.01,52.93 128.67,52.93 50.65,0 93.34,-17.65 128.06,-52.93zm-281.76 23.34c-41.56,-42.14 -62.62,-93.36 -62.62,-153.12 0,-60.34 21.06,-111.58 63.19,-154.27 42.11,-42.68 93.36,-64.32 153.13,-64.32 59.76,0 110.42,21.07 152.53,63.76 42.71,42.68 63.76,93.92 63.76,153.68 0,59.78 -21.05,111 -63.76,153.69 -42.11,42.7 -93.34,63.75 -153.68,63.75 -59.78,0 -111,-21.05 -152.55,-63.17z"/>
   <path class="fil0" d="M4610.57 9299.94l0 177.03 84.25 0c68.31,0 105.31,-36.43 105.31,-89.38 0,-51.79 -37,-87.65 -96.77,-87.65l-92.79 0zm191.83 387.63l-107.58 -177.59 -84.25 0 0 177.59 -34.71 0 0 -420.65 126.94 0c42.68,0 75.69,11.96 98.46,36.43 23.33,23.91 34.73,52.37 34.73,85.38 0,27.9 -9.1,53.51 -27.33,75.71 -17.64,22.21 -43.26,35.86 -76.84,42.12l112.72 181.01 -42.14 0z"/>
   <polygon class="fil0" points="5042.03,9266.93 5076.74,9266.93 5076.74,9687.58 5042.03,9687.58 "/>
   <path class="fil0" d="M5433.64 9328.96l-77.42 198.67 154.26 0 -76.84 -198.67zm138.31 358.62l-50.08 -127.51 -177.03 0 -50.09 127.51 -38.14 0 167.92 -420.65 18.79 0 166.77 420.65 -38.14 0z"/>
   <path class="fil0" d="M6063.15 9633.5c-41.54,-40.42 -62.62,-91.65 -62.62,-154.83 0,-63.75 21.08,-116.12 63.19,-157.1 42.7,-41.55 93.92,-62.04 153.7,-62.04 38.13,0 73.99,8.53 107.01,26.18 33.01,17.06 58.06,39.27 75.7,67.17l-26.76 19.92c-31.3,-47.82 -90.5,-79.7 -155.95,-79.7 -51.8,0 -95.07,17.65 -129.78,52.38 -34.73,34.72 -51.81,79.11 -51.81,132.62 0,52.95 17.08,96.77 51.23,131.5 34.72,34.14 77.98,51.22 129.79,51.22 63.75,0 121.81,-29.6 158.24,-77.98l25.04 20.48c-40.41,54.65 -107,90.51 -183.85,90.51 -60.35,0 -111.58,-19.92 -153.13,-60.33z"/>
   <path class="fil0" d="M6901.59 9607.89c34.7,-35.86 52.35,-79.13 52.35,-130.36 0,-51.79 -17.65,-95.06 -52.35,-130.92 -34.73,-35.87 -77.42,-53.51 -128.07,-53.51 -50.66,0 -93.37,18.22 -128.67,54.08 -34.7,35.86 -52.35,79.12 -52.35,130.35 0,51.23 17.65,94.5 52.35,130.36 34.73,35.28 78.01,52.93 128.67,52.93 50.65,0 93.34,-17.65 128.07,-52.93zm-281.77 23.34c-41.55,-42.14 -62.62,-93.36 -62.62,-153.12 0,-60.34 21.07,-111.58 63.19,-154.27 42.11,-42.68 93.36,-64.32 153.13,-64.32 59.76,0 110.42,21.07 152.53,63.76 42.71,42.68 63.76,93.92 63.76,153.68 0,59.78 -21.05,111 -63.76,153.69 -42.11,42.7 -93.34,63.75 -153.68,63.75 -59.77,0 -111,-21.05 -152.55,-63.17z"/>
   <polygon class="fil0" points="7478.18,9266.93 7512.91,9266.93 7512.91,9687.58 7494.7,9687.58 7224.31,9345.48 7224.31,9687.58 7189.59,9687.58 7189.59,9266.93 7204.96,9266.93 7478.18,9612.43 "/>
   <polygon class="fil0" points="7820.26,9300.51 7692.75,9300.51 7692.75,9266.93 7982.48,9266.93 7982.48,9300.51 7854.97,9300.51 7854.97,9687.58 7820.26,9687.58 "/>
   <path class="fil0" d="M8317.16 9143.41l-48.39 91.07 -29.03 0 33.59 -91.07 43.83 0zm-65.46 185.56l-77.41 198.65 154.26 0 -76.85 -198.65zm138.32 358.6l-50.1 -127.5 -177.02 0 -50.1 127.5 -38.13 0 167.92 -420.64 18.79 0 166.78 420.64 -38.14 0z"/>
   <path class="fil0" d="M8762.84 9654.56c30.17,0 54.07,-8.53 72.28,-25.05 18.8,-17.08 27.9,-38.13 27.9,-63.18 0,-25.05 -9.1,-45.54 -27.9,-62.04 -18.78,-16.51 -42.69,-25.05 -72.86,-25.05l-118.96 0 0 175.32 119.54 0zm-119.54 -354.62l0 146.29 119.54 0c46.11,0 78.55,-33.01 78.55,-74.57 0,-41.56 -30.74,-71.72 -84.82,-71.72l-113.27 0zm255.57 268.1c0,32.45 -11.37,60.34 -34.71,84.24 -23.33,23.34 -55.78,35.29 -98.48,35.29l-157.1 0 0 -420.65 151.41 0c37,0 66.03,10.25 85.96,31.32 20.49,20.48 30.72,44.95 30.72,73.42 0,40.4 -23.33,76.27 -59.76,88.22 52.37,14.24 81.96,58.63 81.96,108.16z"/>
   <polygon class="fil0" points="9098.66,9266.93 9133.37,9266.93 9133.37,9687.58 9098.66,9687.58 "/>
   <polygon class="fil0" points="9362.2,9687.57 9362.2,9266.92 9396.91,9266.92 9396.91,9654 9632,9654 9632,9687.57 "/>
  </g>
 </g>
</svg>
