<?xml version="1.0" encoding="UTF-8"?>
<!DOCTYPE svg PUBLIC "-//W3C//DTD SVG 1.1//EN" "http://www.w3.org/Graphics/SVG/1.1/DTD/svg11.dtd">
<!-- Creator: CorelDRAW 2021 (64 Bit) -->
<svg xmlns="http://www.w3.org/2000/svg" xml:space="preserve" width="110mm" height="160mm" version="1.1" style="shape-rendering:geometricPrecision; text-rendering:geometricPrecision; image-rendering:optimizeQuality; fill-rule:evenodd; clip-rule:evenodd"
viewBox="0 0 11000 16000"
 xmlns:xlink="http://www.w3.org/1999/xlink"
 xmlns:xodm="http://www.corel.com/coreldraw/odm/2003">
 <defs>
  <style type="text/css">
   <![CDATA[
    .fil1 {fill:#125241}
    .fil3 {fill:#ABC957}
    .fil0 {fill:#E9E6DB}
    .fil4 {fill:#FCAC0B}
    .fil2 {fill:#FEC40A}
    .fil5 {fill:#FEFEFE}
    .fil6 {fill:#201E1E;fill-rule:nonzero}
   ]]>
  </style>
 </defs>
 <g id="Camada_x0020_1">
  <metadata id="CorelCorpID_0Corel-Layer"/>
  <g id="_2484570453424">
   <g>
    <path class="fil0" d="M4547.55 3537.97c52.6,326.26 92.74,766.03 29.05,1099.55 -59.27,310.32 -119.21,508.62 91.35,599.11 55.73,23.96 76.42,34.4 149.51,26.02 64.39,-17.79 290.84,-35.08 366.54,28.65 77,64.81 98.93,76.21 159.59,162.79 49.93,71.25 -1.21,33.56 71.32,70.87 11.67,-238.54 28.28,-121.16 -108.7,-233.07 25.88,-35.22 -4.97,-12.38 43.9,-35.66 21.31,-10.15 39.81,-13.07 60.04,-15.68 54.32,-7.02 110,-1.67 164.09,3 58.21,30.11 147.98,-9 190.47,-18.59 41.75,-9.42 79.03,-15.04 109.65,-24.38 251.55,-76.73 271.55,-116.03 438.36,-227.73 0,-110.48 -52,-382 -131.33,-468.95 308.07,-159.77 467.62,-483.68 429.22,-864.45 -27.02,-268.05 -155.45,-551.11 -448.48,-544.23 -77.62,1.82 -184.19,21.92 -262.17,39.08 0,-350.36 82.56,-475.82 -338.8,-468.81 -229.97,3.83 -97.78,-49.93 -263.75,-100.7 -116.1,-35.51 -277.98,-9.45 -353.76,42.12 -142.31,96.84 -123.34,-6.43 -306.89,63.44 -94.24,35.87 -339.49,51.81 -362.32,240.72 -10.11,83.58 28.36,119.21 43.54,163.04 16.4,47.36 33.16,156.82 78.11,211.05 67.66,81.63 128.39,109.6 151.46,252.81zm1540.12 707.88c421.77,-100.61 276.97,-870.25 106.17,-941.57 -45.62,-19.05 -105.55,-20.88 -159.88,-4.86 -145.98,43.03 -95.58,266.94 -74.89,387.02 53.71,311.79 59.22,283.59 128.6,559.41z"/>
    <path class="fil1" d="M8003.47 6980.45c-209.98,76.64 -212.92,285.83 -212.74,525.33 0.57,772.23 -87.66,971.02 492.06,970.14 143.05,-0.21 604.65,16.88 707.98,-18.3 199.42,-67.9 209.95,-266.78 209.62,-520.31 -0.25,-193.57 19.07,-540.62 -16.46,-713.03 -52.08,-252.6 -192.02,-256.21 -469.6,-255.91 -113.87,0.13 -643.16,-12.62 -710.86,12.08zm448.18 1244.86c83.27,-0.07 169.98,16.86 219.57,-31.65 63.25,-69.88 39.48,-807.18 18.55,-946.06 -62.6,-36.36 -236.69,-64.55 -341.14,-29.58 -95.39,31.94 -62.49,229.56 -62.47,344.04 0.12,570.88 -68.01,663.43 165.49,663.25z"/>
    <path class="fil2" d="M4981.89 3456.98c-4.39,86.86 28.64,227.26 39.74,333.83 12.4,119.06 31.06,223.44 44.04,345.78 22.42,211.5 73.23,544.66 -42.24,690.2 -100.14,18.26 -204.72,38.02 -251.85,-39.38 -34.71,-64.71 28.04,-180.36 41.73,-262.31 15.23,-91.1 52.07,-757.07 -9.65,-798.08 -23.23,-15.44 -58.3,-4.27 -83.67,4.45 -60.38,20.75 -19.29,4 -47.24,21.96 -4.57,204.44 19.78,409 10.71,619.9 -5.47,127.18 -67.08,469.94 -48.78,550.16 366.04,75.28 1262.91,-48.06 1533.27,-171.38 4.68,-107.8 -3.69,-103.91 -35,-181.05 -35.34,-87.1 -4.16,-46.59 22.77,-150.16 -83.63,23.49 -56.4,40.81 -134.87,36 -93.49,-155.96 -19.37,-129.6 -30.67,-269.82l-130.28 -561.89c-44.36,-84.64 -76.38,-141.31 -90.04,-267.37l-787.97 99.16z"/>
    <path class="fil1" d="M3755.26 8213.91c-216.46,40.83 -564.67,26.26 -748.09,-31.95l31.58 288.48c190.8,25.88 535.24,5.17 741.23,5.47 289.34,0.42 441.52,4.93 469.96,-296.46 17.71,-187.68 35.53,-572.32 -77.94,-671.77 -218.7,-191.68 -712.62,92.22 -698.84,-189.98 8.03,-164.57 156.88,-106.45 400.64,-106.76 185.71,-0.23 194.84,2.12 359.29,40.5 -4.96,-62.07 -12.9,-132.99 -22.79,-197.17 -15.78,-102.38 -21.33,-88.48 -128.18,-87.6 -150.84,1.26 -301.32,1.72 -452.24,1.72 -630.7,0 -639.79,-41.23 -637.09,669.22 1.53,402.33 163.82,357.77 543.33,355.52 210.57,-1.25 273.27,-38.65 219.14,220.78z"/>
    <path class="fil1" d="M1699.83 8475.45l1135.61 0.42c19.23,-84.48 47.61,-202.31 34.09,-283.06 -120.71,47.38 -493.98,41 -644.37,28.33l-0.18 -394.66c216.07,-14.86 382.37,-1.63 583.79,26.49l0.83 -312.87c-212.92,27.34 -344.23,37.6 -577.48,31.6l-6.98 -360.63c386.53,-0.66 284.05,-2.23 631.23,31.65l-37.85 -272.64 -1115.46 -1.81c3.13,111.14 27.54,207.51 27.47,349.88 -0.21,456.48 14.14,699.94 -30.7,1157.3z"/>
    <path class="fil1" d="M4342.82 7259.91c153.92,-53.81 212.78,-60.19 404.43,-46.26 36.44,284.45 10.96,985.68 -25.54,1260.63l556.14 1.55c-34.65,-339.6 -68.19,-915.31 -26.36,-1261.34 180.95,-13.99 261.58,-12.58 403.77,46.49l-29.94 -285.62 -1238.5 -7.27 -44 291.82z"/>
    <path class="fil3" d="M8766.48 9344.43c74.43,52.01 637.91,226.43 755.28,261.48 -20.66,67.92 -183.91,248.38 -231.65,315.15 -152.76,213.68 -103.87,161.37 -392.59,167.75 3.4,3.83 9.28,3.76 11.34,10.35 2.05,6.56 8.82,7.88 11.71,9.82 23.33,15.7 3.89,4.7 38.32,23.27 40.14,21.65 32.82,7.01 68.77,37.7 -442.06,399.35 -1287.97,623.99 -1926.86,609.33l-278.38 -12.78c27.89,-74.16 85.98,-94.21 91.86,-186.12 16.66,-260.52 -464.14,-294.21 -538.89,-101.6 -77.43,199.49 140.99,257.63 257.76,310.35 88.17,39.82 -4.29,27.84 86.01,32.06 507.02,23.65 1100.27,1.19 1557.2,-170.46 389.8,-146.43 817.03,-437 850.71,-446.73l128.63 173.02c35.17,-51.71 -1.54,-131.57 -12.39,-207.07 63.14,-64.79 169.12,-124.78 258.41,-188 73.51,-52.05 175.91,-176.16 263.25,-179.06 58.92,116 112.03,220.43 171.98,326.94 46.66,82.9 123.75,289.26 207.22,325.22 -0.3,-213.85 -213.79,-608.47 -230.34,-829.19 104.11,-131.49 287.72,-244.37 365.48,-387.57 91.24,-167.98 -38,-319.08 -360.25,-3.11 -291.43,285.75 -121.5,245.4 -977.39,103.78 -18.62,-3.07 -71.95,-13.64 -81.83,-14.29 -25.94,-1.71 -23.02,-3.36 -48.76,1.67 -48.63,9.51 -18.18,-1.51 -44.6,18.09zm-2022.15 1405.51c49.83,-50.46 148.05,-135.23 94.28,-241.73 -104.12,-206.27 -554.73,-91.86 -364.67,136.94 52.74,63.47 188.37,101.72 270.39,104.79z"/>
    <path class="fil1" d="M6558.03 8475.58l1112.34 -0.1 42.85 -281.11c-212.65,40.33 -411.13,36.07 -632.55,29.1l-0.9 -961.68c0.08,-134.03 20.18,-185.49 31.7,-290.95l-551.39 -2.67c0.28,88.24 27.25,220.22 27.17,349.96 -0.3,467 11.84,685.95 -29.22,1157.45z"/>
    <path class="fil1" d="M5778.13 8471.91l562.4 3.64c-69.41,-361.98 -53.66,-1140.99 -1.51,-1502.7l-558.97 -4.16c43.63,463.68 60.92,1041.69 -1.92,1503.22z"/>
    <path class="fil4" d="M5027.1 6185.3c-3.56,4.46 -9.29,4.96 -11.61,12.58l-50.49 37.57c-13.85,6.2 -62.83,14.87 -78.4,16.48 -755.49,77.87 -652.47,-762.38 -1183,-995 -94.42,-41.41 -41.2,-58.41 -104.04,-87.04 -124,-56.51 -193.62,140.96 -91.12,189.58 72.71,34.49 101.47,-13.11 158.97,-31.75 119.06,72.43 310.97,180.41 344.89,325.67 -117.94,-27.57 -172.08,-105.62 -323.56,-95.66 -38.26,2.52 -120.41,24.9 -164.85,41.71 -62.24,23.56 -92.5,34.45 -71.88,113.2 176.16,31.39 135.13,-228.45 540.53,3.9 89.19,51.13 72.49,30.69 118.34,127.58 123,259.91 284.93,338.86 535.53,456.83 -240.22,175.45 -690.7,-576.46 -1017.29,-467.06 30.22,84.97 31.9,33.95 106.91,65.01 74.68,30.93 23.01,36.91 91.95,94.82 80.25,67.41 197.74,47.27 168.48,168.79 -92.64,-4.92 -75.32,-46.42 -216.82,-26.79 2,190.98 344.79,238.96 400.81,157.3l31.05 -47.74c127.65,25.83 321.31,206.51 548.28,101.02 81.04,-37.66 114.81,-28.99 202.78,-42.48 209.96,-32.21 497.88,-221.93 420.65,-513.49 -96.92,-6.49 -43.2,43.09 -124.57,63.85 -75.2,19.18 -90,-27.58 -175.73,-46.29 23.3,135.2 75.83,138.51 210.47,146.24 -12.38,217.73 -261.64,153.88 -288.65,155.94 -58.35,4.45 -75.08,21.24 -153.1,11.29 -289.59,-36.93 -142.12,-231.91 -164.76,-454.23l-73.86 -37.52c-1.42,-46.82 -3.82,-100.65 5.11,-142.94 11.07,-52.42 10.95,-5.95 15.16,-52.51 0.29,-3.34 0.69,-9.09 0.64,-12.25 -0.05,-3.17 -1.29,-9.36 -1.61,-12.19 -3.41,-30.38 -22.67,-62.15 -80.93,-24.61 -57.18,36.85 -95.37,197.09 -95.32,281.91 0.12,187.29 92.95,246.19 130.43,373.79 -114.75,-48.76 -255.26,-241.46 -231.48,-448.92 13.14,-114.71 82.95,-175.58 93.51,-248.32 12.24,-84.37 -22.39,-68.04 -6.03,-140.42 15.56,-68.83 34.05,-32.03 66.32,-98.87 -310.21,-162.87 -599.07,1088.46 518.29,1081.02z"/>
    <path class="fil4" d="M6372.26 5104.28c27.42,60.7 50.17,46.92 63.21,100.5 20.34,83.57 -19.56,48.91 -8.09,140.03 9.32,73.98 85.72,126.25 100.61,253.25 19.33,164.85 -120.19,414.61 -245.29,438.56 50.12,-107.72 125.03,-189 132.31,-350.29 6.06,-134.2 -24,-325.95 -172.07,-313.61 -7.78,35.75 13.91,177.87 20.34,238.12 -43.4,28.99 -131.54,14.68 -67.65,249 31.25,114.59 19.31,181.49 -77.85,231.82 -105.86,54.85 -208.68,23.8 -331.61,25.6 -118.09,1.73 -181.43,-51.12 -204.11,-149.94 83.82,-45.92 202.43,12.43 221.58,-168.04 -106.59,12.43 -60.28,66.71 -165.56,58.9 -109.22,-8.09 -43.42,-60.79 -144.76,-71.1 -72.35,171.85 57.33,332.66 171.42,414.49 174.35,125.05 255.1,88.53 378.66,114.65 74.54,15.76 165.71,106.8 408.95,17.43l170.24 -78.91c101.77,-19.89 44.68,5.86 58.51,16.92 49.59,39.61 -27.14,43.81 99.46,52.39 129.41,8.77 313,-20.55 315.8,-183.52 -149.95,-38.58 -105.32,35.73 -231.37,8.4 7.29,-150.85 124.68,-15.99 243.95,-247.97 95.97,-17.53 112.46,9.73 137.88,-64.97 -149.15,-87.93 -424.02,162.77 -501.4,225.99 -65.22,53.29 -132.28,113.07 -221.58,172.72 -78.29,52.3 -197.26,126.21 -290.68,70.33 166.15,-111.33 365.19,-127.27 527.21,-452.62 46.68,-93.73 22.99,-77.81 113.34,-131.81 46.15,-27.59 108.86,-65.64 162.09,-81.65 244.56,-73.53 221.93,96.2 400.65,65.84 -6.03,-121.02 -166.1,-150.23 -279.18,-146.14 -146.18,5.28 -227.73,67.16 -315.03,122.79 25.91,-88.88 104.75,-176.24 163.8,-221.74 71.41,-55.04 193.67,-89.7 207.92,-184.67 -257.16,-39.85 -493.02,529.21 -560.84,636.76 -225.89,358.22 -673.32,423.26 -823.12,280.67 133.85,-56.1 489.82,79.17 739.25,-364.21 203.34,-361.44 -20.13,-817.7 -196.99,-723.97z"/>
    <path class="fil5" d="M4534.49 3336.22c5.33,2.86 44.84,44.07 47.81,48.72 50.29,78.78 52.78,195.17 82.62,259.88 1.63,3.54 3.61,8.86 5.49,11.99l23.94 25.52c49.75,25.62 24.28,11.63 70.43,3.14 30.94,-176 -20.03,-273.54 -16.35,-420.39 4.99,-199.42 86.21,-181.25 265.17,-193.74 158.05,-11.03 601.59,-112.32 711.73,-180.95 24.27,-181.12 -193.41,-176.77 -326.59,-126.84 -196.62,73.71 -263.86,9.68 -397.86,-56.54 168.02,-11.22 73.39,24.4 305.05,0.83 1.75,-0.18 6.6,-0.53 8.29,-0.52 1.71,0 6.6,0.8 8.32,0.98 1.92,0.2 7.07,1.8 9.06,2.14 42.52,7.23 -37.21,15.18 46.28,9.68 -52.52,-85.43 -223.05,-126.23 -347.18,-72.18 -109.04,47.47 -23.21,46.05 -198.65,55.44 -100.95,5.41 -157,45.52 -244.42,67.58 -24.02,6.06 -28.4,4.67 -49.09,9.2 -37.28,8.16 -59.9,15.72 -87.92,34.72 -143.44,97.24 -107.51,118.59 -42.7,320.91 24.01,74.98 68.25,169.06 126.57,200.43z"/>
    <path class="fil4" d="M6304.61 8938.82c-99.07,40.95 -92.25,164.82 -92.16,274.13 0.32,368.37 -46.95,507.75 230.82,506.36 351.99,-1.78 446.55,57.08 447.86,-280.66 0.39,-101.23 9.06,-274.86 -6.61,-368.01 -22.1,-131.37 -75.12,-145.72 -214.46,-147.85 -108.39,-1.65 -275.77,-21.04 -365.45,16.03zm144.26 293.04c0,259.62 -43.75,363.46 107.72,359.33 138.57,-3.79 92.5,-106.32 92.5,-340.57 0,-122.71 39.05,-198.8 -92.81,-202.06 -135.46,-3.36 -107.41,69.43 -107.41,183.3z"/>
    <path class="fil4" d="M2453.82 9713.95c83.39,10.11 479.08,13.97 554.47,0.28 89.84,-16.31 106.27,-73.47 113.23,-163.91 12.15,-157.75 4.13,-152.19 -61.62,-243.41 62.38,-95.02 73.99,-77.46 61.49,-225.18 -8.38,-99.06 -32.06,-143.15 -116.45,-157.94 -68.88,-12.07 -492.32,-8.65 -561.53,4.34 40.77,147.29 9.26,593.81 10.41,785.82zm243.86 -134.84c137.24,27.37 187.15,32.38 185.97,-103.53 -1.12,-128.79 -51.06,-118.58 -178.9,-99.57l-7.07 203.1zm3.03 -339.98l175.22 -2.35 1.44 -169.68 -171.67 -13.17 -4.99 185.2z"/>
    <path class="fil4" d="M4438.56 9716.51l253.65 0.97c-6.11,-83.69 -30.7,-265.47 7.09,-338.61 94.14,7.32 75.1,50.87 103.72,140.49 20.04,62.72 34.59,139.09 65.14,191.86l243.63 8.23c1.59,-117.82 -67.71,-207.25 -94.87,-318.73 1.53,-12.62 134.55,-79.87 71.71,-368.5 -34.5,-158.39 -246.55,-112 -483.14,-111.77 -249.32,0.3 -165.63,2.28 -164.58,292.65 0.59,164.43 -8.38,341.7 -2.35,503.41zm244.45 -475.39c118.89,11.59 173.77,30.25 177.38,-84.41 4.14,-130.92 -51.25,-113.51 -169.76,-101.65l-7.62 186.06z"/>
    <path class="fil4" d="M7749.06 9711l241.5 0.95 -2.55 -336.94c139.8,-12.39 66.75,75.47 182.21,336.63l257.86 6.62 -110.74 -316.12c52.71,-104.96 84.53,-8.16 85.53,-206.88 1.5,-300.65 -5.01,-295.51 -655.75,-269.7l1.94 785.44zm236.46 -470.52c119.43,7.74 177.98,34.47 181.53,-83.56 3.81,-126.25 -52.72,-120.63 -173.01,-101.02l-8.52 184.58z"/>
    <path class="fil4" d="M3201.85 9715.82c107.04,9.36 224.55,1.75 334.33,2.88 188.87,1.93 215.94,44.34 224.32,-133.71l-310.1 0.11 -4.24 -200.17 274.84 -7.01 2.11 -142.79 -275.25 2.95 -1.01 -171.76 295.24 -6.18c4.98,-170.95 -17.29,-143.58 -186.78,-140.6 -116.77,2.05 -232.97,-2.87 -349.49,3.28l-3.97 793z"/>
    <path class="fil4" d="M3821.72 9714.39c110.57,10.13 222.86,3.28 333.64,4.3 183.51,1.68 211.57,42.97 213.87,-137.58l-299.34 4.76 -6.86 -203.51 275.97 -3.6 2.6 -142.77 -276.32 1.27 -0.99 -174.17 295.73 -3.55c7.36,-170.47 -22.52,-141.81 -185.54,-139.98 -114.6,1.29 -235.4,-3.74 -348.86,3.54l-3.9 791.29z"/>
    <path class="fil4" d="M6982.11 9250.61c-1.35,476.25 -29.46,468.89 400.12,467.91 275.18,-0.62 294.82,-27.14 269.17,-694.18l-25.27 -97.76 -56.27 -1.37c-95.33,117.23 47.89,531.48 -46.15,634.41 -37.92,39.8 -68.29,28.5 -141.26,28.31 -269.47,-0.7 -134.92,-33.17 -162.79,-660.57l-241.92 -3.04 4.37 326.29z"/>
    <path class="fil4" d="M5562.72 8931.68l-26.34 133.42 190.26 -4.69 2.45 657.45 245.78 -0.99 -3.99 -654.72 185.13 5.84c32.41,-192.2 -48.89,-149.19 -218.32,-147.84 -112.47,0.9 -273.86,-20.9 -374.97,11.53z"/>
    <path class="fil4" d="M5574.24 5243.55c-54.09,-4.67 -109.77,-10.02 -164.09,-3 -20.23,2.61 -38.73,5.53 -60.04,15.68 -48.87,23.28 -18.02,0.44 -43.9,35.66 136.98,111.91 120.37,-5.47 108.7,233.07 -72.53,-37.31 -21.39,0.38 -71.32,-70.87 -60.66,-86.58 -82.59,-97.98 -159.59,-162.79 -75.7,-63.73 -302.15,-46.44 -366.54,-28.65 -29.21,48.29 -69.68,108.29 -24.35,173.77 66.17,-27.31 11.82,-18.83 75.05,-71.68 57.77,21.64 56.23,89.45 149.21,92.66 135.11,4.67 201.22,-100 324.37,129.21 39.74,73.97 30.89,121.11 108.03,141.61 82.11,-55.26 51.79,-192.18 189.59,-263.93 81.38,-42.37 116.3,-13.88 193.28,-5.37 134.5,14.88 76.44,-34.65 123.7,-104.92 97.8,11.82 35.26,42.07 127.46,65.49 38.3,-266.49 -405.93,-299.45 -573.21,86.43 -33.31,-36.02 -39.14,-96.58 -53.73,-138.98 4.11,-3.34 10.9,-12.87 13.08,-9.04 2.13,3.75 9.95,-6.78 12.86,-8.78 11.23,-7.7 28.51,-17.74 36.38,-24.49 51.1,-43.86 26.95,-8.93 55.06,-81.08z"/>
    <path class="fil4" d="M2936.36 5219.73c142.24,114 156.54,55.69 227.73,109.37 -120.2,49.5 -401.26,183 -316.79,350.6 109.52,-0.12 132.48,-101.69 188.79,-174.73 73.67,-95.55 147.54,-105.47 216.65,-175.55 -44.41,-42.04 -34.45,-47.1 -91.88,-74.47 -75.34,-35.92 -52.91,-2.13 -94.74,-76.17 -95.19,-168.44 -139.21,-74.52 -129.76,40.95z"/>
    <path class="fil4" d="M7483.86 5167.3c-56.36,237.85 -52.66,320.18 124.41,309.71 -7.19,-92.4 6.07,-19.46 -50.67,-91.31l37.32 -146.87 93.79 -33.48c3.24,-1.45 9.48,-4.17 13.58,-7.27 -28.43,-125.77 -146.53,-75.76 -218.43,-30.78z"/>
    <path class="fil4" d="M3188.6 5179.33c28.26,51.8 3.8,15.46 48.44,39.41 51.63,27.69 13.27,-26.18 57.58,31.73 12.22,15.99 33.18,110.68 37.28,135.23 -50.53,74.86 -41.33,2.54 -58.39,92.29 98.88,6.6 118.68,-11.79 168.78,-52l-25.71 -244.29c-74.24,-58.75 -172.08,-94.59 -227.98,-2.37z"/>
    <path class="fil4" d="M7670.04 5319.36c36.39,76.74 -8.14,15.09 105.3,105.23 126.78,100.73 188.61,324.7 279.61,239.68 100.59,-93.98 -235.1,-330.29 -384.91,-344.91z"/>
    <path class="fil4" d="M7230.12 5313.58c56.98,45.33 80.91,79.27 173.89,37.17 24.94,-54.07 24.34,-62.36 15.17,-137.36 -110.83,-100.17 -185,-54.69 -189.06,100.19z"/>
    <path class="fil4" d="M7692.22 5298.61c150.2,0.83 338.06,-40.59 243.67,-202.16 -129.09,-12.67 -59.91,71.25 -171.42,144.25l-72.25 57.91z"/>
   </g>
   <path class="fil6" d="M3360.43 11818.8l92.55 0c-28.87,59.09 -73.3,105.29 -133.27,138.76 -68.42,38.35 -152.08,57.6 -250.71,57.6 -95.51,0 -177.85,-16.14 -247.3,-48.42 -69.45,-32.43 -121.13,-80.11 -154.89,-143.05 -33.91,-63.08 -50.8,-131.65 -50.8,-205.98 0,-81.45 19.26,-157.27 57.76,-227.61 38.35,-70.19 91.07,-122.91 157.85,-158.15 66.79,-35.24 143.2,-52.87 229.09,-52.87 72.86,0 137.72,14.22 194.28,42.5 56.72,28.44 100.11,68.71 130.02,120.99 29.91,52.27 44.87,109.28 44.87,171.18 0,73.9 -22.66,140.53 -68.12,200.21 -56.86,75.23 -129.87,112.84 -218.86,112.84 -23.99,0 -42.06,-4.15 -54.2,-12.44 -12.15,-8.44 -20.14,-20.58 -24.29,-36.72 -34.06,32.72 -73.45,49.16 -117.87,49.16 -47.98,0 -87.82,-16.59 -119.51,-49.61 -31.69,-33.17 -47.53,-77.15 -47.53,-132.09 0,-67.97 19.1,-129.87 57.16,-185.99 46.35,-68.27 105.58,-102.33 177.85,-102.33 51.38,0 89.44,19.7 113.87,59.09l10.81 -48.42 114.47 0 -65.6 310.67c-4,19.7 -6.07,32.43 -6.07,38.21 0,7.11 1.63,12.59 5.03,16.14 3.26,3.7 7.26,5.48 11.85,5.48 13.92,0 31.84,-8.44 53.9,-25.17 29.47,-21.92 53.31,-51.54 71.53,-88.41 18.21,-37.02 27.39,-75.37 27.39,-115.06 0,-71.08 -25.76,-130.61 -77.15,-178.44 -51.53,-47.83 -123.35,-71.82 -215.61,-71.82 -78.33,0 -144.82,15.99 -199.32,47.98 -54.49,32.13 -95.51,77.15 -123.06,135.35 -27.69,58.04 -41.46,118.61 -41.46,181.55 0,61.15 15.4,116.69 46.2,166.89 30.8,50.2 74.05,86.77 129.72,109.87 55.54,22.96 119.21,34.51 191.03,34.51 69.01,0 128.54,-9.78 178.15,-29.18 49.75,-19.39 89.88,-48.42 120.24,-87.22zm-468.09 -178.29c0,36.73 7.4,63.83 22.21,81.15 14.96,17.33 33.32,26.06 55.24,26.06 16.43,0 31.83,-3.99 46.2,-12.14 10.96,-5.77 21.77,-14.96 32.43,-27.39 15.4,-17.63 28.58,-43.25 39.68,-77.16 11.11,-33.76 16.59,-65.3 16.59,-94.62 0,-32.58 -7.55,-57.75 -22.66,-75.23 -15.25,-17.47 -34.35,-26.21 -57.31,-26.21 -24.87,0 -47.83,9.63 -68.85,28.88 -21.03,19.25 -36.88,46.64 -47.54,82.18 -10.66,35.54 -15.99,67.09 -15.99,94.48zm893.98 40.58l121.73 20.43c-15.55,44.57 -40.28,78.49 -73.9,101.88 -33.76,23.25 -75.96,34.95 -126.46,34.95 -80.11,0 -139.49,-26.21 -177.85,-78.63 -30.36,-42.06 -45.61,-95.07 -45.61,-159.19 0,-76.41 19.99,-136.39 59.83,-179.63 39.83,-43.38 90.33,-65 151.34,-65 68.41,0 122.46,22.65 162.15,67.97 39.54,45.31 58.49,114.76 56.72,208.35l-304.76 0c0.89,36.13 10.66,64.27 29.47,84.41 18.66,20.14 42.05,30.21 69.89,30.21 19.11,0 35.1,-5.19 47.98,-15.55 13.03,-10.37 22.81,-27.1 29.47,-50.2zm7.11 -123.51c-0.89,-35.39 -9.92,-62.34 -27.25,-80.7 -17.32,-18.51 -38.35,-27.69 -63.23,-27.69 -26.51,0 -48.42,9.77 -65.75,29.17 -17.32,19.4 -25.76,45.91 -25.47,79.22l181.7 0zm176.96 139.5l122.61 -18.66c5.18,23.55 15.7,41.46 31.69,53.61 15.84,12.29 38.2,18.36 66.78,18.36 31.55,0 55.24,-5.78 71.23,-17.33 10.66,-8.14 15.99,-19.1 15.99,-32.72 0,-9.18 -2.96,-16.88 -8.73,-22.96 -6.07,-5.77 -19.7,-11.25 -40.72,-16.14 -98.48,-21.77 -160.82,-41.61 -187.18,-59.53 -36.58,-25.02 -54.79,-59.67 -54.79,-103.95 0,-40.13 15.84,-73.75 47.38,-100.99 31.55,-27.25 80.41,-40.87 146.61,-40.87 63.08,0 110.02,10.36 140.68,30.94 30.65,20.74 51.82,51.24 63.37,91.67l-114.61 21.32c-4.89,-18.06 -14.37,-31.98 -28.14,-41.61 -13.77,-9.62 -33.46,-14.36 -59.08,-14.36 -32.28,0 -55.39,4.44 -69.45,13.47 -9.33,6.37 -13.92,14.66 -13.92,24.73 0,8.74 3.99,16.14 12.14,22.21 11.11,8.15 49.16,19.55 114.32,34.36 65.16,14.81 110.62,32.87 136.38,54.35 25.62,21.62 38.36,51.97 38.36,90.77 0,42.21 -17.62,78.63 -53.02,108.99 -35.24,30.36 -87.51,45.61 -156.82,45.61 -62.78,0 -112.54,-12.73 -149.26,-38.06 -36.58,-25.32 -60.57,-59.67 -71.82,-103.21zm748.26 -331.41l0 96.85 -83.52 0 0 186.73c0,37.91 0.74,59.97 2.37,66.19 1.63,6.22 5.18,11.4 10.95,15.55 5.63,4 12.44,6.07 20.59,6.07 11.4,0 27.69,-3.85 49.16,-11.7l10.22 94.78c-28.28,12.14 -60.27,18.21 -96.11,18.21 -21.91,0 -41.61,-3.7 -59.23,-11.11 -17.62,-7.4 -30.5,-17.03 -38.65,-28.72 -8.29,-11.85 -13.92,-27.7 -17.18,-47.83 -2.51,-14.22 -3.85,-42.95 -3.85,-86.34l0 -201.83 -55.97 0 0 -96.85 55.97 0 0 -91.52 121.73 -71.97 0 163.49 83.52 0zm85.29 -62.2l0 -112.84 121.73 0 0 112.84 -121.73 0zm0 523.33l0 -461.13 121.73 0 0 461.13 -121.73 0zm246.85 0l0 -636.17 121.73 0 0 636.17 -121.73 0zm218.42 -236.19c0,-40.58 9.92,-79.82 29.91,-117.73 19.99,-38.06 48.28,-66.93 84.85,-86.92 36.58,-20 77.3,-30.06 122.47,-30.06 69.75,0 126.76,22.65 171.33,67.97 44.57,45.46 66.79,102.62 66.79,171.92 0,69.9 -22.51,127.8 -67.38,173.7 -45.02,45.91 -101.59,68.86 -169.85,68.86 -42.21,0 -82.48,-9.62 -120.84,-28.73 -38.2,-19.1 -67.38,-47.09 -87.37,-84.11 -19.99,-36.87 -29.91,-81.89 -29.91,-134.9zm125.28 6.51c0,45.76 10.81,80.86 32.43,105.14 21.77,24.44 48.42,36.58 80.26,36.58 31.69,0 58.34,-12.14 79.82,-36.58 21.47,-24.28 32.28,-59.68 32.28,-106.03 0,-45.16 -10.81,-79.96 -32.28,-104.25 -21.48,-24.43 -48.13,-36.57 -79.82,-36.57 -31.84,0 -58.49,12.14 -80.26,36.57 -21.62,24.29 -32.43,59.39 -32.43,105.14zm440.55 229.68l0 -636.17 121.73 0 0 229.53c37.61,-42.79 82.03,-64.26 133.57,-64.26 56.12,0 102.47,20.28 139.19,61.01 36.73,40.72 55.09,99.21 55.09,175.47 0,78.78 -18.66,139.5 -56.12,182.15 -37.47,42.5 -83.08,63.82 -136.53,63.82 -26.36,0 -52.28,-6.81 -77.9,-20.29 -25.61,-13.62 -47.68,-33.17 -66.19,-58.93l0 67.67 -112.84 0zm119.95 -239.45c0,47.83 7.55,83.37 22.66,106.18 21.17,32.57 49.16,48.86 84.25,48.86 26.96,0 49.91,-11.55 69.01,-34.65 18.96,-23.1 28.43,-59.53 28.43,-109.14 0,-52.86 -9.62,-90.92 -28.72,-114.32 -19.11,-23.39 -43.54,-35.09 -73.45,-35.09 -29.32,0 -53.61,11.4 -73.01,34.2 -19.4,22.81 -29.17,57.46 -29.17,103.96zm694.66 93.74l121.73 20.43c-15.55,44.57 -40.28,78.49 -73.9,101.88 -33.76,23.25 -75.96,34.95 -126.46,34.95 -80.11,0 -139.49,-26.21 -177.85,-78.63 -30.36,-42.06 -45.61,-95.07 -45.61,-159.19 0,-76.41 19.99,-136.39 59.83,-179.63 39.83,-43.38 90.33,-65 151.34,-65 68.41,0 122.46,22.65 162.15,67.97 39.54,45.31 58.49,114.76 56.72,208.35l-304.76 0c0.89,36.13 10.66,64.27 29.47,84.41 18.66,20.14 42.05,30.21 69.89,30.21 19.11,0 35.1,-5.19 47.98,-15.55 13.03,-10.37 22.81,-27.1 29.47,-50.2zm7.11 -123.51c-0.89,-35.39 -9.92,-62.34 -27.25,-80.7 -17.32,-18.51 -38.35,-27.69 -63.23,-27.69 -26.51,0 -48.42,9.77 -65.75,29.17 -17.32,19.4 -25.76,45.91 -25.47,79.22l181.7 0zm487.04 123.51l121.73 20.43c-15.55,44.57 -40.28,78.49 -73.9,101.88 -33.76,23.25 -75.96,34.95 -126.46,34.95 -80.11,0 -139.49,-26.21 -177.85,-78.63 -30.36,-42.06 -45.61,-95.07 -45.61,-159.19 0,-76.41 19.99,-136.39 59.83,-179.63 39.83,-43.38 90.33,-65 151.34,-65 68.41,0 122.46,22.65 162.15,67.97 39.54,45.31 58.49,114.76 56.72,208.35l-304.76 0c0.89,36.13 10.66,64.27 29.47,84.41 18.66,20.14 42.05,30.21 69.89,30.21 19.11,0 35.1,-5.19 47.98,-15.55 13.03,-10.37 22.81,-27.1 29.47,-50.2zm7.11 -123.51c-0.89,-35.39 -9.92,-62.34 -27.25,-80.7 -17.32,-18.51 -38.35,-27.69 -63.23,-27.69 -26.51,0 -48.42,9.77 -65.75,29.17 -17.32,19.4 -25.76,45.91 -25.47,79.22l181.7 0zm336.89 269.22l-121.73 0 0 -461.13 112.84 0 0 65.45c19.4,-30.95 36.87,-51.24 52.42,-60.86 15.55,-9.63 33.17,-14.36 52.87,-14.36 27.84,0 54.64,7.7 80.41,22.95l-37.76 106.32c-20.59,-13.33 -39.69,-19.99 -57.31,-19.99 -17.18,0 -31.69,4.74 -43.54,14.07 -11.85,9.48 -21.17,26.36 -27.99,50.94 -6.81,24.58 -10.21,76.11 -10.21,154.45l0 142.16zm439.95 -461.13l0 96.85 -83.52 0 0 186.73c0,37.91 0.74,59.97 2.37,66.19 1.63,6.22 5.18,11.4 10.95,15.55 5.63,4 12.44,6.07 20.59,6.07 11.4,0 27.69,-3.85 49.16,-11.7l10.22 94.78c-28.28,12.14 -60.27,18.21 -96.11,18.21 -21.91,0 -41.61,-3.7 -59.23,-11.11 -17.62,-7.4 -30.5,-17.03 -38.65,-28.72 -8.29,-11.85 -13.92,-27.7 -17.18,-47.83 -2.51,-14.22 -3.85,-42.95 -3.85,-86.34l0 -201.83 -55.97 0 0 -96.85 55.97 0 0 -91.52 121.73 -71.97 0 163.49 83.52 0zm56.86 224.94c0,-40.58 9.92,-79.82 29.91,-117.73 19.99,-38.06 48.28,-66.93 84.85,-86.92 36.58,-20 77.3,-30.06 122.47,-30.06 69.75,0 126.76,22.65 171.33,67.97 44.57,45.46 66.79,102.62 66.79,171.92 0,69.9 -22.51,127.8 -67.38,173.7 -45.02,45.91 -101.59,68.86 -169.85,68.86 -42.21,0 -82.48,-9.62 -120.84,-28.73 -38.2,-19.1 -67.38,-47.09 -87.37,-84.11 -19.99,-36.87 -29.91,-81.89 -29.91,-134.9zm125.28 6.51c0,45.76 10.81,80.86 32.43,105.14 21.77,24.44 48.42,36.58 80.26,36.58 31.69,0 58.34,-12.14 79.82,-36.58 21.47,-24.28 32.28,-59.68 32.28,-106.03 0,-45.16 -10.81,-79.96 -32.28,-104.25 -21.48,-24.43 -48.13,-36.57 -79.82,-36.57 -31.84,0 -58.49,12.14 -80.26,36.57 -21.62,24.29 -32.43,59.39 -32.43,105.14zm750.64 229.68l0 -69.01c-16.88,24.59 -38.95,44.13 -66.34,58.79 -27.4,14.51 -56.28,21.77 -86.63,21.77 -31.1,0 -58.94,-6.81 -83.52,-20.43 -24.73,-13.63 -42.5,-32.88 -53.46,-57.46 -11.11,-24.73 -16.59,-58.79 -16.59,-102.33l0 -292.46 121.73 0 0 212.35c0,65.01 2.22,104.69 6.81,119.36 4.44,14.66 12.59,26.35 24.58,34.79 11.85,8.59 26.95,12.89 45.32,12.89 20.88,0 39.53,-5.78 56.12,-17.18 16.59,-11.4 27.84,-25.62 33.91,-42.65 6.07,-17.03 9.18,-58.49 9.18,-124.68l0 -194.88 121.73 0 0 461.13 -112.84 0zm354.37 0l-121.73 0 0 -461.13 112.84 0 0 65.45c19.4,-30.95 36.87,-51.24 52.42,-60.86 15.55,-9.63 33.17,-14.36 52.87,-14.36 27.84,0 54.64,7.7 80.41,22.95l-37.76 106.32c-20.59,-13.33 -39.69,-19.99 -57.31,-19.99 -17.18,0 -31.69,4.74 -43.54,14.07 -11.85,9.48 -21.17,26.36 -27.99,50.94 -6.81,24.58 -10.21,76.11 -10.21,154.45l0 142.16z"/>
  </g>
 </g>
</svg>
