<?xml version="1.0" encoding="utf-8"?>
<!-- Generator: Adobe Illustrator 26.1.0, SVG Export Plug-In . SVG Version: 6.00 Build 0)  -->
<svg version="1.1" id="Camada_1" xmlns="http://www.w3.org/2000/svg" xmlns:xlink="http://www.w3.org/1999/xlink" x="0px" y="0px"
	 viewBox="0 0 595.28 841.89" style="enable-background:new 0 0 595.28 841.89;" xml:space="preserve">
<style type="text/css">
	.st0{fill:#FFFEFE;}
	.st1{fill:#DB2A20;}
	.st2{fill:#F8C61E;}
	.st3{fill:#FCE9DD;}
	.st4{fill:#DD382D;}
	.st5{fill:#FFFCFC;}
</style>
<g>
	<g>
		<path class="st0" d="M298.11,532.26c-87.25,0-174.51-0.01-261.76,0.05c-1.98,0-2.43-0.44-2.42-2.42
			c0.06-67.25,0.06-134.5,0-201.76c0-1.98,0.45-2.42,2.42-2.42c174.51,0.05,349.02,0.05,523.53,0c1.98,0,2.43,0.44,2.42,2.42
			c-0.06,67.25-0.06,134.5,0,201.76c0,1.98-0.45,2.42-2.42,2.42C472.62,532.25,385.36,532.26,298.11,532.26z M471.46,440.45
			c0,0-0.13,0.13-0.13,0.13c-0.12,0.12-0.24,0.24-0.36,0.37c-0.17,0.07-0.35,0.13-0.52,0.2c-0.35,0.12-0.71,0.25-1.06,0.37
			c-0.75,0.21-1.63,0.24-2.21,0.67c-4.01,2.91-8.89,3.04-13.42,4.28c-0.45-0.05-0.9-0.08-1.25,0.3c-0.66,0.07-1.31,0.15-1.97,0.22
			c-0.6-0.04-1.22-0.18-1.73,0.31c-0.62,0.07-1.24,0.15-1.86,0.22c-0.71,0-1.42,0-2.13,0c-0.23-0.01-0.47-0.02-0.7-0.03
			c-0.19,0.09-0.38,0.18-0.56,0.27c-0.71,0.31-1.44,0.2-2.17,0.09c-0.17-0.23-0.34-0.23-0.5,0.01c-2.54,0.76-5.01,0.43-7.43-0.52
			c-0.51-0.55-1.16-0.37-1.78-0.34c-1.07,0.09-1.78-0.53-2.44-1.25c-0.71-0.64-1.56-0.32-2.36-0.34c-1.06,0.65-1.77-0.03-2.56-0.61
			c-6.45-4.64-9.64-10.97-9.86-18.85c-0.09-0.37-0.18-0.73-0.27-1.1c-0.03-0.37-0.06-0.75-0.09-1.12c0.76-1.06,0.28-2.25,0.35-3.39
			c-0.25-1.47,0.3-2.65,1.06-3.91c6.36-10.57,15.83-17.88,25.72-24.81c5.93-4.15,12.42-7.11,19.22-9.48c0.33-0.12,0.67-0.24,1-0.36
			c0.21-0.05,0.42-0.1,0.63-0.15c0.32-0.14,0.64-0.27,0.97-0.41c0.31-0.06,0.62-0.13,0.93-0.19c0.93,0.01,1.87,0.03,2.8,0.04
			c0.88,0.05,1.76,0.11,2.64,0.16c0.29,0.14,0.59,0.28,0.88,0.42c0,0,0.13,0.14,0.13,0.14c0.12,0.12,0.25,0.25,0.37,0.37l0.24-0.06
			c1.4,1.4,0.05,3.61,1.46,5.52c0.25-2.62,0.03-4.65-0.99-6.53c-0.1-1.12-0.8-1.92-1.48-2.72c-3.16-3.68-9.61-4.95-15.29-2.95
			c-18.89,6.63-34.85,17.42-47.22,33.29c-0.35,0.45-0.57,1.14-1.57,0.95c0.63-2.71,3.11-4.83,2.66-8.22
			c-1.62,2.83-3.08,5.36-4.03,8.18c-1.18,3.54-3.15,6.61-6.09,8.95c-1.35,1.08-2.28,2.44-3.04,3.91
			c-2.83,5.48-5.58,11.01-8.36,16.52c-0.35,0.7-0.65,1.43-0.96,2.15c-0.22,0.5,0.44,0.45,0.5,0.79c0.18-0.13,0.44-0.21,0.53-0.38
			c0.92-1.69,1.83-3.38,2.71-5.09c1.92-3.71,3.83-7.42,5.75-11.13c0.29,0,0.58-0.01,0.86-0.01c-0.08,1.88,2.2,2.27,2.38,4.35
			c0.38,4.39,0.88,8.9,3.27,12.84c3.8,6.27,7.79,11.84,15.91,13.63c5.88,1.29,11.47,2.55,17.54,1.83
			c8.46-1.01,16.88-1.96,24.66-5.74c2.18-1.06,4.82-1.19,6.52-3.22l-0.02,0.03c0.12-0.1,0.25-0.14,0.4-0.11
			c0.64-0.02,0.97-0.42,1.2-0.96c1.14-0.06,1.99-0.79,2.94-1.28c2.45,1.15,4.06,3.27,5.74,5.23c2.89,3.34,11,4.36,14.48,1.6
			c0.25-0.2,0.39-0.55,0.57-0.83c0-0.33,0.01-0.65,0.01-0.98c7.4-3.48,8.83-10.72,11.07-17.45c0.78-1.37,1.2-2.88,1.77-4.33
			c1.34-3.39,2.18-7.02,4.54-9.95c-0.27,2.8,1.11,5.51,0.49,8.3c-0.55,2.47-0.38,4.91,0.37,7.24c2.27,7.06,3.38,14.37,8.61,20.5
			c4.23,4.96,9.21,6.5,14.98,7.21c1.83,0.23,3.62-0.23,4.62-2.11l-0.03,0.03c0.58,0.08,1.13,0.1,1.46-0.51
			c1.29,0.06,0.75-0.79,0.7-1.4c1.89-1.52,4.64-2.15,5.23-5.02c0.88-1.61,0.66-3.3-0.04-4.82c-2.97-6.37-6.21-12.64-5.99-19.97
			c-0.88,7.31,2.2,13.63,4.88,20.06c0.35,0.84,1.5,1.74,0.06,2.66c-2.18,0.79-4.48,0.33-6.52-0.07c-4.5-0.89-6.08-5.27-8.71-8.37
			c-0.09-0.15-0.18-0.29-0.28-0.44c-0.27-1.04-0.55-2.08-0.82-3.12c-0.12-0.37-0.24-0.75-0.35-1.12c-0.63-1.32-1.03-2.71-1.22-4.17
			c-0.09-0.18-0.17-0.36-0.26-0.55c-1.05-3.28-1.87-6.59-1.17-10.08c0.82-1.43,0.25-2.97,0.36-4.46c-1.47-2.73,0.45-5.13,0.76-7.68
			c0.71-1.8,0.21-3.66,0.28-5.49c0.06-0.45,0.13-0.89,0.19-1.34c0.4-0.34,0.38-0.79,0.33-1.25c0.07-1.16,0.13-2.33,0.2-3.49
			c0.37-0.31,0.39-0.72,0.34-1.16c0.06-0.49,0.13-0.99,0.19-1.48c0.55-0.69,0.56-1.38-0.01-2.06c-0.89-1.93-1.8-3.84-4.38-3.85
			c-0.69-0.55-1.38-0.55-2.06,0.01c-1.03,0.58-2.76,0.17-3.16,1.48c-1.09,3.57-3.52,6.57-4.23,10.28c-0.18,0.51-0.36,1.02-0.54,1.53
			c-0.01,0.15-0.01,0.31-0.01,0.46c-0.53,0.89-1.28,1.72-1.56,2.69c-1.58,5.46-4.19,10.49-6.2,15.77c-1.19,3.14-2.66,6.2-3.24,9.55
			c-0.78,1.92-1.52,3.85-2.35,5.75c-0.86,1.96-1.68,3.99-3.98,4.76c-1.7,0.02-3.41,0.04-5.11,0.06c-2.04-2.06-4.08-4.12-6.13-6.18
			c0.06-0.45,0.07-0.89-0.31-1.23c0-0.36-0.01-0.73-0.01-1.09c0.11-0.21,0.23-0.42,0.34-0.62c0.42-1.73,0.84-3.45,1.26-5.18
			c0.39-0.37,0.35-0.84,0.31-1.31c0.27-3.03,1.45-5.82,2.31-8.7c0.12-0.37,0.24-0.74,0.36-1.11c1.02-4.63,2.43-9.14,3.88-13.65
			c0.36-0.32,0.37-0.74,0.32-1.17c0.25-1.36,0.5-2.73,0.76-4.09c0.1-0.23,0.19-0.46,0.29-0.7c0.08-0.47,0.16-0.95,0.24-1.42
			c0.1-0.38,0.2-0.77,0.3-1.15c0.91-5.32,2.9-10.27,5.2-15.11c0.71-1.5,1.88-2.45,3.54-2.74c1.53,0.01,3.06,0.02,4.59,0.03
			c0.24-0.01,0.48-0.02,0.72-0.04c0.25-0.1,0.5-0.21,0.75-0.31c2.34,0.32,3.3,1.93,3.74,4.01c0.13,0.2,0.26,0.4,0.39,0.6
			c1.2-0.18,1.9-1.15,2.78-1.81c2.36-1.76,4.49-3.92,7.7-4.06c0.23-0.1,0.46-0.2,0.69-0.3c1.34-0.25,2.67-0.5,4.01-0.75
			c0.46,0.05,0.92,0.08,1.27-0.31c0.59-0.09,1.26-0.41,1.76-0.24c5.28,1.85,11.09,2.96,13.58,9.01c0.05,0.47-0.18,1.03,0.38,1.34
			c0.09,0.05,0.41-0.1,0.4-0.11c-0.07-0.4-0.18-0.79-0.27-1.18c0.32-2.59-1.63-4.14-2.83-6c-4.14-6.43-11-8.59-17.78-9.11
			c-4.99-0.38-10.41,1.17-14.96,4.11c-0.76,0.49-1.15,0.32-1.82-0.09c-4.34-2.66-8.91-1.51-13.38-0.55
			c-3.49,0.75-5.49,3.52-7.29,6.37c-1.58-0.14-1.92,0.94-2.12,2.16c-1.4,0.85-1.63,2.38-2.18,3.72c-2.59,6.41-4.19,13.09-5.75,19.81
			c-1.65,7.12-3.83,14.13-5.85,21.17c-0.33,1.14-0.55,1.88,1.06,1.55c0.4,1.06-0.99,0.34-1,1c-11.66,2.9-23.36,3.68-35.63,0.7
			c4.62-2.61,8.27-5.9,12.64-8.13c1.09-0.55,2.18-1.09,3.01-2.05c3.33-3.84,6.98-7.38,10.75-10.77c3.42-3.07,5.51-6.95,7.3-11.02
			c0.68-1.54,1.83-3.06,1.38-4.95c0.71-0.68,1.37-1.39,0.98-2.48c-0.05-0.15-0.44-0.33-0.59-0.28c-1.27,0.44-0.81,1.56-0.91,2.45
			c-0.01,0.09,0,0.17,0,0.26c-1.28,3.73-3.04,7.27-5.8,10.05c-2.46,2.47-4.99,4.91-7.49,7.36c-1.73,1.7-3.24,3.8-5.27,4.99
			c-3.09,1.82-5.98,3.91-8.97,5.85c-3.34,2.17-6.88,4.02-10.79,5.03c-0.45-0.06-0.89-0.07-1.23,0.3c-1.61,0.06-2.97,0.46-3.36,2.29
			c-0.38,0.3-0.43,0.62-0.07,0.97c0.64,1.48,1.7,2.49,3.12,3.31c3.06,1.76,6.46,2.39,9.81,3.23c0.37,0.39,0.84,0.35,1.31,0.31
			c0.97,0.06,1.93,0.12,2.9,0.19c0.37,0.12,0.74,0.25,1.11,0.37c2.02,0.92,4.22,0.25,6.29,0.7c1.08,0.73,2.29,0.25,3.43,0.34
			c1.39,0,2.78,0,4.17,0c0.97-0.07,2.01,0.36,2.9-0.35c1.37-0.06,2.75-0.12,4.12-0.18c0.59,0.04,1.19,0.16,1.68-0.32
			c0.52-0.06,1.04-0.12,1.56-0.19c0.36-0.11,0.72-0.22,1.08-0.34c0.82-0.08,1.64-0.16,2.47-0.23c0.46,0.06,0.9,0.07,1.24-0.33
			c0.34-0.05,0.67-0.11,1.01-0.16c0.61,0.06,1.28-0.06,1.68,0.59c0,0,0.01-0.01,0.01-0.01c-0.19,0.14-0.37,0.28-0.56,0.42
			c-1.79,1.38-3.75,2.45-5.87,3.24C471.78,440.19,471.62,440.32,471.46,440.45z M261.94,457.44c1.08,0.17,1.59-0.4,1.89-1.25
			c-0.75,0.27-1.55,0.47-1.85,1.3c-0.44-0.01-0.88,0.01-1.1,0.49c-0.54,0.05-1.08,0.11-1.62,0.16c0.02-0.21,0.04-0.42,0.05-0.63
			c1.62-0.85,3.19-1.84,4.88-2.51c3.59-1.43,5.67-4.53,5.41-8.97c-0.52,1.97-1.63,2.65-3.07,2.97c-1.64,0.37-2.71,2.64-4.69,1.7
			c-1.74-0.83-1.92-2.96-3-4.39c-1.56-2.08-2.32-4.92-1.89-7.1c0.56-2.88,1.03-5.81,1.63-8.7c2.27-10.88,5.04-21.65,8.31-32.27
			c1.75-5.67,3.52-11.35,7.25-16.18c1.44-1.86,3.35-2.73,5.26-1.88c1.8,0.8,3.55,2.29,3.27,4.86c-0.13,1.18-0.02,2.38-0.02,3.74
			c0.47-0.2,0.79-0.3,1.08-0.46c8.41-4.39,16.5-3.65,24.3,1.52c2.15,1.42,3.31,3.58,4.1,5.94c0.56,1.69-2.67,6.64-4.43,6.81
			c-0.61,0.06-1.19-0.07-1.71-0.51c-4.43-3.71-12.12-4.47-17.19-2.05c-5.23,2.5-8.27,6.95-10.89,11.72
			c-1.47,2.68-2.97,5.45-2.97,8.72c2.06-4.33,3.99-8.72,7.62-12.03c0.36,0,0.71,0,1.07,0c0.51,0.93,1.21,0.26,1.83,0.21
			c2.32-0.19,4.9,0,6.5,1.36c3.56,3.03,7.13,3.3,11.17,1.56c0.14,2.69-1.32,4.96-2.08,7.39c-2.01,6.5-3.05,13.26-5.33,19.69
			c-1.88,5.3-1.32,9.94,3.58,13.5c1.12,0.81,2.1,1.86,2.99,2.92c2.78,3.33,10.29,4.62,13.97,2.3c0.48-0.3,1.15-0.54,1.07-1.33
			c-1.4-0.09-2.78-0.17-4.17-0.26c1.45-0.98,3.27,0.26,4.7-0.8c4.13-2.47,7.44-5.54,7.85-10.73c1.26-1.86,1.56-4.24,3.23-5.87
			c1.61,3.63,3.75,6.9,6.7,9.6c0.82,0.75,1.59,1.67,2.89,1.59c-0.78,1.89-2.75,2.1-4.25,2.83c-28.74,14.04-59.55,19.33-91.13,21.26
			c-18.12,1.11-36.2,0.48-54.23-1.53c-15.73-1.76-31.21-4.68-46.38-9.26c-3.2-0.97-6.3-2.41-9.69-2.72
			c5.66,3.37,11.76,5.75,17.75,8.37c0,0.23-0.01,0.45-0.01,0.68c-7.28-2.06-14.54-4.17-21.78-6.39c8.7,5.09,17.93,8.88,27.46,11.9
			c21.69,6.88,43.97,10.41,66.67,11.83c20.43,1.28,40.77,0.63,61.04-1.85c16.83-2.06,33.39-5.54,49.44-11.11
			c7.35-2.55,14.68-5.21,21.38-9.27c-0.16-0.34-0.32-0.68-0.48-1.01c0.38-0.19,0.76-0.38,1.14-0.57c1.83,1.55,3.26-0.74,4.96-0.52
			c0.26,3.22,0.89,6.37,1.69,9.5c0.78,3.05,2.48,5.43,5.5,6.07c3.06,0.64,6.07-0.12,8.25-2.75c-0.15-0.24-0.3-0.48-0.45-0.72
			c4.2-1.98,6.86-6.37,5.98-9.94c-1.1,0.41-0.74,1.49-0.99,2.24c-0.34,1.01-1.23,0.91-1.93,1.1c-0.84,0.23-0.9-0.55-1.11-1.12
			c-1.37-3.81-1.93-7.9-1.88-11.77c0.1-7.36,0.66-14.76,2.69-21.97c2.94-10.44,5.02-21.16,10.5-30.72c0.25-0.44,0.39-0.84-0.04-1.11
			c-0.21-0.13-0.74-0.03-0.93,0.17c-0.98,1-2.05,2.02-2.29,3.46c-0.28,1.66-1.43,2.77-2.31,4.02c-2.29,3.23-4.95,6.35-6.05,10.16
			c-1.04,3.64-2.85,6.7-5.03,9.66c-0.42,0.56-0.94,1.11-1.14,1.76c-1.54,4.85-5.48,7.69-9.32,10.33c-2.45,1.68-5.5,3.46-8.79,1.81
			c-5.41-2.71-10.18-9.05-9.87-15.2c0.35-6.98,0.15-14.05,1.73-20.95c0.25-1.1,0.54-2.3-0.05-3.6
			c-4.77,6.19-11.06,18.84-15.06,30.13c-0.32,0.79-0.68,1.57-0.94,2.38c-1,3.08-3.3,5.71-3.24,9.16c-0.46,0.63-0.91,1.28-1.39,1.9
			c-1.54,2.03-6.31,2.81-7.72,1.16c-1.64-1.91-3.49-3.59-5.35-5.27c-0.72-0.65-0.87-1.46-0.6-2.35c0.74-2.46,1.74-4.86,2.21-7.37
			c2.38-12.65,6.6-24.64,12.59-36.02c2.08-3.94,3.54-8.22,6.38-11.74c1.67-2.07,4.96-2.82,7.24-1.48c1.27,0.75,2.08,0.46,3.04-0.34
			c1.01-0.84,2.11-1.58,3.1-2.45c4.05-3.55,8.37-4.25,13.29-1.73c3.65,1.87,7.85,8.59,7.19,12.58c-0.56,3.35-1.18,6.71-2.75,9.82
			c-2.33,4.6-4.36,9.39-5.28,14.44c-0.39,2.12-1.52,4.17-1.35,7c4.98-7.03,9.47-13.72,14.33-20.12c5.7-7.5,11.43-14.86,20.49-19.07
			c4.67-2.17,13.23-0.3,15.21,4.4c0.8,1.89,1.94,3.64,3.17,5.89c0-0.94,0.14-1.43-0.02-1.77c-1.02-2.13-2.14-4.21-3.17-6.33
			c-4.37-9.05-14.74-11.68-23.56-7.98c-4.66,1.96-8.31,5.17-11.97,8.41c-1.12,0.99-1.8,1.05-3.12,0.36
			c-2.65-1.36-3.8-3.86-5.08-6.18c-4.94-8.98-18.05-12.66-26.6-4.88c-0.96,0.88-1.98,1.07-3.31,1.12c-3.01,0.11-6.4-0.59-8.79,1.79
			c-1.66,1.66-3.07,1.4-4.93,0.78c-13.07-4.36-26.37-7.83-39.89-10.49c-15.8-3.11-31.72-5.09-47.84-5.44
			c-16.58-0.36-32.98,0.73-49.05,5.26c-5.49,1.55-10.62,3.98-15.89,6.06c-0.19-1.6-0.97-2.1-2.69-2.1
			c-21.09,0.08-42.19,0.04-63.28,0.07c-0.91,0-2.33-0.57-2.33,1.21c0,1.78,1.42,1.21,2.33,1.21c14.33,0.03,28.65,0.09,42.98-0.01
			c7.66-0.05,15.34,0.47,22.99-0.38c-0.08,0.15-0.12,0.36-0.24,0.43c-5.63,3.19-10.7,7.05-14.4,12.45
			c-0.57,0.84-1.27,0.78-2.05,0.78c-16.88,0-33.77-0.02-50.65,0.03c-1.53,0-1.92-0.49-1.88-1.94c0.09-3.86,0.17-7.73-0.02-11.58
			c-0.11-2.32,0.46-3.05,2.94-3.04c22.16,0.11,44.32,0.06,66.48,0.07c1.42,0,2.71,0.28,2.68-2.01c-0.12-8.69-0.08-17.38-0.02-26.07
			c0.01-1.5-0.45-1.93-1.93-1.9c-4.31,0.09-8.62,0.03-12.93,0.03c-34.2,0.02-68.41,0.03-102.61,0.05c-0.95,0.96-0.48,2.17-0.49,3.25
			c-0.03,38.63-0.02,77.26-0.04,115.89c0,1.01,0.37,2.11-0.39,3.04c-0.03-1.14-0.09-2.28-0.09-3.42c0-37.38,0-74.76,0-112.13
			c0-0.61-0.01-1.23,0-1.84c0.01-0.9,0.1-1.79-1.28-1.75c-1.36,0.04-1.21,0.97-1.22,1.84c-0.01,0.35,0,0.7,0,1.05
			c0,38.69,0,77.39,0.01,116.08c0,1.39-0.55,2.96,2.01,2.94c13.98-0.1,27.95-0.08,41.93-0.01c1.82,0.01,2.09-0.74,1.82-2.2
			c0.77-1.17,2.43,0.11,3.17-1.14c0.03-14.9,0.06-29.8,0.09-44.7c0.32,0.16,0.64,0.33,0.95,0.49c-0.56,2.2,0.81,2.15,2.36,2.15
			c13.89-0.03,27.78,0.12,41.66-0.12c3.38-0.06,4.95,1,6.55,3.91c8.25,15.08,21.02,25.86,34.84,35.58c0.27,0.19,0.64,0.28,0.87-0.25
			c-2.79-3.08-5.63-6.16-8.39-9.32c-0.6-0.69-1.7-1.23-1.31-2.48c4.74,3.22,8.94,7.2,14.17,9.75c-0.52-0.58-1.04-1.16-1.55-1.74
			c0.03-0.28,0.05-0.56,0.08-0.84c3.04,0.41,5.79,1.87,8.83,2.4c5.2,0.9,10.27-0.08,15.38-0.56c8.52-0.79,16.52-3.5,24.3-6.93
			c0.58-0.25,1.38-0.46,1.4-1.34c-0.64-0.45-1.37,0.39-1.99-0.18c2.13-1.06,4.26-2.12,6.39-3.18c1.23,3.47,2.65,6.83,4.42,10.09
			c2.2,4.04,5.7,5.86,10.16,4.76c1.92-0.48,3.3-1.77,4.92-2.72C261.3,457.95,261.83,458.14,261.94,457.44z M416.1,503.3
			c-0.89-1.41-2.57-1.67-3.45-0.84c-1.15,1.08,0.98,0.81,1.17,1.49c0.14,0.49,0.13,1.04,0.13,1.56c0.01,1.93,0.03,3.86-0.01,5.78
			c-0.02,0.87,0.4,1.91-1.19,2.07c-0.89,0.09-0.59,1.21-0.04,1.28c1.37,0.17,3.21,0.52,4.07-0.18c1.52-1.24-0.95-0.89-1.1-1.65
			c-0.03-0.17-0.09-0.35-0.07-0.51c0.24-2.83-0.73-5.8,1-8.46c1.27-0.61,3.09-1.04,3.26,0.58c0.31,2.98,2.11,6.3-0.89,9
			c-0.33,0.3-0.27,0.64-0.12,0.94c0.21,0.45,4.13,0.71,4.5,0.23c1.04-1.36-0.5-1.15-1.02-1.6c-0.54-0.47-0.28-1.15-0.29-1.74
			c-0.04-2.01-0.04-4.02-0.06-6.03c-0.01-1.54-0.58-2.78-2.11-3.29C418.3,501.4,416.95,501.74,416.1,503.3z M434.51,413.33
			c2.34-0.98,4.71-1.91,7.02-2.96c8.9-4.07,15.49-10.74,20.94-18.68c-0.05-0.28-0.14-0.46-0.46-0.26c-0.64,0.08-1.29,0.16-1.93,0.24
			c-0.45-0.06-0.9-0.08-1.24,0.3c-11.71,3.93-21.03,11.01-27.97,21.2C432.04,414.09,433.27,413.89,434.51,413.33z M330.04,524
			c69.83,0,139.65-0.01,209.48,0.06c2.48,0,3.26-0.52,3.23-3.13c-0.15-12.81-0.07-25.63-0.07-38.45c0-0.61,0-1.23-0.02-1.84
			c-0.03-0.62-0.37-0.95-1.01-0.93c-0.65,0.02-0.93,0.4-0.95,1c-0.02,0.61-0.02,1.23-0.02,1.84c0,12.03,0.01,24.05-0.01,36.08
			c-0.01,4.09,0.47,3.53-3.45,3.53c-138.77,0.01-277.54,0.01-416.31,0.05c-1.13,0-3.25-0.85-3.29,0.82
			c-0.04,1.79,2.1,0.92,3.21,0.92C190.56,524,260.3,524,330.04,524z M216.66,507.2c0.03-4.67-3.17-8.38-6.87-7.96
			c-3.77,0.43-6.31,4.2-5.97,8.87c0.28,3.73,3.2,6.77,6.48,6.74C213.88,514.81,216.63,511.49,216.66,507.2z M190.68,499.7
			c-3.24,0.03-6.11,3.42-6.15,7.28c-0.04,3.99,2.86,7.44,6.24,7.41c3.33-0.03,6.27-3.6,6.17-7.5
			C196.85,503.06,193.9,499.67,190.68,499.7z M176.96,507.18c0.05-3.71-2.61-7-5.71-7.04c-3-0.04-5.73,3.08-5.84,6.66
			c-0.11,3.82,2.38,6.95,5.6,7.03C174.36,513.91,176.91,511.06,176.96,507.18z M157,507.02c-0.01-3.57-2.31-6.33-5.29-6.35
			c-3.06-0.02-5.4,2.85-5.35,6.55c0.05,3.56,2.42,6.26,5.43,6.2C154.77,513.37,157.02,510.62,157,507.02z M273.48,497.43
			c-0.97,0-1.93-0.02-2.9,0.01c-0.57,0.02-1.31-0.21-1.38,0.74c-0.05,0.68,0.32,0.93,0.94,0.94c1.28,0.02,0.98,1,0.99,1.72
			c0.02,3.51,0.02,7.01,0,10.52c0,0.65,0.24,1.51-0.74,1.72c-0.62,0.13-1.34,0.12-1.18,1.01c0.19,1.04,1.08,0.66,1.71,0.68
			c1.05,0.05,2.11,0.01,3.16-0.01c0.36-0.01,0.69-0.11,0.83-0.51c0.13-0.37,0.07-0.87-0.23-0.91c-2.95-0.42-1.33-2.69-1.66-4.11
			c-0.54-2.33,0.95-2.33,2.6-2.04c1.35,0.24,1.79,1.28,2.09,2.41c0.35,1.35,0.74,2.71,0.96,4.09c0.18,1.12,0.89,1.15,1.71,1.08
			c0.56-0.05,1.31,0.27,1.56-0.56c0.33-1.12-0.72-0.89-1.22-1.23c-0.61-0.42-0.65-1.19-0.83-1.86c-0.29-1.1-0.45-2.26-0.96-3.25
			c-0.5-0.99-0.76-1.49,0.22-2.5c1.6-1.65,1.57-3.82,0.62-5.9c-0.82-1.81-2.45-2.07-4.2-2.03
			C274.88,497.45,274.18,497.44,273.48,497.43z M328.94,509.35c0.24-1.64-0.31-3.25,0.58-4.73c0.56-0.93,1.3-1.41,2.38-1.23
			c1.1,0.18,1.31,1.03,1.34,1.95c0.05,1.66,0.17,3.33,0.08,4.99c-0.06,1.13,0.73,2.63-1.3,3.16c-0.68,0.18-0.37,1.14,0.41,1.22
			c1.22,0.12,2.46,0.1,3.67-0.01c0.62-0.05,0.92-0.77,0.45-1.15c-3.12-2.53-1.02-5.69-1.02-8.55c0-1.01,1.07-1.76,2.34-1.62
			c1.27,0.13,1.52,1.07,1.58,2.06c0.09,1.57,0.16,3.16,0.06,4.73c-0.08,1.19,0.81,2.79-1.32,3.36c-0.55,0.14-0.32,1.14,0.5,1.22
			c1.04,0.1,2.11,0.09,3.16,0.02c1.05-0.08,1.17-1.19,0.53-1.35c-1.85-0.45-1.08-1.76-1.15-2.72c-0.13-1.92-0.06-3.85-0.1-5.78
			c-0.03-1.35-0.68-2.29-1.92-2.89c-1.93-0.93-3.04,1.21-4.29,1.23c-1.24,0.02-2.38-2.3-4.31-1.14c-0.79,0.48-1.33,1.18-2.4,0.18
			c-0.42-0.39-2.07-0.64-2.57,0.35c-0.47,0.95,0.82,0.81,1.31,1.18c0.12,0.09,0.28,0.29,0.26,0.4c-0.74,3.03,1.81,6.58-1.44,9.23
			c-0.41,0.33-0.34,0.97,0.08,1.09c1.43,0.43,2.93,0.36,4.38,0.05c0.48-0.1,0.52-0.96,0.22-1.05
			C327.82,512.8,329.49,510.66,328.94,509.35z M127.23,506.93c-0.05,3.43,2.01,5.95,4.88,5.98c2.79,0.02,5.13-2.67,5.1-5.87
			c-0.04-3.14-2.22-5.79-4.86-5.9C129.51,501.02,127.27,503.55,127.23,506.93z M516,503.33c-4.21-2.67-6.65-1.63-7.74,2.65
			c-0.48,1.87-0.33,3.64,0.18,5.42c0.92,3.24,3.52,4.27,6.42,2.51c0.67-0.4,0.75-0.58,1.13,0.29c0.48,1.1,1.69,0.45,2.58,0.52
			c0.38,0.03,0.62-0.27,0.69-0.65c0.07-0.4-0.09-0.75-0.48-0.78c-1.73-0.13-1.2-1.43-1.21-2.36c-0.04-3.32-0.02-6.65-0.02-9.97
			c0-0.87-0.02-1.75-0.01-2.62c0.01-0.9-0.59-0.95-1.24-0.91c-0.68,0.05-1.45-0.25-2,0.31c-0.15,0.15-0.03,0.88,0.1,0.92
			C517.01,499.45,515.42,501.52,516,503.33z M107.97,506.94c-0.07,2.76,2.12,5.56,4.46,5.71c2.44,0.15,4.84-2.6,4.85-5.57
			c0.01-2.94-2.06-5.41-4.58-5.44C110.12,501.61,108.04,503.93,107.97,506.94z M396.09,497.46c-0.97,0-1.93-0.03-2.9,0.01
			c-0.54,0.02-1.31-0.25-1.38,0.73c-0.05,0.69,0.35,0.93,0.97,0.9c1.08-0.06,1.03,0.68,1.03,1.4c0,3.77,0,7.54-0.01,11.3
			c0,0.5,0.11,1.08-0.56,1.31c-0.57,0.19-1.67-0.16-1.37,1.01c0.28,1.09,1.31,0.55,2.02,0.62c0.96,0.08,1.93,0.03,2.9,0.01
			c0.52-0.01,1.12,0.03,1.22-0.68c0.1-0.72-0.43-0.8-0.99-0.89c-3.19-0.51-1.1-2.91-1.43-4.37c-0.4-1.79,1.32-1.15,2.19-1.18
			c3.68-0.13,5.54-2.24,5.09-5.91C402.45,498.32,401.09,497.46,396.09,497.46z M239.74,512.57c-1.58-4.26-3.01-8.59-4.83-12.75
			c-0.52-1.19-1.98-0.95-2.52,0.56c-1.41,3.95-2.78,7.91-4.14,11.88c-0.15,0.43-0.51,1.06,0.34,1.25c0.52,0.11,1.13,0.13,1.45-0.35
			c0.28-0.42,0.43-0.96,0.52-1.46c0.32-1.9,1.38-2.43,3.29-2.42c1.9,0.01,2.98,0.51,3.28,2.44c0.08,0.5,0.36,0.99,0.63,1.43
			c0.33,0.54,0.92,0.4,1.43,0.37C239.79,513.46,239.84,513.05,239.74,512.57z M240.92,506.44c0,1.57-0.08,3.15,0.03,4.72
			c0.06,0.87-0.72,2.39,1.12,2.33c1.62-0.06,0.99-1.49,0.89-2.22c-0.39-2.76,0.67-3.53,3.39-3.41c2.94,0.12,4.38-1.42,4.53-3.97
			c0.18-3.17-1.37-4.62-5.2-4.63c-5.85-0.01-4.62-0.52-4.75,3.78C240.89,504.16,240.92,505.3,240.92,506.44z M97.35,507.1
			c0.02-2.84-1.85-5.03-4.28-5.01c-2.33,0.02-4.13,2.09-4.21,4.83c-0.08,2.69,1.89,5.17,4.16,5.23
			C95.28,512.21,97.33,509.83,97.35,507.1z M491.21,514.78c0.7,0,1.41,0.01,2.11,0c3.86-0.08,3.45,0.68,3.44-3.51
			c0-0.74,0.59-2.04-0.78-2.1c-1.47-0.06-0.86,1.3-0.83,2c0.13,2.56-1.76,1.61-2.92,1.68c-1.18,0.07-2.72,0.57-2.64-1.71
			c0.13-3.42,0.06-6.84,0.02-10.26c-0.01-1.11,0.13-1.92,1.53-1.78c0.64,0.07,0.96-0.26,0.93-0.93c-0.03-0.57-0.4-0.72-0.87-0.72
			c-1.58-0.01-3.16,0-4.75,0c-0.52,0-0.8,0.26-0.77,0.81c0.02,0.36,0.11,0.82,0.48,0.79c2.31-0.17,1.63,1.52,1.65,2.66
			c0.05,3.16,0.03,6.32,0.01,9.47c0,0.92,0.28,2.06-1.31,1.97c-0.5-0.03-0.83,0.21-0.83,0.76c0,0.7,0.45,0.86,1.03,0.86
			C488.22,514.77,489.72,514.78,491.21,514.78z M529.69,514.82c0.88-0.08,1.48,0.1,1.78-0.47c0.14-0.28,0.28-0.82-0.15-0.9
			c-2.22-0.4-1.26-2.11-1.37-3.31c-0.15-1.74-0.05-3.5-0.16-5.24c-0.1-1.6-1.11-2.57-2.56-2.99c-1.6-0.47-3.16-0.29-4.37,1.01
			c-0.72,0.78-1.47,2-0.52,2.72c1.03,0.78,1.26-0.58,1.65-1.32c0.6-1.14,1.71-1.18,2.76-0.88c1.33,0.39,1.59,1.6,1.5,2.75
			c-0.11,1.4-1.34,0.68-2.08,0.86c-0.85,0.2-1.77,0.2-2.56,0.52c-2.11,0.85-2.38,2.66-2.06,4.59c0.3,1.8,1.51,2.69,3.33,2.73
			C526.62,514.93,528.29,512.72,529.69,514.82z M353.28,508.84c0-1.37,0.12-2.69-0.03-3.99c-0.24-2.07-1.69-2.97-3.63-3.12
			c-1.97-0.15-3.38,0.7-4.11,2.58c-0.19,0.5-0.41,1.1,0.18,1.4c0.46,0.23,1.03,0.15,1.31-0.48c0.18-0.4,0.36-0.81,0.62-1.15
			c0.77-1.03,1.88-0.96,2.86-0.55c1.1,0.46,1.35,1.55,1.24,2.66c-0.15,1.47-1.33,0.68-2.06,0.86c-0.76,0.19-1.56,0.24-2.32,0.44
			c-1.57,0.41-2.28,1.57-2.4,3.09c-0.12,1.54,0.1,3.01,1.63,3.86c1.36,0.76,2.74,0.65,3.96-0.25c0.63-0.46,0.85-1.25,1.43,0.17
			c0.37,0.91,1.74,0.46,2.65,0.29c0.38-0.07,0.59-0.97,0.24-1.08C352.03,512.66,353.99,510.32,353.28,508.84z M465.18,508.75
			c0-1.43,0.13-2.76-0.03-4.05c-0.26-2.11-1.8-2.87-3.72-2.98c-1.98-0.11-3.36,0.79-3.99,2.71c-0.16,0.5-0.34,1.06,0.37,1.29
			c0.58,0.19,1.01-0.03,1.26-0.61c0.17-0.4,0.32-0.83,0.61-1.14c0.83-0.91,1.9-0.86,2.89-0.38c1,0.49,1.08,1.54,1.06,2.52
			c-0.04,1.52-1.26,0.76-1.97,0.94c-0.85,0.21-1.75,0.22-2.56,0.52c-2.03,0.75-2.85,3.38-1.81,5.54c0.86,1.77,3.05,2.36,4.96,1.26
			c0.67-0.39,1.04-1.3,1.76,0.13c0.34,0.67,1.76,0.48,2.65,0.04c0.17-0.08,0.21-0.88,0.17-0.89
			C463.88,512.73,465.83,510.27,465.18,508.75z M443.83,507.74c0-1.49-0.01-2.98,0-4.47c0.01-0.76-0.35-1.15-1.11-1.09
			c-0.77,0.06-1.61-0.26-2.27,0.32c-0.11,0.09,0.05,0.67,0.24,0.89c1.52,1.7,1.95,6.88,0.71,8.76c-0.52,0.79-1.19,1.25-2.18,1.2
			c-1.11-0.06-1.5-0.84-1.65-1.74c-0.17-1.03-0.27-2.08-0.3-3.12c-0.05-1.75-0.03-3.51-0.01-5.26c0.01-0.79-0.35-1.12-1.12-1.04
			c-0.69,0.07-1.37,0.16-2.05,0.24c0.06,0.32,0.07,0.89,0.18,0.92c2.04,0.41,1.22,2.01,1.3,3.16c0.12,1.75-0.08,3.52,0.15,5.25
			c0.36,2.75,2.49,3.87,4.97,2.68c0.73-0.35,1.03-0.6,1.83,0.1c0.65,0.56,2.22,0.74,2.83-0.23c0.74-1.19-0.99-0.78-1.27-1.36
			c-0.21-0.44-0.24-1-0.25-1.51C443.81,510.2,443.83,508.97,443.83,507.74z M289.76,508.85c0.97,0,1.93,0,2.9,0
			c0.57,0,0.97-0.11,1.15-0.78c0.53-1.96-1.21-5.33-3.21-6.07c-2.08-0.78-4.41,0.16-5.46,2.41c-1.25,2.67-1.28,5.46,0.01,8.11
			c1.31,2.68,5.05,3.23,7.15,1.15c0.74-0.73,1.76-1.96,1-2.64c-1.19-1.05-1.26,0.83-1.89,1.33c-0.07,0.05-0.12,0.13-0.18,0.19
			c-1.03,0.97-2.23,1.09-3.38,0.41c-1.23-0.73-1.88-2.04-1.56-3.37c0.34-1.42,1.77-0.48,2.68-0.73
			C289.22,508.8,289.5,508.86,289.76,508.85z M379.77,508.86C379.77,508.85,379.77,508.85,379.77,508.86c0.96-0.01,1.93,0,2.89-0.01
			c0.55-0.01,0.96-0.13,1.12-0.81c0.53-2.23-1.28-5.46-3.51-6.14c-2.16-0.66-4.49,0.59-5.42,2.99c-0.96,2.47-0.94,5.01,0.1,7.42
			c1.22,2.82,5.14,3.52,7.29,1.37c0.72-0.72,1.84-1.88,0.95-2.65c-1.23-1.06-1.3,0.78-1.84,1.36c-0.97,1.06-2.16,1.25-3.35,0.71
			c-1.42-0.65-2.07-2.14-1.91-3.48c0.17-1.47,1.72-0.49,2.63-0.75C379.04,508.78,379.42,508.86,379.77,508.86z M254.83,511.59
			c0.86-1.78,2.18-2.55,3.17-3.62c0.9-0.97,1.81-1.93,2.24-3.2c0.79-2.34-0.27-4.57-2.48-5.33c-2.13-0.73-4.58,0.27-5.25,2.25
			c-0.22,0.64-0.78,1.56,0.36,1.99c0.94,0.35,1.09-0.29,1.36-1.03c0.54-1.49,1.77-2.04,3.16-1.29c1.47,0.79,1.27,2.21,0.63,3.46
			c-0.74,1.42-2.02,2.41-3.17,3.49c-1.15,1.09-2.25,2.22-2.8,3.76c-0.33,0.95-0.16,1.5,1.01,1.48c2.11-0.04,4.22-0.02,6.33-0.01
			c0.76,0,1.12-0.34,1.09-1.11c-0.03-0.73-0.51-0.83-1.07-0.83C257.97,511.59,256.52,511.59,254.83,511.59z M357.4,512.51
			c0.01,2.2,0.52,2.64,0.94,2.04c0.95-1.4,1.45-0.12,2.07,0.09c2.06,0.71,4.18-0.28,4.89-2.34c0.68-1.98-0.28-3.97-2.27-4.66
			c-0.58-0.2-1.19-0.31-1.78-0.45c-1.07-0.27-2.11-0.65-1.97-2.01c0.09-0.92,0.58-1.66,1.62-1.81c1.24-0.17,2.3,0.11,2.81,1.38
			c0.21,0.52-0.03,1.32,0.88,1.37c0.56,0.03,0.81-0.35,0.75-0.83c-0.11-1,0.33-2.89-0.33-2.84c-1.75,0.14-3.23-1.32-4.98-0.56
			c-1.74,0.75-2.62,1.96-2.51,3.88c0.14,2.34,1.75,3.06,3.7,3.37c1.21,0.19,2.33,0.51,2.44,1.92c0.08,1.03-0.45,1.91-1.52,2.18
			c-1.37,0.34-2.4-0.2-3.04-1.46c-0.29-0.57-0.28-1.67-1.23-1.32C356.94,510.81,357.59,511.88,357.4,512.51z M469.26,512.76
			c0.57,0.45-0.21,2.39,0.74,1.76c1.41-0.92,1.97,0.1,2.87,0.3c2.09,0.46,4.08-0.9,4.41-3.04c0.52-3.38-1.75-4.16-4.32-4.68
			c-1.05-0.21-1.84-0.72-1.74-1.9c0.07-0.81,0.48-1.55,1.35-1.76c1.07-0.25,2.13-0.21,2.82,0.83c0.23,0.35,0.24,0.84,0.45,1.21
			c0.15,0.26,0.47,0.56,0.74,0.59c0.57,0.06,0.69-0.41,0.66-0.88c-0.05-0.94-0.13-1.88-0.2-2.83c-1.79,0.62-3.35-1.29-5.2-0.41
			c-1.59,0.76-2.49,1.9-2.4,3.69c0.12,2.42,1.78,3.21,3.84,3.52c1.21,0.18,2.28,0.51,2.28,2c0,1.06-0.48,1.88-1.58,2.11
			c-1.25,0.26-2.25-0.18-2.85-1.34c-0.33-0.64-0.26-1.86-1.38-1.45C468.87,510.82,469.5,511.89,469.26,512.76z M69.83,507.08
			c0.01,2.54,1.65,4.58,3.7,4.62c2.15,0.04,3.86-2.11,3.8-4.77c-0.05-2.57-1.75-4.55-3.82-4.48
			C71.45,502.52,69.82,504.57,69.83,507.08z M304.17,508.27c-0.09,1.06,0.08,2.16,0.5,3.24c0.85,2.17,2.25,3.54,4.72,3.36
			c2.45-0.18,3.68-1.79,4.27-3.98c0.49-1.81,0.42-3.66-0.05-5.44c-0.53-1.99-1.78-3.46-3.95-3.7c-2.26-0.25-3.85,0.88-4.84,2.87
			C304.27,505.74,304.06,506.93,304.17,508.27z M57.58,507.07c-0.01-2.16-1.77-4.23-3.58-4.19c-1.71,0.04-3.39,2.01-3.45,4.04
			c-0.06,2.24,1.53,4.2,3.44,4.24C55.91,511.21,57.59,509.29,57.58,507.07z M298.73,514.78c0.44,0,0.88,0.02,1.32-0.01
			c0.57-0.04,1.34,0.19,1.46-0.69c0.13-0.98-0.66-0.83-1.24-0.86c-1.16-0.07-0.81-0.97-0.82-1.58c-0.04-2.02,0.01-4.03-0.03-6.05
			c-0.02-1.1-0.13-2.19,1.52-2c0.43,0.05,0.64-0.3,0.69-0.65c0.08-0.54-0.25-0.81-0.78-0.77c-0.91,0.07-1.53-0.08-1.41-1.25
			c0.11-1.07,0.43-1.87,1.6-2.08c0.66-0.12,1.89,0.4,1.57-0.96c-0.26-1.13-1.38-0.86-2.22-0.72c-1.47,0.24-2.33,1.14-2.53,2.62
			c-0.15,1.12-0.24,1.82-1.54,2.7c-1.8,1.22,2.46,0.61,1.47,2.42c-0.07,0.13-0.01,0.35-0.01,0.52c0,2.02,0,4.03,0,6.05
			c0,0.84,0.24,1.84-1.17,1.8c-0.4-0.01-0.61,0.32-0.59,0.71c0.03,0.52,0.35,0.77,0.86,0.78
			C297.5,514.78,298.11,514.77,298.73,514.78z M427.03,508.52c0.03,0,0.05,0,0.08,0c0,1.4-0.12,2.81,0.03,4.19
			c0.16,1.53,1.17,2.32,2.74,2.14c1.47-0.16,2.07-1.14,2.13-2.53c0.02-0.5,0.23-1.16-0.41-1.36c-0.82-0.27-0.7,0.5-0.82,0.95
			c-0.18,0.67-0.28,1.52-1.25,1.33c-0.89-0.18-0.81-1.02-0.81-1.71c-0.01-1.92,0.04-3.85-0.02-5.77c-0.05-1.35-0.02-2.48,1.86-2.2
			c0.5,0.08,1.19,0.04,1.23-0.64c0.06-0.97-0.81-0.78-1.33-0.72c-1.39,0.16-1.91-0.37-1.76-1.75c0.04-0.41,0.29-1.18-0.51-1.18
			c-0.63,0-1.1,0.38-1.15,1.15c-0.05,0.69,0.34,1.54-0.93,1.79c-1.57,0.31-1.23,1.02,0.01,1.34c0.98,0.25,0.93,0.86,0.93,1.56
			C427.02,506.25,427.03,507.39,427.03,508.52z M319.14,514.76c0.67-0.25,1.96,0.61,2.38-0.58c0.46-1.34-1.02-0.72-1.53-1.12
			c-0.51-0.41-0.34-0.95-0.36-1.44c-0.03-1.14-0.12-2.29,0.02-3.41c0.25-1.94,0.08-4.22,2.94-4.52c0.72-0.08,0.69-0.7,0.57-1.22
			c-0.17-0.76-0.8-0.61-1.25-0.42c-1.12,0.49-2.13,0.99-3.42,0.2c-0.48-0.29-1.74-0.5-2.12,0.33c-0.45,1,0.83,0.81,1.21,1.26
			c0.28,0.33,0.29,0.96,0.31,1.45c0.04,1.31,0.18,2.66-0.03,3.94c-0.24,1.47,1.15,3.5-1.42,4.35c-0.49,0.16-0.18,1.12,0.66,1.18
			C317.73,514.8,318.35,514.76,319.14,514.76z M502.1,499.1c-2.23,0.48-0.99,3.53-3.31,3.53c-0.03,0,0.01,0.79,0.39,0.82
			c1.82,0.15,1.32,1.49,1.34,2.52c0.04,2.1-0.02,4.21,0.07,6.3c0.06,1.45,0.69,2.53,2.36,2.6c1.85,0.07,2.35-1.21,2.67-2.65
			c0.11-0.5,0.23-1.12-0.46-1.3c-0.71-0.18-0.89,0.34-0.94,0.91c-0.07,0.71-0.08,1.55-1.09,1.42c-0.89-0.12-0.9-0.98-0.91-1.66
			c-0.04-1.75,0-3.5-0.03-5.25c-0.02-1.5-0.3-3.13,2.11-2.79c0.45,0.06,0.88-0.13,0.91-0.69c0.03-0.42-0.25-0.71-0.62-0.64
			C502.03,502.71,502.04,500.96,502.1,499.1z M450.21,514.75c0,0.01,0,0.02,0,0.04c0.26,0,0.53,0.04,0.79-0.01
			c0.7-0.14,1.75,0.46,2-0.65c0.27-1.18-0.82-0.8-1.4-0.94c-0.57-0.14-0.62-0.57-0.61-1c0.06-1.83,0.03-3.68,0.25-5.49
			c0.15-1.29,0.46-2.72,2.15-2.9c0.98-0.11,1.6-0.41,1.18-1.43c-0.41-0.98-1.25-0.36-1.8-0.15c-0.82,0.31-1.41,1.67-2.43,0.06
			c-0.23-0.37-1.95-0.5-2.41,0.18c-0.77,1.15,0.72,0.96,1.18,1.4c0.16,0.15,0.25,0.51,0.19,0.72c-0.89,2.93,1.89,6.45-1.47,9.02
			c-0.37,0.29-0.14,1.04,0.54,1.14C448.97,514.81,449.59,514.75,450.21,514.75z M407.84,514.78c0.77-0.27,1.79,0.48,2.35-0.58
			c0.18-0.33,0.05-0.84-0.3-0.86c-1.79-0.09-1.16-1.43-1.19-2.32c-0.07-2.36,0-4.73-0.04-7.1c-0.01-0.68,0.4-1.75-0.93-1.7
			c-0.74,0.03-1.79-0.44-2.16,0.36c-0.48,1.05,0.92,0.73,1.23,1.22c0.25,0.39,0.26,0.98,0.26,1.48c0.03,2.1,0.03,4.21,0,6.31
			c-0.01,0.51-0.02,1.11-0.29,1.49c-0.31,0.44-1.68-0.06-1.27,1.09C405.91,515.29,407.05,514.52,407.84,514.78z M542.21,412.66
			c1.74-5.09,3.86-10.06,4.6-15.46C544.69,402.18,543.27,407.36,542.21,412.66z M386.22,444.38c-2.61,5.24-2.78,5.91-2.35,9.11
			C385.02,450.31,386,447.44,386.22,444.38z M540.18,427.28c1.61-3.06,0.32-6.35,0.82-9.2
			C539.39,420.82,541.47,424.18,540.18,427.28z M383.08,454.93c-0.17,2.34-1.95,4.42-1.27,7.26
			C383.34,459.79,382.77,457.28,383.08,454.93z M536.76,513.28c0.1-0.6-0.19-0.98-0.98-1.04c-1.05-0.08-1.08,0.58-1.06,1.32
			c0.02,0.63,0.05,1.21,0.94,1.21C536.63,514.78,536.81,514.21,536.76,513.28z M547.2,389.46c-1.21,1.39-0.76,2.6-0.54,4.27
			C547.8,392.2,547.48,391.01,547.2,389.46z M184.05,460.71c0.25,0.41,0.33,0.71,0.53,0.83c0.23,0.13,0.58,1.05,0.81,0.08
			C185.51,461.06,185,460.73,184.05,460.71z"/>
		<path class="st1" d="M241.36,445.81c-2.13,1.06-4.26,2.12-6.39,3.18c0,0,0.05-0.01,0.05-0.01c-2.97,0.67-5.61,2.17-8.42,3.24
			c-1.04,0.06-2.15-0.09-3.12,0.21c-6.14,1.89-12.58,2.74-18.83,2.62c-7.75-0.14-15.65-1.29-21.86-6.94
			c-0.11-0.1-0.32-0.11-0.48-0.16l-0.01-0.01c-1.2-1.43-2.4-2.86-3.6-4.29c-1.24-2-2.19-4.16-3.32-6.21
			c-1.83-3.34-1.43-7.13-2.57-10.58c-0.13-4.36-0.53-8.85,1.88-12.74c5.11-8.26,11.36-15.53,19.37-21.19
			c3.72-2.62,7.33-5.39,11-8.09c1.62-0.84,3.25-1.67,4.69-3.27c-2.25-0.02-4.05,0.48-5.81,1.15c-8.6,1.97-16.7,5.09-23.86,10.39
			c-14.34,9.34-18.19,25.65-9.85,41.66c1.36,3.21,3.25,6.1,5.37,8.84c0.5,0.67,1.01,1.34,1.51,2.01c0.81,0.81,0.95,2.33,2.49,2.39
			l-0.02-0.02c0.54,2.03,1.82,3.39,3.72,4.23l-0.01-0.01c-0.22,0.57-0.05,0.76,0.53,0.53l-0.01-0.01c-0.22,0.58-0.04,0.75,0.54,0.53
			l-0.01-0.01c-0.22,0.58-0.04,0.75,0.53,0.54l-0.01-0.01c-0.22,0.58-0.05,0.76,0.53,0.53l-0.01-0.01
			c-0.22,0.58-0.04,0.76,0.54,0.53l-0.01-0.01c-0.23,0.58-0.05,0.76,0.53,0.54l-0.01,0c-0.45,0.68,0.17,0.8,0.54,1.06
			c0.52,0.58,1.04,1.16,1.55,1.74c-5.22-2.54-9.43-6.53-14.17-9.75c0,0,0.01,0.02,0.01,0.02c-0.18-0.52-0.56-0.84-1.05-1.05
			c-0.76-0.85-1.45-1.79-2.64-2.11l-0.01-0.01c-0.16-0.54-0.35-1.04-1.05-0.55l0.04,0.03c-0.03-1.58-1.45-2.14-2.38-2.95
			c-1.88-1.63-3.02-4.1-5.56-4.98l0.03,0.03c-0.37-1.84-1.42-3.09-3.19-3.72l0.03,0.03c0.62-1.11-0.52-1.5-0.95-2.09
			c-2.66-3.6-5.26-7.24-7.06-11.35c-0.7-1.61-1.67-1.89-3.24-1.88c-16.07,0.05-32.15,0.02-48.22,0.06c-0.75,0-1.77-0.61-2.28,0.55
			c-0.03,14.9-0.06,29.8-0.09,44.7c-14.23,0.03-28.47,0.01-42.7,0.16c-2.3,0.02-2.88-0.52-2.88-2.85
			c0.08-38.86,0.06-77.71,0.06-116.57c0-0.79,0.05-1.58,0.08-2.36c34.2-0.02,68.41-0.03,102.61-0.05c4.31,0,8.62,0.06,12.93-0.03
			c1.48-0.03,1.94,0.4,1.93,1.9c-0.07,8.69-0.11,17.38,0.02,26.07c0.03,2.29-1.25,2.01-2.68,2.01c-22.16-0.01-44.32,0.04-66.48-0.07
			c-2.49-0.01-3.06,0.72-2.94,3.04c0.19,3.85,0.11,7.72,0.02,11.58c-0.03,1.45,0.35,1.94,1.88,1.94
			c16.88-0.05,33.77-0.03,50.65-0.03c0.78,0,1.48,0.05,2.05-0.78c3.71-5.4,8.77-9.26,14.4-12.45c0.12-0.07,0.16-0.28,0.24-0.43
			c0,0,0,0,0,0c5.27-2.08,10.4-4.51,15.89-6.06c16.06-4.53,32.47-5.62,49.05-5.26c16.12,0.35,32.04,2.34,47.84,5.44
			c13.51,2.66,26.82,6.13,39.89,10.49c1.85,0.62,3.26,0.88,4.93-0.78c2.38-2.38,5.78-1.67,8.79-1.79c1.33-0.05,2.35-0.24,3.31-1.12
			c8.56-7.79,21.66-4.1,26.6,4.88c1.28,2.32,2.44,4.82,5.08,6.18c1.32,0.68,2,0.63,3.12-0.36c3.66-3.24,7.31-6.46,11.97-8.41
			c8.82-3.7,19.19-1.06,23.56,7.98c1.03,2.12,2.15,4.2,3.17,6.33c0.16,0.34,0.02,0.83,0.02,1.77c-1.22-2.25-2.37-3.99-3.17-5.89
			c-1.98-4.7-10.54-6.57-15.21-4.4c-9.05,4.21-14.79,11.57-20.49,19.07c-4.87,6.4-9.35,13.09-14.33,20.12
			c-0.18-2.83,0.96-4.88,1.35-7c0.92-5.05,2.95-9.84,5.28-14.44c1.57-3.11,2.19-6.47,2.75-9.82c0.66-3.99-3.54-10.71-7.19-12.58
			c-4.92-2.52-9.24-1.81-13.29,1.73c-0.99,0.87-2.09,1.61-3.1,2.45c-0.96,0.79-1.77,1.08-3.04,0.34c-2.28-1.34-5.57-0.59-7.24,1.48
			c-2.84,3.52-4.3,7.8-6.38,11.74c-6,11.38-10.21,23.37-12.59,36.02c-0.47,2.51-1.47,4.91-2.21,7.37c-0.27,0.9-0.12,1.7,0.6,2.35
			c1.85,1.68,3.71,3.36,5.35,5.27c1.41,1.65,6.18,0.87,7.72-1.16c0.47-0.62,0.92-1.27,1.39-1.9c0.12,0.01,0.25,0,0.37-0.02
			c-0.41,5.18-3.72,8.26-7.85,10.73c-4.65,0.09-9.5,0.88-12.92-3.53c0-0.01-0.14,0.09-0.21,0.14l0.02,0.02
			c-1.14-1.92-2.38-3.73-4.78-4.24l0.02,0.02c0.22-0.58,0.04-0.75-0.53-0.54l0.02,0.02c0.58-0.7-0.21-1.07-0.41-1.56
			c-1.04-2.59-1.37-5.26-0.57-7.93c1.03-3.41,2.08-6.79,2.88-10.27c1.54-6.66,3.44-13.25,6.04-19.95
			c-3.99,2.84-8.19,2.91-11.17,0.48c-4.12-3.35-10.47-2.96-13.69,0.8c-3.63,3.31-5.56,7.7-7.62,12.03c0-3.27,1.5-6.05,2.97-8.72
			c2.63-4.78,5.66-9.22,10.89-11.72c5.07-2.42,12.76-1.66,17.19,2.05c0.52,0.44,1.11,0.57,1.71,0.51c1.75-0.18,4.99-5.12,4.43-6.81
			c-0.79-2.36-1.95-4.52-4.1-5.94c-7.8-5.17-15.89-5.91-24.3-1.52c-0.29,0.15-0.61,0.26-1.08,0.46c0-1.37-0.1-2.57,0.02-3.74
			c0.27-2.57-1.47-4.06-3.27-4.86c-1.91-0.85-3.82,0.01-5.26,1.88c-3.73,4.83-5.5,10.51-7.25,16.18
			c-3.27,10.62-6.04,21.39-8.31,32.27c-0.6,2.89-1.06,5.82-1.63,8.7c-0.43,2.17,0.33,5.02,1.89,7.1c1.08,1.43,1.26,3.56,3,4.39
			c1.98,0.95,3.05-1.33,4.69-1.7c1.44-0.32,2.55-1.01,3.07-2.97c0.26,4.44-1.83,7.55-5.41,8.97c-1.69,0.67-3.26,1.66-4.88,2.51
			c-3.66,0.57-7.3,0.2-9.26-3.16c-1.76-3.01-4.07-5.9-4.47-9.58c-0.16-1.43-0.72-1.44-1.59-0.5c-0.92,0.45-1.98,0.68-2.64,1.57
			L241.36,445.81z M250.51,435.8c-0.08-0.2-0.17-0.4-0.25-0.6c-3.35,0.59-6.69,1.3-10.06,1.75c-8.73,1.15-17.43,1.05-26.11-0.71
			c-4.39-0.89-8.81-1.56-12.64-4.11c-1.44-0.96-2.2-2.14-1.82-3.96c0.36-1.76,1.64-1.74,2.99-1.86c0.86-0.08,1.72-0.33,2.53-0.64
			c7.97-3.06,15.09-7.6,21.29-13.33c4.89-4.52,10.19-8.7,13.71-14.66c2.63-4.46,3.18-8.99,2.46-13.88
			c-0.16-1.11-0.85-2.25-1.81-2.42c-2.03-0.35-4.1-1.1-6.19-0.43c-6.61,2.12-13.07,4.61-18.92,8.39
			c-7.97,5.14-15.75,10.56-22.17,17.62c-3.19,3.5-6.61,7.09-8.04,11.57c-1.52,4.77-0.47,9.89,1.02,14.62
			c2.54,8.08,8.31,12.53,16.62,14.26c6.03,1.25,11.93,0.58,17.84-0.21c4.05-0.54,8.03-1.57,11.98-2.75
			c2.21-0.66,4.06-1.97,6.17-2.64C243.3,440.46,246.81,437.98,250.51,435.8z"/>
		<path class="st1" d="M355.47,462.74c-0.38,0.19-0.76,0.38-1.14,0.57c-1.53,0.64-3.06,1.28-4.58,1.93
			c-29.5,12.57-60.59,17.37-92.37,18.49c-14.67,0.52-29.35,0.11-43.99-1.45c-13.2-1.4-26.25-3.53-39.16-6.63
			c-8.01-1.92-15.79-4.6-23.62-7.12c-5.99-2.62-12.09-5-17.75-8.37c3.4,0.32,6.49,1.76,9.69,2.72c15.17,4.58,30.65,7.5,46.38,9.26
			c18.04,2.02,36.12,2.64,54.23,1.53c31.58-1.93,62.39-7.22,91.13-21.26c1.5-0.73,3.47-0.95,4.25-2.83l-0.07,0.01
			c1.31,0.65,1.84-0.58,2.67-1.09l-0.01,0.01c0.49-0.07,1.07-0.18,1-0.78c-0.05-0.43-0.43-0.83-0.98-0.35c0,0,0.02,0.03,0.02,0.03
			c0.43-0.7-0.24-0.77-0.6-1.03c-0.73-0.76-1.25-1.86-2.6-1.64l0.03,0.03c-0.89-2-2.2-3.7-3.72-5.26c0,0-0.01-0.01-0.01-0.01
			c-1.09-2.5-2.81-4.69-3.27-7.92c-0.54,1.26-0.85,1.96-1.15,2.66c-0.11-0.5-0.22-1-0.33-1.5c3.99-11.29,10.29-23.94,15.06-30.13
			c0.59,1.3,0.3,2.5,0.05,3.6c-1.58,6.9-1.38,13.96-1.73,20.95c-0.31,6.16,4.46,12.5,9.87,15.2c3.29,1.65,6.34-0.12,8.79-1.81
			c3.84-2.64,7.77-5.48,9.32-10.33c0.2-0.64,0.73-1.19,1.14-1.76c2.18-2.96,3.98-6.02,5.03-9.66c1.09-3.81,3.75-6.92,6.05-10.16
			c0.89-1.25,2.03-2.36,2.31-4.02c0.24-1.43,1.31-2.46,2.29-3.46c0.19-0.19,0.73-0.29,0.93-0.17c0.43,0.27,0.29,0.67,0.04,1.11
			c-5.48,9.57-7.56,20.28-10.5,30.72c-2.03,7.21-2.59,14.61-2.69,21.97c-0.05,3.87,0.51,7.96,1.88,11.77
			c0.21,0.57,0.27,1.35,1.11,1.12c0.7-0.19,1.59-0.09,1.93-1.1c0.25-0.76-0.11-1.83,0.99-2.24c0.88,3.57-1.78,7.96-5.98,9.94
			c-2.71,0.51-5.37,0.84-7.59-1.42c-0.32-0.33-0.48-1.27-1.34-0.75l0.02,0.02c-1.27-4.45-2.73-8.87-2.68-14.02
			C360.77,459.83,358.12,461.29,355.47,462.74z"/>
		<path class="st1" d="M529.29,376.26c-1.34,0.25-2.67,0.5-4.01,0.75c-0.23,0.1-0.46,0.2-0.69,0.3c-3.21,0.13-5.34,2.29-7.7,4.06
			c-0.88,0.66-1.58,1.64-2.78,1.81c-0.13-0.2-0.26-0.4-0.39-0.6c-0.45-2.08-1.4-3.69-3.74-4.01c-0.25,0.1-0.5,0.21-0.75,0.31
			c-0.24,0.01-0.48,0.02-0.72,0.04c-1.53-0.61-3.06-0.7-4.59-0.03c-1.67,0.29-2.83,1.24-3.54,2.74c-2.29,4.84-4.29,9.79-5.2,15.11
			c-0.33,0.32-0.39,0.72-0.3,1.15c-0.08,0.47-0.16,0.95-0.24,1.42c-0.1,0.23-0.19,0.46-0.29,0.69c-0.25,1.36-0.5,2.73-0.75,4.09
			c-0.35,0.32-0.4,0.73-0.32,1.17c-1.45,4.51-2.86,9.02-3.88,13.65c-0.35,0.29-0.45,0.67-0.36,1.11c-0.86,2.88-2.04,5.67-2.31,8.7
			c-0.39,0.37-0.39,0.83-0.3,1.31c-0.42,1.73-0.84,3.45-1.26,5.18c-0.11,0.21-0.23,0.42-0.34,0.62c0,0.36,0.01,0.73,0.01,1.09
			c-0.1,0.46-0.07,0.89,0.31,1.23c2.04,2.06,4.08,4.12,6.13,6.18c1.71,0.43,3.42,0.84,5.11-0.06c2.31-0.77,3.12-2.8,3.98-4.76
			c0.83-1.9,1.57-3.83,2.35-5.75c0.15,0.16,0.29,0.33,0.44,0.49c-2.24,6.73-3.67,13.98-11.07,17.45c-2.02-0.09-4.03-0.22-6.05-0.26
			c-2.45-0.05-4.31-1.02-5.87-2.95c-1.3-1.61-2.98-2.92-4.46-4.4c-0.72-0.73-1.39-0.83-2.27-0.23c-1.15,0.78-2.36,1.47-3.55,2.19
			c-0.36,0.28-0.71,0.56-1.07,0.84c-0.18,0.1-0.37,0.21-0.55,0.31c-0.32,0.11-0.64,0.23-0.97,0.34c-7.35,3.05-14.81,5.62-22.8,6.51
			c-7.31,0.81-14.56,1.92-21.77-0.77c-2.28-0.85-4.77-1.14-7.17-1.69l0.02,0.02c-0.18-1.24-0.93-1.73-2.13-1.6
			c0,0,0.03,0.02,0.03,0.02c-2.29-2.63-4.59-5.26-6.88-7.88l-0.01-0.01c-2-4.53-4.17-9.01-4.26-14.12
			c-0.02-0.94-0.34-1.88-0.58-2.81c-0.4-1.58-1.86-2.21-3.08-2.5c-1.06-0.26-2.11,0.67-2.19,2.06l0.02-0.02
			c-0.71-0.42-0.78,0.14-0.91,0.6c-1.92,3.71-3.82,7.42-5.75,11.13c-0.89,1.71-1.79,3.4-2.71,5.09c-0.09,0.17-0.35,0.26-0.53,0.38
			c-0.05-0.33-0.71-0.29-0.5-0.79c0.31-0.72,0.61-1.45,0.96-2.15c2.77-5.51,5.53-11.03,8.36-16.52c0.76-1.47,1.69-2.84,3.04-3.91
			c2.94-2.35,4.91-5.42,6.09-8.95c0.94-2.82,2.41-5.34,4.03-8.18c0.45,3.38-2.04,5.5-2.66,8.22c1.01,0.19,1.22-0.5,1.57-0.95
			c12.37-15.87,28.33-26.65,47.22-33.29c5.68-1.99,12.13-0.72,15.29,2.95c0.69,0.8,1.38,1.6,1.48,2.72
			c-0.16,0.34-0.31,0.67-0.47,1.01c0,0-0.24,0.06-0.24,0.06c-0.12-0.12-0.25-0.25-0.37-0.37c0,0-0.13-0.14-0.13-0.14
			c-0.17-0.4-0.47-0.52-0.88-0.42c-0.88-0.05-1.76-0.11-2.64-0.16c-0.93-0.33-1.86-0.81-2.8-0.04c-0.31,0.06-0.62,0.13-0.93,0.19
			c-0.42-0.09-0.71,0.12-0.97,0.41c-0.21,0.05-0.42,0.1-0.63,0.15c-0.33,0.12-0.67,0.24-1,0.36c-6.8,2.37-13.29,5.33-19.22,9.48
			c-9.88,6.93-19.35,14.24-25.72,24.81c-0.76,1.26-1.31,2.44-1.06,3.91c-0.52,1.09-0.18,2.26-0.35,3.39
			c0.03,0.37,0.06,0.75,0.09,1.12c0.09,0.37,0.18,0.73,0.27,1.1c0.22,7.88,3.41,14.21,9.86,18.85c0.8,0.57,1.5,1.25,2.56,0.61
			c0.71,0.65,1.56,0.31,2.36,0.34c0.66,0.72,1.37,1.34,2.44,1.25c0.51,0.54,1.17,0.32,1.78,0.34c2.42,0.96,4.89,1.28,7.43,0.52
			l0.25,0.07l0.25-0.08c0.73,0.11,1.46,0.22,2.17-0.09c0.19-0.09,0.38-0.18,0.57-0.27c0.23,0.01,0.47,0.02,0.7,0.03
			c0.71,0.54,1.42,0.59,2.13,0c0.62-0.07,1.24-0.15,1.86-0.22c0.61,0.1,1.21,0.1,1.73-0.31c0.66-0.07,1.31-0.15,1.97-0.22
			c0.46,0.08,0.89,0.03,1.25-0.3c4.53-1.24,9.41-1.36,13.42-4.28c0.59-0.43,1.47-0.46,2.21-0.67c0.43,0.08,0.78-0.05,1.06-0.37
			c0.17-0.07,0.35-0.13,0.52-0.2c0.12-0.12,0.24-0.24,0.36-0.37c0,0,0.13-0.13,0.13-0.13c0.16-0.13,0.32-0.26,0.49-0.38
			c2.12-0.78,4.08-1.86,5.87-3.24c0.19-0.14,0.37-0.28,0.56-0.42c0,0-0.01,0.01-0.01,0.01c0.57-0.12,1.16-0.24,1.19-1.26
			c-0.99,0.3-2,0.01-2.88,0.67c-0.34,0.05-0.67,0.11-1.01,0.16c-0.41,0.11-0.82,0.22-1.24,0.33c-0.82,0.08-1.64,0.16-2.47,0.23
			c-0.36,0.11-0.72,0.22-1.08,0.34c-0.52,0.06-1.04,0.12-1.56,0.19c-0.6-0.09-1.17-0.06-1.68,0.32c-1.37,0.06-2.75,0.12-4.12,0.18
			c-0.99-0.07-1.99-0.19-2.9,0.35c-1.39,0-2.78,0-4.17,0c-1.1-0.56-2.27-0.41-3.43-0.34c-2.07-0.46-4.27,0.21-6.29-0.7
			c-0.26-0.46-0.67-0.45-1.11-0.37c-0.97-0.06-1.93-0.12-2.9-0.19c-0.37-0.38-0.83-0.39-1.31-0.31c-3.35-0.84-6.75-1.47-9.81-3.23
			c-1.42-0.81-2.48-1.83-3.12-3.31c0.02-0.32,0.05-0.65,0.07-0.97c0.38-1.84,1.75-2.24,3.36-2.29c0.46,0.1,0.89,0.1,1.23-0.3
			c3.91-1.01,7.45-2.86,10.79-5.03c2.99-1.94,5.88-4.03,8.97-5.85c2.03-1.2,3.54-3.29,5.27-4.99c2.5-2.45,5.03-4.88,7.49-7.36
			c2.76-2.77,4.52-6.32,5.8-10.05c0.17,0.01,0.35,0.02,0.52,0.04c0.45,1.9-0.7,3.41-1.38,4.95c-1.79,4.07-3.88,7.96-7.3,11.02
			c-3.78,3.39-7.42,6.93-10.75,10.77c-0.83,0.96-1.93,1.5-3.01,2.05c-4.37,2.22-8.03,5.52-12.64,8.13
			c12.27,2.98,23.97,2.2,35.63-0.7c1.01,0.14,1.78,0.19,2.1-1.21c0.73-3.22,1.58-6.43,2.6-9.57c4.11-12.76,5.88-26.19,11.14-38.62
			c1.8-2.85,3.8-5.62,7.29-6.37c4.46-0.96,9.04-2.11,13.38,0.55c0.67,0.41,1.07,0.58,1.82,0.09c4.54-2.94,9.97-4.49,14.96-4.11
			c6.78,0.52,13.64,2.68,17.78,9.11c1.2,1.86,3.15,3.41,2.83,6c-0.18,0.04-0.35,0.02-0.51-0.05c-2.5-6.05-8.3-7.16-13.58-9.01
			c-0.5-0.17-1.17,0.15-1.76,0.24C530.09,375.87,529.65,375.88,529.29,376.26z M405.44,410.51c-0.36,0.27-0.63,0.57-0.24,1.02
			c0.22-0.23,0.44-0.45,0.66-0.68c0.14-0.26,0.54-0.54,0.13-0.8C405.54,409.76,405.52,410.22,405.44,410.51z"/>
		<path class="st1" d="M526.55,412.11c-0.31,2.55-2.24,4.95-0.76,7.68c-0.57,1.45-0.38,2.96-0.35,4.45
			c-0.7,3.48,0.12,6.79,1.17,10.07c0.09,0.18,0.17,0.36,0.26,0.55c0.19,1.45,0.58,2.84,1.22,4.17c-0.07,0.43-0.01,0.83,0.35,1.12
			c0.27,1.04,0.55,2.08,0.82,3.12c0.09,0.15,0.18,0.29,0.28,0.44c2.63,3.1,4.21,7.49,8.71,8.37c2.04,0.4,4.35,0.86,6.52,0.07
			c1.4,0.15,1,1.24,1.1,2.07c-0.59,2.87-3.33,3.5-5.23,5.02c-6.1,1.39-11.53,0-16.35-3.93l-0.01-0.01
			c-0.56-1.32-1.46-2.34-2.63-3.15l-0.01-0.01c-0.66-1.1-1.06-2.45-2.62-2.66c0,0,0.02,0.02,0.02,0.02c0.07-0.14,0.25-0.33,0.21-0.4
			c-3.07-5.21-3.87-11.18-5.61-16.83c-1.1-3.56,0.23-7.25-0.48-10.67c-0.78-3.8,0.65-7.03,1.18-10.5c0.52-2.46,1.06-4.92-0.09-7.35
			c0.71-3.71,3.15-6.71,4.23-10.28c0.4-1.31,2.13-0.9,3.16-1.48c0.69,0,1.38,0,2.06-0.01c2.58,0.01,3.49,1.93,4.38,3.85
			c0,0.69,0.01,1.38,0.01,2.06c-0.06,0.49-0.13,0.99-0.19,1.48c-0.11,0.39-0.23,0.77-0.34,1.16c-0.07,1.16-0.13,2.33-0.2,3.49
			c-0.36,0.35-0.39,0.79-0.33,1.25c-0.06,0.45-0.13,0.89-0.19,1.34C526.06,408.42,526.51,410.28,526.55,412.11z"/>
		<path class="st2" d="M330.04,524c-69.74,0-139.48,0.01-209.21-0.05c-1.11,0-3.25,0.87-3.21-0.92c0.03-1.67,2.15-0.82,3.29-0.82
			c138.77-0.05,277.54-0.04,416.31-0.05c3.92,0,3.45,0.55,3.45-3.53c0.02-12.03,0.01-24.05,0.01-36.08c0-0.61,0-1.23,0.02-1.84
			c0.02-0.6,0.3-0.99,0.95-1c0.64-0.02,0.98,0.31,1.01,0.93c0.03,0.61,0.02,1.23,0.02,1.84c0,12.82-0.08,25.63,0.07,38.45
			c0.03,2.61-0.75,3.14-3.23,3.13C469.69,523.99,399.86,524,330.04,524z"/>
		<path class="st2" d="M354.81,464.33c-6.7,4.07-14.03,6.73-21.38,9.27c-16.05,5.57-32.61,9.05-49.44,11.11
			c-20.28,2.48-40.61,3.12-61.04,1.85c-22.7-1.42-44.98-4.95-66.67-11.83c-9.53-3.02-18.76-6.81-27.46-11.9
			c7.24,2.22,14.5,4.33,21.78,6.39c0.54,0.28,1.06,0.62,1.63,0.82c26.24,9.42,53.49,13.6,81.18,14.7
			c21.96,0.87,43.88-0.33,65.6-4.09c15.15-2.62,30.02-6.23,44.38-11.77C347.21,467.41,351,465.85,354.81,464.33z"/>
		<path class="st2" d="M93.57,464.34c0.27,1.45,0,2.21-1.82,2.2c-13.98-0.07-27.95-0.09-41.93,0.01c-2.56,0.02-2.01-1.55-2.01-2.94
			c-0.01-38.69-0.01-77.39-0.01-116.08c0-0.35,0-0.7,0-1.05c0.01-0.87-0.14-1.8,1.22-1.84c1.37-0.04,1.28,0.85,1.28,1.75
			c-0.01,0.61,0,1.23,0,1.84c0,37.38,0,74.76,0,112.13c0,1.14,0.06,2.28,0.09,3.42c0.7,1.05,1.76,0.5,2.63,0.5
			C66.54,464.32,80.06,464.32,93.57,464.34z"/>
		<path class="st2" d="M174.36,448.45c-0.39,1.25,0.71,1.79,1.31,2.48c2.76,3.16,5.6,6.24,8.39,9.32c-0.23,0.53-0.6,0.44-0.87,0.25
			c-13.81-9.72-26.59-20.5-34.84-35.58c-1.59-2.92-3.16-3.97-6.55-3.91c-13.88,0.25-27.77,0.09-41.66,0.12
			c-1.55,0-2.92,0.05-2.36-2.15c15.98-0.01,31.97,0.03,47.95-0.1c2.43-0.02,3.69,0.69,4.79,2.89c2.11,4.17,4.43,8.28,8.05,11.43
			c0,0-0.03-0.03-0.03-0.03c0.49,1.73,1.69,2.86,3.19,3.72c0,0-0.03-0.03-0.03-0.03c2.05,3.24,4.71,5.87,7.94,7.93
			c0,0-0.04-0.03-0.04-0.03c0.12,0.63,0.33,1.08,1.05,0.55c0,0,0.01,0.01,0.01,0.01c-0.23,1.61,1.3,1.79,2.09,2.57
			c0.5,0.28,0.76,1.19,1.59,0.59L174.36,448.45z"/>
		<path class="st2" d="M466.73,449.01c-1.69,2.03-4.34,2.16-6.52,3.22c-7.78,3.78-16.2,4.73-24.66,5.74
			c-6.07,0.73-11.67-0.53-17.54-1.83c-8.12-1.78-12.11-7.36-15.91-13.63c-2.39-3.94-2.89-8.45-3.27-12.84
			c-0.18-2.09-2.46-2.48-2.38-4.35c0.02-0.19,0.03-0.39,0.05-0.58c0,0-0.02,0.02-0.02,0.02c2.99-1.45,3.91-1.01,4.73,2.42
			c0.3,1.26,0.47,2.57,0.55,3.87c0.23,3.97,2.19,7.31,3.85,10.77c0.15,0.31,0.46,0.81,0.98,0.32c0,0,0.01,0.01,0.01,0.01
			c0.96,3.79,3.64,6.08,6.88,7.88c0,0-0.03-0.02-0.03-0.02c0.34,1.02,1.03,1.59,2.13,1.6c0,0-0.02-0.02-0.02-0.02
			c0.33,1.24,1.48,1.56,2.42,1.6c2.34,0.09,4.43,0.97,6.59,1.66c1.94,0.62,3.92,0.85,5.94,1.06c5.3,0.54,10.48-0.48,15.65-1.17
			c5.61-0.74,11.22-1.75,16.39-4.32C463.87,449.78,465.13,448.86,466.73,449.01z"/>
		<path class="st1" d="M430.86,413.19c6.94-10.2,16.26-17.28,27.97-21.2c0.46,0.1,0.89,0.06,1.24-0.3c0.64-0.08,1.29-0.16,1.93-0.24
			c0.15,0.09,0.31,0.17,0.46,0.26c-5.45,7.94-12.04,14.61-20.94,18.68c-2.31,1.06-4.68,1.98-7.02,2.96
			C433.29,413.29,432.08,413.24,430.86,413.19z"/>
		<path class="st3" d="M354.81,464.33c-3.81,1.52-7.6,3.08-11.43,4.56c-14.36,5.54-29.23,9.14-44.38,11.77
			c-21.72,3.76-43.65,4.96-65.6,4.09c-27.69-1.1-54.94-5.28-81.18-14.7c-0.57-0.2-1.09-0.55-1.63-0.82c0-0.23,0.01-0.45,0.01-0.68
			c7.83,2.51,15.61,5.19,23.62,7.12c12.9,3.1,25.95,5.23,39.16,6.63c14.64,1.55,29.32,1.96,43.99,1.45
			c31.78-1.12,62.87-5.92,92.37-18.49c1.53-0.65,3.06-1.29,4.58-1.93C354.49,463.65,354.65,463.99,354.81,464.33z"/>
		<path class="st2" d="M165.94,374.25c-7.65,0.85-15.32,0.33-22.99,0.38c-14.32,0.09-28.65,0.04-42.98,0.01
			c-0.92,0-2.33,0.57-2.33-1.21c0-1.78,1.42-1.21,2.33-1.21c21.09-0.03,42.19,0.01,63.28-0.07
			C164.97,372.15,165.75,372.65,165.94,374.25C165.94,374.25,165.94,374.25,165.94,374.25z"/>
		<path class="st2" d="M538.51,461.13c-1,1.88-2.79,2.34-4.62,2.11c-5.77-0.72-10.75-2.25-14.98-7.21
			c-5.23-6.13-6.34-13.44-8.61-20.5c-0.75-2.33-0.92-4.77-0.37-7.24c0.62-2.79-0.76-5.51-0.49-8.3c0,0-0.02,0.07-0.02,0.07
			c0.86-0.19,0.56-1.05,0.89-1.55c0.84-0.78,0.62-2.19,1.73-2.94c0,4.59-0.01,9.1,0.01,13.61c0,0.6,0.18,1.2,0.29,1.8
			c0.89,5.01,2.76,9.74,4.07,14.63c0.4,1.51,0.78,3.26,2.62,3.92c0,0-0.02-0.02-0.02-0.02c0.33,1.42,0.96,2.55,2.62,2.66
			c0,0,0.01,0.01,0.01,0.01c0.05,1.74,0.88,2.83,2.63,3.15c0,0,0.01,0.01,0.01,0.01c-0.02,2.54,2.1,3.06,3.8,3.67
			C531.44,460.19,534.96,460.78,538.51,461.13z"/>
		<path class="st2" d="M216.66,507.2c-0.03,4.29-2.78,7.61-6.35,7.65c-3.28,0.04-6.2-3.01-6.48-6.74c-0.35-4.67,2.19-8.44,5.97-8.87
			C213.48,498.82,216.68,502.53,216.66,507.2z"/>
		<path class="st2" d="M190.68,499.7c3.22-0.03,6.17,3.36,6.26,7.19c0.1,3.9-2.84,7.47-6.17,7.5c-3.38,0.03-6.28-3.42-6.24-7.41
			C184.57,503.13,187.44,499.73,190.68,499.7z"/>
		<path class="st2" d="M313.17,455.81c1.39,0.09,2.77,0.17,4.17,0.26c0.08,0.79-0.59,1.03-1.07,1.33
			c-3.68,2.32-11.19,1.03-13.97-2.3c-0.89-1.07-1.87-2.11-2.99-2.92c-4.9-3.55-5.46-8.2-3.58-13.5c2.28-6.43,3.32-13.19,5.33-19.69
			c0.75-2.44,2.21-4.7,2.08-7.39c0,0-0.04,0.04-0.04,0.04c0.13,0.02,0.25,0.04,0.38,0.05c-0.01-0.2-0.03-0.39-0.04-0.59
			c0.75,0.19,0.61-1.39,1.79-0.68c-3.2,8.55-4.77,17.59-7.43,26.34c-1.06,3.48-1.46,7.19,1.69,10.13c0,0-0.02-0.02-0.02-0.02
			c-0.09,0.44,0.09,0.62,0.53,0.54c0,0-0.02-0.02-0.02-0.02c1.33,1.7,2.54,3.54,4.78,4.24c0,0-0.02-0.02-0.02-0.02
			C306,454.91,308.16,455.99,313.17,455.81z"/>
		<path class="st2" d="M176.96,507.18c-0.06,3.89-2.6,6.73-5.95,6.65c-3.22-0.08-5.71-3.21-5.6-7.03c0.11-3.58,2.84-6.7,5.84-6.66
			C174.35,500.18,177.02,503.47,176.96,507.18z"/>
		<path class="st2" d="M234.97,449c0.62,0.57,1.35-0.27,1.99,0.18c-0.02,0.88-0.82,1.09-1.4,1.34c-7.78,3.42-15.78,6.14-24.3,6.93
			c-5.11,0.47-10.18,1.46-15.38,0.56c-3.04-0.52-5.78-1.99-8.83-2.39c-0.14-0.26-0.31-0.43-0.62-0.22c0,0,0.01,0,0.01,0
			c0.09-0.45-0.11-0.6-0.53-0.54c0,0,0.01,0.01,0.01,0.01c0.07-0.43-0.09-0.63-0.54-0.53c0,0,0.01,0.01,0.01,0.01
			c0.09-0.44-0.09-0.62-0.53-0.53c0,0,0.01,0.01,0.01,0.01c0.09-0.44-0.09-0.62-0.53-0.54c0,0,0.01,0.01,0.01,0.01
			c0.08-0.43-0.07-0.65-0.54-0.53c0,0,0.01,0.01,0.01,0.01c0.12-0.47-0.06-0.65-0.53-0.53c0,0,0.01,0.01,0.01,0.01
			c-0.67-1.91-2.01-3.23-3.72-4.23c0,0,0.02,0.02,0.02,0.02c0.27-0.69-0.57-1.03-0.52-1.65c1.52-0.4,1.56,2.24,3.21,1.56
			c0,0,0.01,0.01,0.01,0.01c-0.66,1.23,0.64,1.33,1.11,1.89c3.19,3.71,8.06,3.42,12.14,5.02c2.91,1.15,6.12,1.5,9.07,1.26
			c7.39-0.6,14.81-1.28,22.01-3.28c2.93-1,6.06-1.58,8.4-3.87L234.97,449z"/>
		<path class="st3" d="M93.57,464.34c-13.51-0.02-27.03-0.02-40.54-0.08c-0.87,0-1.93,0.55-2.63-0.5c0.76-0.93,0.39-2.03,0.39-3.04
			c0.02-38.63,0.01-77.26,0.04-115.89c0-1.08-0.47-2.29,0.48-3.25c-0.03,0.79-0.08,1.58-0.08,2.36c0,38.86,0.02,77.71-0.06,116.57
			c0,2.34,0.58,2.87,2.88,2.85c14.23-0.15,28.47-0.12,42.7-0.16C96,464.45,94.34,463.17,93.57,464.34z"/>
		<path class="st2" d="M157,507.02c0.01,3.59-2.23,6.34-5.22,6.4c-3.01,0.06-5.38-2.65-5.43-6.2c-0.05-3.71,2.3-6.58,5.35-6.55
			C154.69,500.7,156.99,503.46,157,507.02z"/>
		<path class="st4" d="M273.48,497.43c0.7,0,1.41,0.02,2.11,0c1.75-0.05,3.38,0.21,4.2,2.03c0.94,2.08,0.98,4.25-0.62,5.9
			c-0.98,1.01-0.73,1.52-0.22,2.5c0.51,0.99,0.67,2.16,0.96,3.25c0.18,0.67,0.22,1.44,0.83,1.86c0.5,0.35,1.56,0.11,1.22,1.23
			c-0.25,0.83-1,0.52-1.56,0.56c-0.82,0.07-1.53,0.05-1.71-1.08c-0.22-1.38-0.6-2.73-0.96-4.09c-0.3-1.13-0.74-2.17-2.09-2.41
			c-1.65-0.3-3.13-0.3-2.6,2.04c0.33,1.43-1.29,3.69,1.66,4.11c0.3,0.04,0.37,0.54,0.23,0.91c-0.14,0.4-0.47,0.5-0.83,0.51
			c-1.05,0.02-2.11,0.05-3.16,0.01c-0.63-0.03-1.53,0.36-1.71-0.68c-0.16-0.89,0.56-0.87,1.18-1.01c0.98-0.21,0.73-1.07,0.74-1.72
			c0.03-3.51,0.03-7.01,0-10.52c-0.01-0.72,0.29-1.7-0.99-1.72c-0.62-0.01-1-0.25-0.94-0.94c0.07-0.96,0.82-0.73,1.38-0.74
			C271.54,497.41,272.51,497.43,273.48,497.43z M272.97,502.42c0.42,1.06-1.06,3.25,1.92,3.04c2.64-0.18,3.59-0.95,3.56-3.39
			c-0.03-2.21-1.14-2.89-3.31-3.02C272.13,498.86,273.17,500.87,272.97,502.42z"/>
		<path class="st4" d="M328.94,509.35c0.56,1.31-1.12,3.46,1.52,4.21c0.3,0.08,0.26,0.94-0.22,1.05c-1.45,0.31-2.95,0.38-4.38-0.05
			c-0.42-0.13-0.49-0.76-0.08-1.09c3.25-2.65,0.71-6.19,1.44-9.23c0.03-0.11-0.13-0.31-0.26-0.4c-0.49-0.37-1.78-0.23-1.31-1.18
			c0.49-0.99,2.15-0.74,2.57-0.35c1.07,1,1.61,0.29,2.4-0.18c1.93-1.16,3.07,1.17,4.31,1.14c1.25-0.03,2.36-2.16,4.29-1.23
			c1.23,0.59,1.89,1.54,1.92,2.89c0.04,1.93-0.02,3.86,0.1,5.78c0.06,0.96-0.7,2.27,1.15,2.72c0.65,0.16,0.52,1.27-0.53,1.35
			c-1.05,0.08-2.11,0.08-3.16-0.02c-0.83-0.08-1.05-1.07-0.5-1.22c2.14-0.56,1.24-2.16,1.32-3.36c0.1-1.57,0.03-3.15-0.06-4.73
			c-0.06-0.99-0.31-1.93-1.58-2.06c-1.27-0.13-2.34,0.61-2.34,1.62c0,2.86-2.1,6.02,1.02,8.55c0.47,0.38,0.17,1.09-0.45,1.15
			c-1.22,0.11-2.46,0.13-3.67,0.01c-0.78-0.07-1.09-1.04-0.41-1.22c2.02-0.53,1.24-2.02,1.3-3.16c0.09-1.66-0.03-3.33-0.08-4.99
			c-0.03-0.93-0.24-1.77-1.34-1.95c-1.08-0.18-1.82,0.3-2.38,1.23C328.63,506.1,329.17,507.71,328.94,509.35z"/>
		<path class="st2" d="M127.23,506.93c0.05-3.38,2.28-5.91,5.12-5.8c2.64,0.11,4.82,2.77,4.86,5.9c0.04,3.2-2.3,5.9-5.1,5.87
			C129.24,512.89,127.18,510.37,127.23,506.93z"/>
		<path class="st4" d="M516,503.33c-0.58-1.8,1.01-3.87-1.59-4.66c-0.13-0.04-0.24-0.77-0.1-0.92c0.55-0.56,1.32-0.26,2-0.31
			c0.65-0.04,1.25,0.01,1.24,0.91c-0.01,0.87,0.01,1.75,0.01,2.62c0,3.32-0.03,6.65,0.02,9.97c0.01,0.93-0.52,2.23,1.21,2.36
			c0.39,0.03,0.55,0.38,0.48,0.78c-0.07,0.38-0.31,0.68-0.69,0.65c-0.89-0.08-2.1,0.58-2.58-0.52c-0.38-0.88-0.47-0.7-1.13-0.29
			c-2.9,1.76-5.5,0.73-6.42-2.51c-0.51-1.78-0.65-3.56-0.18-5.42C509.35,501.7,511.79,500.66,516,503.33z M515.91,508.48
			c-0.1-0.78-0.12-1.66-0.34-2.5c-0.37-1.4-0.95-2.69-2.75-2.64c-1.73,0.05-2.36,1.27-2.75,2.69c-0.42,1.55-0.36,3.13,0.03,4.67
			c0.36,1.43,1.07,2.65,2.79,2.63c1.73-0.01,2.37-1.28,2.76-2.68C515.84,509.99,515.83,509.27,515.91,508.48z"/>
		<path class="st2" d="M107.97,506.94c0.08-3.01,2.15-5.33,4.74-5.3c2.52,0.03,4.59,2.49,4.58,5.44c-0.01,2.97-2.41,5.72-4.85,5.57
			C110.09,512.5,107.9,509.7,107.97,506.94z"/>
		<path class="st2" d="M260.85,457.93c-1.61,0.95-3,2.25-4.92,2.73c-4.46,1.11-7.96-0.72-10.16-4.76
			c-1.77-3.26-3.19-6.62-4.42-10.09c0,0-0.01,0.02-0.01,0.03c1.35,0.72,2.05-0.74,3.12-0.94c0.65,2.85,2.41,5.18,3.54,7.78
			c1.43,3.31,3.69,5.13,7.11,5.75c0.87,0.01,1.73,0.01,2.6,0.02c0.56,0.08,1.09,0.05,1.55-0.32c0.54-0.05,1.08-0.11,1.62-0.16
			C260.89,457.97,260.85,457.93,260.85,457.93z"/>
		<path class="st3" d="M158.58,433.2c-3.62-3.15-5.94-7.25-8.05-11.43c-1.11-2.19-2.37-2.9-4.79-2.89
			c-15.98,0.13-31.97,0.08-47.95,0.1c-0.32-0.16-0.64-0.33-0.95-0.49c0.51-1.16,1.53-0.55,2.28-0.55
			c16.07-0.04,32.15-0.01,48.22-0.06c1.56,0,2.53,0.27,3.24,1.88c1.8,4.11,4.4,7.75,7.06,11.35
			C158.06,431.7,159.2,432.09,158.58,433.2z"/>
		<path class="st1" d="M396.09,497.46c4.99,0,6.36,0.86,6.78,4.26c0.45,3.67-1.41,5.78-5.09,5.91c-0.87,0.03-2.59-0.61-2.19,1.18
			c0.33,1.46-1.76,3.86,1.43,4.37c0.56,0.09,1.09,0.17,0.99,0.89c-0.1,0.7-0.7,0.67-1.22,0.68c-0.97,0.02-1.94,0.07-2.9-0.01
			c-0.7-0.06-1.74,0.48-2.02-0.62c-0.29-1.16,0.8-0.81,1.37-1.01c0.67-0.23,0.56-0.81,0.56-1.31c0.01-3.77,0.01-7.54,0.01-11.3
			c0-0.72,0.05-1.46-1.03-1.4c-0.61,0.03-1.01-0.2-0.97-0.9c0.06-0.98,0.83-0.7,1.38-0.73
			C394.16,497.42,395.13,497.46,396.09,497.46z M395.37,502.34c0.85,1.14-1.46,3.8,2.02,3.67c2.61-0.1,3.64-0.94,3.67-3.34
			c0.03-2.53-1.1-3.47-3.73-3.61C394.28,498.89,395.98,501.16,395.37,502.34z"/>
		<path class="st2" d="M375.87,475.04c-2.18,2.62-5.19,3.39-8.25,2.75c-3.02-0.64-4.72-3.02-5.5-6.07c-0.8-3.13-1.43-6.28-1.69-9.5
			c-0.53-1.6,0.95-1.78,1.73-1.95c1.23-0.28,0.87,0.97,1,1.65c0.1,0.51-0.06,1.08,0.1,1.56c0.95,2.95,0.53,6.41,3.25,8.7
			c0,0-0.02-0.02-0.02-0.02c-0.12,1.2,0.89,1.62,1.61,2.18C370.52,476.18,373.18,475.82,375.87,475.04z"/>
		<path class="st4" d="M239.74,512.57c0.1,0.48,0.05,0.89-0.55,0.93c-0.51,0.03-1.1,0.18-1.43-0.37c-0.27-0.44-0.55-0.93-0.63-1.43
			c-0.3-1.93-1.38-2.43-3.28-2.44c-1.91-0.01-2.97,0.52-3.29,2.42c-0.09,0.51-0.24,1.05-0.52,1.46c-0.32,0.48-0.93,0.46-1.45,0.35
			c-0.85-0.18-0.49-0.81-0.34-1.25c1.36-3.97,2.74-7.93,4.14-11.88c0.53-1.5,2-1.75,2.52-0.56
			C236.73,503.98,238.16,508.3,239.74,512.57z M232.02,507.34c3.71,0.33,3.71,0.33,2.58-2.9c-0.23-0.65-0.27-1.38-0.93-1.97
			C233.12,504.11,232.58,505.71,232.02,507.34z"/>
		<path class="st4" d="M240.92,506.44c0-1.14-0.03-2.27,0.01-3.41c0.13-4.3-1.1-3.79,4.75-3.78c3.83,0.01,5.38,1.46,5.2,4.63
			c-0.15,2.55-1.59,4.09-4.53,3.97c-2.71-0.11-3.78,0.66-3.39,3.41c0.1,0.73,0.73,2.17-0.89,2.22c-1.84,0.06-1.05-1.46-1.12-2.33
			C240.84,509.59,240.92,508.01,240.92,506.44z M244.99,505.88c1.89,0,3.75,0.2,3.78-2.28c0.03-2.27-1.63-2.22-3.27-2.35
			c-1.79-0.14-2.72,0.17-2.56,2.32C243.06,505.2,243.12,506.38,244.99,505.88z"/>
		<path class="st2" d="M473.53,427.91c-1.61,0.33-1.39-0.41-1.06-1.55c2.02-7.04,4.19-14.04,5.85-21.17
			c1.56-6.72,3.16-13.4,5.75-19.81c0.54-1.34,0.78-2.87,2.18-3.72c-2.49,7.55-4.38,15.26-6.27,22.98
			C478.06,412.45,475.7,420.16,473.53,427.91z"/>
		<path class="st3" d="M299.48,446.89c-3.15-2.94-2.75-6.64-1.69-10.13c2.66-8.75,4.23-17.79,7.43-26.34
			c-1.18-0.71-1.04,0.87-1.79,0.68c0,0-0.07,0.02-0.07,0.02c-0.36-0.89-1.2-0.47-1.82-0.66c-1.73-0.54-3.69-0.29-5.2-1.54
			c-4.12-3.41-8.36-3.32-12.71-0.46c-0.36,0-0.71,0-1.07,0c3.22-3.76,9.57-4.15,13.69-0.8c2.98,2.42,7.19,2.36,11.17-0.48
			c-2.61,6.7-4.5,13.28-6.04,19.95c-0.8,3.48-1.85,6.86-2.88,10.27c-0.81,2.68-0.48,5.34,0.57,7.93
			C299.27,445.83,300.07,446.19,299.48,446.89z"/>
		<path class="st2" d="M492.05,452.69c-0.19,0.28-0.32,0.63-0.57,0.83c-3.49,2.76-11.6,1.74-14.48-1.6
			c-1.69-1.95-3.3-4.07-5.74-5.22c2.66-2.63,3.23-2.64,5.5-0.2c1.24,1.33,2.49,2.66,3.8,3.91c1.02,0.97,2.25,1.71,3.68,1.82
			C486.84,452.44,489.45,452.54,492.05,452.69z"/>
		<path class="st2" d="M97.35,507.1c-0.02,2.73-2.07,5.11-4.33,5.05c-2.26-0.07-4.23-2.54-4.16-5.23c0.08-2.74,1.89-4.81,4.21-4.83
			C95.5,502.07,97.37,504.26,97.35,507.1z"/>
		<path class="st4" d="M491.21,514.78c-1.49,0-2.99,0-4.48,0c-0.59,0-1.03-0.16-1.03-0.86c0-0.55,0.33-0.79,0.83-0.76
			c1.59,0.09,1.3-1.05,1.31-1.97c0.01-3.16,0.04-6.32-0.01-9.47c-0.02-1.15,0.66-2.84-1.65-2.66c-0.37,0.03-0.47-0.43-0.48-0.79
			c-0.02-0.55,0.25-0.8,0.77-0.81c1.58-0.01,3.16-0.01,4.75,0c0.47,0,0.84,0.15,0.87,0.72c0.03,0.67-0.29,1-0.93,0.93
			c-1.4-0.14-1.54,0.67-1.53,1.78c0.04,3.42,0.11,6.85-0.02,10.26c-0.09,2.28,1.45,1.78,2.64,1.71c1.17-0.07,3.05,0.88,2.92-1.68
			c-0.03-0.69-0.64-2.05,0.83-2c1.37,0.05,0.78,1.36,0.78,2.1c0.01,4.19,0.42,3.43-3.44,3.51
			C492.62,514.79,491.91,514.78,491.21,514.78z"/>
		<path class="st4" d="M529.69,514.82c-1.4-2.09-3.08,0.12-4.8,0.08c-1.82-0.04-3.02-0.93-3.33-2.73c-0.32-1.93-0.05-3.75,2.06-4.59
			c0.8-0.32,1.71-0.32,2.56-0.52c0.74-0.18,1.96,0.54,2.08-0.86c0.09-1.16-0.16-2.36-1.5-2.75c-1.05-0.31-2.16-0.27-2.76,0.88
			c-0.39,0.75-0.62,2.1-1.65,1.32c-0.96-0.72-0.21-1.94,0.52-2.72c1.2-1.3,2.76-1.48,4.37-1.01c1.45,0.43,2.47,1.39,2.56,2.99
			c0.1,1.75,0.01,3.51,0.16,5.24c0.1,1.2-0.85,2.91,1.37,3.31c0.43,0.08,0.29,0.62,0.15,0.9
			C531.17,514.92,530.57,514.74,529.69,514.82z M526.44,508.57c-1.88-0.06-3.19,0.53-3.21,2.56c-0.01,1.23,0.51,2.19,1.96,2.24
			c1.63,0.06,3.13-1.89,3.07-3.83C528.21,507.96,527.02,508.84,526.44,508.57z"/>
		<path class="st4" d="M353.28,508.84c0.71,1.49-1.25,3.83,1.59,4.73c0.34,0.11,0.14,1-0.24,1.08c-0.9,0.17-2.28,0.61-2.65-0.29
			c-0.58-1.41-0.8-0.62-1.43-0.17c-1.23,0.9-2.6,1.01-3.96,0.25c-1.53-0.85-1.76-2.32-1.63-3.86c0.12-1.52,0.83-2.68,2.4-3.09
			c0.76-0.2,1.56-0.25,2.32-0.44c0.72-0.18,1.91,0.61,2.06-0.86c0.11-1.11-0.14-2.2-1.24-2.66c-0.98-0.41-2.08-0.48-2.86,0.55
			c-0.26,0.35-0.45,0.75-0.62,1.15c-0.28,0.63-0.84,0.71-1.31,0.48c-0.59-0.3-0.37-0.9-0.18-1.4c0.72-1.88,2.13-2.73,4.11-2.58
			c1.94,0.15,3.39,1.05,3.63,3.12C353.4,506.14,353.28,507.47,353.28,508.84z M350,508.58c-1.76-0.07-3.19,0.29-3.2,2.46
			c-0.01,1.25,0.3,2.27,1.84,2.33c1.61,0.06,2.99-1.66,3.08-3.6C351.79,508.29,350.83,508.61,350,508.58z"/>
		<path class="st4" d="M465.18,508.75c0.65,1.52-1.3,3.98,1.65,4.89c0.04,0.01,0,0.8-0.17,0.89c-0.89,0.44-2.31,0.63-2.65-0.04
			c-0.73-1.43-1.09-0.52-1.76-0.13c-1.91,1.11-4.1,0.52-4.96-1.26c-1.04-2.15-0.22-4.78,1.81-5.54c0.81-0.3,1.71-0.31,2.56-0.52
			c0.72-0.17,1.94,0.58,1.97-0.94c0.02-0.97-0.06-2.03-1.06-2.52c-0.98-0.48-2.06-0.53-2.89,0.38c-0.28,0.31-0.44,0.75-0.61,1.14
			c-0.25,0.58-0.68,0.8-1.26,0.61c-0.71-0.23-0.54-0.79-0.37-1.29c0.63-1.92,2.01-2.82,3.99-2.71c1.91,0.1,3.46,0.87,3.72,2.98
			C465.31,505.99,465.18,507.32,465.18,508.75z M458.72,511.04c0.07,1.12,0.23,2.23,1.77,2.33c1.65,0.11,2.93-1.47,3.1-3.5
			c0.11-1.41-0.68-1.28-1.59-1.31C460.26,508.52,458.83,508.83,458.72,511.04z"/>
		<path class="st4" d="M443.83,507.74c0,1.23-0.02,2.46,0.01,3.68c0.01,0.51,0.04,1.07,0.25,1.51c0.28,0.58,2.01,0.17,1.27,1.36
			c-0.6,0.97-2.18,0.8-2.83,0.23c-0.8-0.7-1.1-0.45-1.83-0.1c-2.48,1.19-4.61,0.07-4.97-2.68c-0.23-1.73-0.03-3.5-0.15-5.25
			c-0.08-1.15,0.74-2.75-1.3-3.16c-0.12-0.02-0.12-0.6-0.18-0.92c0.68-0.08,1.37-0.17,2.05-0.24c0.77-0.08,1.13,0.25,1.12,1.04
			c-0.02,1.75-0.04,3.51,0.01,5.26c0.03,1.04,0.12,2.09,0.3,3.12c0.15,0.9,0.54,1.68,1.65,1.74c0.99,0.06,1.65-0.41,2.18-1.2
			c1.24-1.87,0.8-7.06-0.71-8.76c-0.19-0.21-0.34-0.79-0.24-0.89c0.66-0.57,1.5-0.26,2.27-0.32c0.77-0.06,1.12,0.33,1.11,1.09
			C443.82,504.76,443.83,506.25,443.83,507.74z"/>
		<path class="st4" d="M289.76,508.86c-0.26,0-0.54-0.06-0.79,0.01c-0.91,0.25-2.34-0.69-2.68,0.73c-0.31,1.33,0.33,2.65,1.56,3.37
			c1.15,0.68,2.36,0.56,3.38-0.41c0.06-0.06,0.11-0.13,0.18-0.19c0.63-0.51,0.7-2.38,1.89-1.33c0.76,0.67-0.26,1.9-1,2.64
			c-2.1,2.08-5.84,1.53-7.15-1.15c-1.29-2.65-1.27-5.44-0.01-8.11c1.05-2.24,3.38-3.19,5.46-2.41c2,0.75,3.74,4.11,3.21,6.07
			c-0.18,0.67-0.59,0.78-1.15,0.78C291.69,508.85,290.73,508.85,289.76,508.86z M288.91,507.59c0.98-0.66,2.82,0.77,2.98-1
			c0.14-1.5-0.6-3.22-2.67-3.25c-2.02-0.04-2.85,1.43-2.87,3.09C286.33,508.45,288.12,506.93,288.91,507.59z"/>
		<path class="st4" d="M379.77,508.86c-0.35,0-0.72-0.08-1.05,0.01c-0.9,0.26-2.45-0.72-2.63,0.75c-0.16,1.34,0.49,2.83,1.91,3.48
			c1.19,0.54,2.37,0.35,3.35-0.71c0.54-0.59,0.62-2.43,1.84-1.36c0.89,0.77-0.24,1.93-0.95,2.65c-2.15,2.16-6.07,1.45-7.29-1.37
			c-1.05-2.42-1.06-4.95-0.1-7.42c0.94-2.41,3.26-3.66,5.42-2.99c2.23,0.68,4.05,3.91,3.51,6.14c-0.16,0.68-0.57,0.8-1.12,0.81
			C381.7,508.86,380.73,508.85,379.77,508.86C379.77,508.85,379.77,508.85,379.77,508.86z M378.84,507.64
			c0.84-0.93,2.88,1.09,2.91-1.33c0.02-1.55-0.73-2.92-2.59-2.97c-2.19-0.07-2.92,1.71-2.95,3.27
			C376.18,508.49,378,506.88,378.84,507.64z"/>
		<path class="st4" d="M254.83,511.59c1.69,0,3.13,0,4.58,0c0.56,0,1.05,0.1,1.07,0.83c0.03,0.77-0.33,1.11-1.09,1.11
			c-2.11-0.01-4.22-0.03-6.33,0.01c-1.17,0.02-1.35-0.53-1.01-1.48c0.54-1.54,1.64-2.67,2.8-3.76c1.15-1.08,2.44-2.07,3.17-3.49
			c0.64-1.24,0.84-2.66-0.63-3.46c-1.39-0.75-2.62-0.2-3.16,1.29c-0.27,0.74-0.42,1.38-1.36,1.03c-1.15-0.43-0.58-1.36-0.36-1.99
			c0.67-1.98,3.12-2.98,5.25-2.25c2.21,0.76,3.27,2.99,2.48,5.33c-0.43,1.27-1.34,2.23-2.24,3.2
			C257.02,509.04,255.69,509.81,254.83,511.59z"/>
		<path class="st4" d="M357.4,512.51c0.19-0.64-0.46-1.7,0.46-2.04c0.95-0.35,0.94,0.75,1.23,1.32c0.64,1.26,1.68,1.8,3.04,1.46
			c1.08-0.27,1.6-1.15,1.52-2.18c-0.11-1.42-1.23-1.73-2.44-1.92c-1.95-0.31-3.56-1.04-3.7-3.37c-0.12-1.93,0.77-3.14,2.51-3.88
			c1.75-0.75,3.23,0.7,4.98,0.56c0.66-0.05,0.22,1.84,0.33,2.84c0.05,0.48-0.19,0.86-0.75,0.83c-0.91-0.06-0.67-0.85-0.88-1.37
			c-0.52-1.27-1.57-1.55-2.81-1.38c-1.04,0.14-1.53,0.89-1.62,1.81c-0.14,1.37,0.9,1.74,1.97,2.01c0.59,0.15,1.2,0.26,1.78,0.45
			c1.99,0.69,2.94,2.68,2.27,4.66c-0.71,2.07-2.83,3.05-4.89,2.34c-0.62-0.21-1.12-1.49-2.07-0.09
			C357.93,515.16,357.41,514.71,357.4,512.51z"/>
		<path class="st4" d="M469.26,512.76c0.24-0.87-0.39-1.95,0.5-2.27c1.12-0.41,1.05,0.81,1.38,1.45c0.6,1.16,1.59,1.6,2.85,1.34
			c1.1-0.23,1.58-1.05,1.58-2.11c0-1.49-1.07-1.81-2.28-2c-2.06-0.31-3.73-1.1-3.84-3.52c-0.09-1.79,0.81-2.92,2.4-3.69
			c1.85-0.88,3.41,1.03,5.2,0.41c0.07,0.94,0.15,1.88,0.2,2.83c0.03,0.47-0.09,0.94-0.66,0.88c-0.27-0.03-0.59-0.33-0.74-0.59
			c-0.22-0.37-0.22-0.86-0.45-1.21c-0.69-1.04-1.75-1.08-2.82-0.83c-0.87,0.21-1.28,0.94-1.35,1.76c-0.1,1.19,0.69,1.69,1.74,1.9
			c2.57,0.52,4.84,1.3,4.32,4.68c-0.33,2.13-2.32,3.5-4.41,3.04c-0.9-0.2-1.46-1.22-2.87-0.3
			C469.04,515.15,469.82,513.21,469.26,512.76z"/>
		<path class="st2" d="M338.54,449.6c-1.3,0.09-2.07-0.84-2.89-1.59c-2.95-2.69-5.08-5.97-6.7-9.6c0,0-0.02,0.06-0.02,0.06
			c0.42,0.1,0.52-0.18,0.6-0.5c0.45-0.91,0.89-1.82,1.33-2.73c1.2,1.35,1.22,3.68,3.42,4.26c0,0,0.01,0.01,0.01,0.01
			c0.28,2.43,1.55,4.16,3.72,5.26c0,0-0.03-0.03-0.03-0.03c0.28,1.12,1.24,1.55,2.1,2.08c0.29,0.33,0.55,0.73,1.1,0.58
			c0,0-0.02-0.03-0.02-0.03c-0.09,0.38-0.67,0.75-0.02,1.14c0,0,0.01-0.01,0.01-0.01c-1.31-0.65-1.91,0.4-2.67,1.09L338.54,449.6z"
			/>
		<path class="st2" d="M69.83,507.08c-0.01-2.51,1.62-4.56,3.68-4.63c2.08-0.08,3.77,1.91,3.82,4.48c0.06,2.66-1.66,4.81-3.8,4.77
			C71.48,511.66,69.84,509.62,69.83,507.08z"/>
		<path class="st4" d="M304.17,508.27c-0.12-1.34,0.1-2.54,0.65-3.66c0.99-1.99,2.58-3.11,4.84-2.87c2.17,0.24,3.41,1.71,3.95,3.7
			c0.48,1.78,0.54,3.64,0.05,5.44c-0.59,2.19-1.81,3.8-4.27,3.98c-2.47,0.18-3.87-1.19-4.72-3.36
			C304.25,510.43,304.09,509.33,304.17,508.27z M312.09,508.01c-0.02-0.37,0-0.99-0.11-1.58c-0.27-1.53-0.8-2.92-2.65-3.07
			c-1.99-0.16-2.76,1.17-3.19,2.8c-0.18,0.66-0.24,1.37-0.25,2.06c-0.04,3.12,1.3,5.2,3.24,5.12
			C311.01,513.26,312.09,511.4,312.09,508.01z"/>
		<path class="st3" d="M466.73,449.01c-1.6-0.16-2.85,0.76-4.17,1.42c-5.17,2.57-10.78,3.58-16.39,4.32
			c-5.18,0.69-10.36,1.71-15.65,1.17c-2.02-0.21-4-0.44-5.94-1.06c-2.16-0.69-4.25-1.57-6.59-1.66c-0.94-0.04-2.09-0.35-2.42-1.6
			c2.39,0.55,4.89,0.84,7.17,1.69c7.2,2.69,14.46,1.58,21.77,0.77c7.99-0.89,15.45-3.46,22.8-6.51c0.34,0.14,0.68,0.28,1.02,0.41
			l-0.01-0.01c-0.23,0.53-0.55,0.94-1.2,0.96c-0.13,0.04-0.27,0.07-0.4,0.11C466.71,449.04,466.73,449.01,466.73,449.01z"/>
		<path class="st3" d="M473.53,427.91c2.16-7.75,4.52-15.46,6.44-23.27c1.89-7.72,3.78-15.43,6.27-22.98
			c0.2-1.21,0.54-2.3,2.12-2.16c-5.26,12.43-7.03,25.86-11.14,38.62c-1.01,3.15-1.86,6.35-2.6,9.57c-0.32,1.4-1.09,1.35-2.1,1.21
			C472.54,428.25,473.93,428.97,473.53,427.91z"/>
		<path class="st2" d="M283.64,408.46c4.35-2.85,8.59-2.95,12.71,0.46c1.51,1.25,3.47,1,5.2,1.54c0.62,0.19,1.46-0.23,1.82,0.66
			c-0.09,0.17-0.18,0.34-0.27,0.52c0,0,0.04-0.04,0.04-0.04c-4.04,1.74-7.61,1.47-11.17-1.56c-1.6-1.37-4.19-1.55-6.5-1.36
			C284.85,408.73,284.15,409.4,283.64,408.46z"/>
		<path class="st2" d="M57.58,507.07c0.01,2.22-1.67,4.14-3.59,4.1c-1.92-0.04-3.51-2-3.44-4.24c0.06-2.04,1.74-4.01,3.45-4.04
			C55.81,502.84,57.58,504.91,57.58,507.07z"/>
		<path class="st4" d="M298.73,514.78c-0.61,0-1.23,0-1.84-0.01c-0.5-0.01-0.83-0.26-0.86-0.78c-0.02-0.4,0.19-0.72,0.59-0.71
			c1.41,0.04,1.16-0.96,1.17-1.8c0.01-2.02,0-4.03,0-6.05c0-0.18-0.07-0.39,0.01-0.52c0.99-1.81-3.27-1.2-1.47-2.42
			c1.3-0.88,1.4-1.58,1.54-2.7c0.19-1.49,1.06-2.38,2.53-2.62c0.84-0.14,1.96-0.4,2.22,0.72c0.31,1.37-0.91,0.84-1.57,0.96
			c-1.17,0.21-1.49,1.01-1.6,2.08c-0.12,1.17,0.5,1.31,1.41,1.25c0.53-0.04,0.85,0.22,0.78,0.77c-0.05,0.35-0.26,0.69-0.69,0.65
			c-1.65-0.18-1.54,0.9-1.52,2c0.03,2.02-0.02,4.03,0.03,6.05c0.01,0.61-0.34,1.51,0.82,1.58c0.58,0.04,1.37-0.12,1.24,0.86
			c-0.12,0.88-0.89,0.65-1.46,0.69C299.61,514.8,299.17,514.78,298.73,514.78z"/>
		<path class="st4" d="M427.03,508.52c0-1.14,0-2.27,0-3.41c0-0.71,0.05-1.31-0.93-1.56c-1.23-0.32-1.58-1.03-0.01-1.34
			c1.26-0.25,0.88-1.09,0.93-1.79c0.05-0.77,0.52-1.16,1.15-1.15c0.8,0,0.55,0.77,0.51,1.18c-0.15,1.38,0.37,1.91,1.76,1.75
			c0.52-0.06,1.39-0.25,1.33,0.72c-0.04,0.68-0.73,0.72-1.23,0.64c-1.87-0.29-1.9,0.84-1.86,2.2c0.07,1.92,0.01,3.84,0.02,5.77
			c0,0.69-0.08,1.53,0.81,1.71c0.96,0.19,1.07-0.66,1.25-1.33c0.12-0.45,0-1.22,0.82-0.95c0.64,0.21,0.43,0.86,0.41,1.36
			c-0.06,1.39-0.66,2.36-2.13,2.53c-1.57,0.18-2.58-0.61-2.74-2.14c-0.15-1.38-0.03-2.79-0.03-4.19
			C427.08,508.53,427.05,508.52,427.03,508.52z"/>
		<path class="st4" d="M319.14,514.76c-0.79,0-1.41,0.04-2.02-0.01c-0.84-0.06-1.15-1.02-0.66-1.18c2.57-0.85,1.17-2.87,1.42-4.35
			c0.21-1.28,0.07-2.62,0.03-3.94c-0.01-0.5-0.02-1.12-0.31-1.45c-0.38-0.45-1.67-0.25-1.21-1.26c0.38-0.83,1.64-0.62,2.12-0.33
			c1.29,0.78,2.29,0.28,3.42-0.2c0.45-0.2,1.08-0.35,1.25,0.42c0.12,0.52,0.15,1.14-0.57,1.22c-2.86,0.3-2.69,2.58-2.94,4.52
			c-0.15,1.12-0.05,2.28-0.02,3.41c0.01,0.49-0.15,1.04,0.36,1.44c0.51,0.41,1.99-0.21,1.53,1.12
			C321.11,515.37,319.81,514.51,319.14,514.76z"/>
		<path class="st4" d="M502.1,499.1c-0.06,1.87-0.07,3.61,2.48,3.12c0.37-0.07,0.65,0.21,0.62,0.64c-0.04,0.56-0.46,0.76-0.91,0.69
			c-2.42-0.34-2.14,1.29-2.11,2.79c0.03,1.75-0.01,3.5,0.03,5.25c0.02,0.68,0.02,1.54,0.91,1.66c1,0.13,1.02-0.71,1.09-1.42
			c0.05-0.57,0.24-1.09,0.94-0.91c0.69,0.18,0.57,0.8,0.46,1.3c-0.32,1.44-0.82,2.73-2.67,2.65c-1.68-0.07-2.3-1.15-2.36-2.6
			c-0.09-2.1-0.02-4.2-0.07-6.3c-0.02-1.04,0.48-2.38-1.34-2.52c-0.38-0.03-0.42-0.82-0.39-0.82
			C501.1,502.63,499.87,499.58,502.1,499.1z"/>
		<path class="st4" d="M514.24,403.76c1.15,2.44,0.61,4.89,0.09,7.35c0-1.26,0-2.53,0-4.32c-2.12,4.1-3.35,7.93-4.76,11.69
			c-0.04,0.52-0.86,0.97-0.15,1.56c0,0,0.02-0.07,0.02-0.07c-2.36,2.93-3.2,6.56-4.54,9.95c-0.57,1.45-1,2.96-1.77,4.33
			c-0.15-0.16-0.29-0.33-0.44-0.49c0.58-3.35,2.04-6.41,3.24-9.55c2.01-5.28,4.62-10.32,6.2-15.77c0.28-0.97,1.03-1.8,1.56-2.69
			c0.14-0.02,0.27-0.04,0.41-0.06c-0.13-0.13-0.27-0.27-0.4-0.4C513.88,404.79,514.06,404.27,514.24,403.76z"/>
		<path class="st4" d="M450.21,514.75c-0.61,0-1.24,0.06-1.84-0.02c-0.69-0.09-0.92-0.85-0.54-1.14c3.36-2.57,0.58-6.09,1.47-9.02
			c0.06-0.21-0.03-0.57-0.19-0.72c-0.47-0.44-1.96-0.25-1.18-1.4c0.46-0.68,2.18-0.55,2.41-0.18c1.02,1.62,1.61,0.26,2.43-0.06
			c0.55-0.21,1.4-0.83,1.8,0.15c0.42,1.02-0.2,1.32-1.18,1.43c-1.68,0.18-2,1.62-2.15,2.9c-0.21,1.82-0.19,3.66-0.25,5.49
			c-0.01,0.43,0.04,0.86,0.61,1c0.58,0.14,1.67-0.24,1.4,0.94c-0.25,1.11-1.3,0.51-2,0.65c-0.25,0.05-0.52,0.01-0.79,0.01
			C450.21,514.77,450.21,514.76,450.21,514.75z"/>
		<path class="st4" d="M416.1,503.3c0.85-1.56,2.21-1.9,3.77-1.37c1.53,0.51,2.09,1.76,2.11,3.29c0.02,2.01,0.01,4.02,0.06,6.03
			c0.01,0.59-0.24,1.27,0.29,1.74c0.52,0.45,2.06,0.24,1.02,1.6c-0.37,0.48-4.29,0.22-4.5-0.23c-0.14-0.3-0.21-0.64,0.12-0.94
			c2.99-2.7,1.19-6.02,0.89-9c-0.17-1.62-1.99-1.2-3.26-0.58C416.43,503.66,416.26,503.48,416.1,503.3z"/>
		<path class="st1" d="M416.1,503.3c0.17,0.18,0.33,0.36,0.5,0.54c-1.73,2.65-0.76,5.63-1,8.46c-0.01,0.17,0.04,0.34,0.07,0.51
			c0.15,0.76,2.63,0.41,1.1,1.65c-0.86,0.7-2.7,0.35-4.07,0.18c-0.55-0.07-0.85-1.19,0.04-1.28c1.59-0.17,1.18-1.21,1.19-2.07
			c0.03-1.93,0.02-3.86,0.01-5.78c0-0.52,0.01-1.07-0.13-1.56c-0.19-0.67-2.32-0.41-1.17-1.49
			C413.52,501.63,415.21,501.89,416.1,503.3z"/>
		<path class="st3" d="M492.05,452.69c-2.6-0.15-5.21-0.25-7.81-0.46c-1.44-0.12-2.66-0.85-3.68-1.82c-1.32-1.25-2.57-2.58-3.8-3.91
			c-2.28-2.45-2.85-2.44-5.5,0.2c-0.95,0.49-1.8,1.22-2.94,1.28c0,0,0.01,0.01,0.01,0.01c-0.02-0.25-0.04-0.5-0.05-0.76
			c0.18-0.1,0.37-0.21,0.55-0.31c0.54-0.05,0.96-0.24,1.07-0.84c1.18-0.73,2.4-1.41,3.55-2.19c0.87-0.6,1.54-0.49,2.27,0.23
			c1.48,1.48,3.16,2.79,4.46,4.4c1.56,1.93,3.42,2.9,5.87,2.95c2.02,0.04,4.03,0.17,6.05,0.26
			C492.06,452.04,492.05,452.37,492.05,452.69z"/>
		<path class="st1" d="M407.84,514.78c-0.78-0.26-1.93,0.5-2.33-0.62c-0.41-1.15,0.96-0.65,1.27-1.09c0.27-0.38,0.28-0.98,0.29-1.49
			c0.03-2.1,0.03-4.21,0-6.31c-0.01-0.5-0.01-1.08-0.26-1.48c-0.31-0.48-1.71-0.16-1.23-1.22c0.37-0.8,1.42-0.33,2.16-0.36
			c1.33-0.05,0.92,1.02,0.93,1.7c0.04,2.37-0.03,4.73,0.04,7.1c0.03,0.89-0.6,2.23,1.19,2.32c0.35,0.02,0.47,0.53,0.3,0.86
			C409.63,515.26,408.61,514.52,407.84,514.78z"/>
		<path class="st3" d="M366.5,472.18c-2.72-2.29-2.29-5.75-3.25-8.7c-0.16-0.48,0-1.05-0.1-1.56c-0.13-0.67,0.22-1.92-1-1.65
			c-0.78,0.18-2.26,0.35-1.73,1.95c-1.69-0.22-3.12,2.07-4.96,0.52c2.65-1.46,5.3-2.91,8.36-4.59
			C363.78,463.31,365.23,467.72,366.5,472.18z"/>
		<path class="st4" d="M545.86,454.23c-0.1-0.83,0.3-1.93-1.1-2.07c1.44-0.91,0.29-1.82-0.06-2.66c-2.68-6.43-5.75-12.75-4.88-20.06
			c-0.21,7.33,3.02,13.6,5.99,19.97C546.53,450.93,546.75,452.62,545.86,454.23z"/>
		<path class="st3" d="M255.12,458.43c-3.42-0.62-5.68-2.44-7.11-5.75c-1.13-2.6-2.89-4.94-3.54-7.78c0.66-0.83-0.29-0.44-0.48-0.63
			c0.88-0.94,1.44-0.93,1.59,0.5c0.41,3.68,2.72,6.57,4.47,9.58c1.96,3.35,5.61,3.73,9.26,3.16c-0.02,0.21-0.04,0.42-0.05,0.63
			c-0.46,0.37-0.99,0.4-1.55,0.32C256.86,457.86,255.99,457.86,255.12,458.43z"/>
		<path class="st3" d="M538.51,461.13c-3.55-0.35-7.07-0.94-10.42-2.14c-1.7-0.61-3.83-1.13-3.8-3.67
			c4.82,3.92,10.25,5.31,16.35,3.93c0.05,0.61,0.59,1.46-0.7,1.4c-0.5,0.14-1.12-0.09-1.46,0.51L538.51,461.13z"/>
		<path class="st4" d="M542.21,412.66c1.06-5.29,2.48-10.48,4.6-15.46C546.07,402.59,543.95,407.57,542.21,412.66z"/>
		<path class="st4" d="M329.53,432.76c0.11,0.5,0.22,1,0.33,1.5c-0.27,1.07-0.54,2.13-0.81,3.2c-0.12,0.33-0.64,0.62-0.12,1.02
			c0,0,0.02-0.06,0.02-0.06c-1.67,1.63-1.97,4.01-3.23,5.87c-0.12,0.02-0.25,0.02-0.37,0.02c-0.06-3.45,2.23-6.08,3.24-9.16
			C328.85,434.33,329.22,433.55,329.53,432.76z"/>
		<path class="st4" d="M386.22,444.38c-0.22,3.05-1.21,5.93-2.35,9.11C383.44,450.3,383.61,449.63,386.22,444.38z"/>
		<path class="st3" d="M313.17,455.81c-5.01,0.18-7.17-0.9-8.43-4.2c0.07-0.05,0.2-0.14,0.21-0.14c3.42,4.41,8.27,3.62,12.92,3.53
			C316.44,456.07,314.62,454.83,313.17,455.81z"/>
		<path class="st4" d="M540.18,427.28c1.28-3.1-0.8-6.46,0.82-9.2C540.51,420.93,541.79,424.22,540.18,427.28z"/>
		<path class="st4" d="M383.08,454.93c-0.31,2.35,0.26,4.86-1.27,7.26C381.13,459.35,382.92,457.27,383.08,454.93z"/>
		<path class="st3" d="M375.87,475.04c-2.69,0.78-5.35,1.14-7.77-0.71c-0.72-0.55-1.73-0.97-1.61-2.18
			c0.86-0.52,1.01,0.42,1.34,0.75c2.22,2.26,4.88,1.93,7.59,1.42C375.57,474.56,375.72,474.8,375.87,475.04z"/>
		<path class="st4" d="M536.76,513.28c0.05,0.92-0.13,1.5-1.1,1.49c-0.89,0-0.92-0.58-0.94-1.21c-0.02-0.74,0.01-1.39,1.06-1.32
			C536.57,512.3,536.86,512.68,536.76,513.28z"/>
		<path class="st4" d="M471,382.09c0.16-0.34,0.31-0.67,0.47-1.01c1.02,1.89,1.24,3.91,0.99,6.53
			C471.06,385.7,472.41,383.49,471,382.09z"/>
		<path class="st5" d="M547.2,389.46c0.28,1.55,0.61,2.74-0.54,4.27C546.44,392.06,545.98,390.85,547.2,389.46z"/>
		<path class="st5" d="M471.99,392.69c-0.17-0.01-0.35-0.02-0.52-0.04c0-0.09-0.01-0.18,0-0.26c0.1-0.9-0.36-2.01,0.91-2.45
			c0.15-0.05,0.54,0.12,0.59,0.28C473.36,391.3,472.7,392.01,471.99,392.69z"/>
		<path class="st5" d="M526.55,412.11c-0.04-1.83-0.49-3.69,0.28-5.49C526.76,408.46,527.26,410.32,526.55,412.11z"/>
		<path class="st5" d="M496.36,444.28c-1.69,0.9-3.4,0.48-5.11,0.06C492.96,444.32,494.66,444.3,496.36,444.28z"/>
		<path class="st5" d="M503.91,378.9c1.54-0.67,3.07-0.58,4.59,0.03C506.97,378.92,505.44,378.91,503.91,378.9z"/>
		<path class="st5" d="M525.43,424.25c-0.03-1.5-0.21-3,0.35-4.45C525.68,421.28,526.25,422.82,525.43,424.25z"/>
		<path class="st5" d="M476.68,435.83c0.87-0.66,1.89-0.37,2.88-0.67c-0.04,1.02-0.62,1.14-1.19,1.26
			C477.96,435.77,477.29,435.89,476.68,435.83z"/>
		<path class="st2" d="M261.98,457.48c0.3-0.83,1.1-1.03,1.85-1.3c-0.3,0.85-0.81,1.42-1.89,1.25
			C261.94,457.44,261.98,457.48,261.98,457.48z"/>
		<path class="st5" d="M430.86,413.19c1.22,0.05,2.43,0.1,3.65,0.15C433.27,413.89,432.04,414.09,430.86,413.19z"/>
		<path class="st5" d="M414.08,423.72c0.17-1.12-0.17-2.3,0.35-3.39C414.36,421.47,414.84,422.66,414.08,423.72z"/>
		<path class="st5" d="M453.03,437.58c1.16-0.07,2.33-0.22,3.43,0.34C455.31,437.84,454.11,438.31,453.03,437.58z"/>
		<path class="st5" d="M545.9,384.72c0.17,0.07,0.34,0.09,0.51,0.05c0.1,0.39,0.2,0.78,0.27,1.18c0,0.02-0.31,0.16-0.4,0.11
			C545.72,385.76,545.95,385.19,545.9,384.72z"/>
		<path class="st5" d="M460.63,437.92c0.92-0.54,1.91-0.42,2.9-0.35C462.64,438.28,461.61,437.85,460.63,437.92z"/>
		<path class="st5" d="M463.94,381.02c0.95-0.77,1.87-0.29,2.8,0.04C465.81,381.05,464.88,381.03,463.94,381.02z"/>
		<path class="st5" d="M523.7,391.99c-0.69,0-1.38,0-2.06,0.01C522.32,391.44,523.01,391.44,523.7,391.99z"/>
		<path class="st5" d="M429.23,445.74c-0.8-0.02-1.65,0.32-2.36-0.34C427.67,445.42,428.52,445.1,429.23,445.74z"/>
		<path class="st2" d="M184.05,460.71c0.95,0.02,1.46,0.35,1.33,0.9c-0.23,0.97-0.58,0.06-0.81-0.08
			C184.38,461.42,184.3,461.12,184.05,460.71z"/>
		<path class="st5" d="M528.09,397.91c0-0.69-0.01-1.38-0.01-2.06C528.64,396.53,528.64,397.22,528.09,397.91z"/>
		<path class="st5" d="M467.65,437.39c0.51-0.38,1.08-0.41,1.68-0.32C468.85,437.55,468.24,437.43,467.65,437.39z"/>
		<path class="st5" d="M433.45,447.33c-0.61-0.01-1.27,0.21-1.78-0.34C432.29,446.95,432.94,446.78,433.45,447.33z"/>
		<path class="st5" d="M446.94,447.51c-0.71,0.59-1.42,0.54-2.13,0C445.52,447.51,446.23,447.51,446.94,447.51z"/>
		<path class="st2" d="M538.48,461.16c0.34-0.6,0.96-0.37,1.46-0.51C539.6,461.27,539.05,461.25,538.48,461.16z"/>
		<path class="st5" d="M450.54,446.98c-0.52,0.41-1.12,0.41-1.73,0.31C449.31,446.8,449.93,446.94,450.54,446.98z"/>
		<path class="st2" d="M260.89,457.97c0.22-0.48,0.65-0.5,1.1-0.49c0,0-0.04-0.04-0.04-0.04c-0.12,0.7-0.64,0.52-1.09,0.5
			C260.85,457.93,260.89,457.97,260.89,457.97z"/>
		<path class="st5" d="M529.29,376.26c0.36-0.38,0.8-0.39,1.27-0.31C530.21,376.34,529.75,376.32,529.29,376.26z"/>
		<path class="st5" d="M453.75,446.46c-0.36,0.33-0.79,0.38-1.25,0.3C452.85,446.38,453.3,446.41,453.75,446.46z"/>
		<path class="st5" d="M470.45,441.14c-0.28,0.32-0.64,0.45-1.06,0.37C469.74,441.39,470.09,441.26,470.45,441.14z"/>
		<path class="st5" d="M528.43,440.16c-0.36-0.3-0.42-0.69-0.35-1.12C528.2,439.41,528.31,439.79,528.43,440.16z"/>
		<path class="st5" d="M485.13,438.16c-0.39-0.34-0.42-0.76-0.31-1.23C485.2,437.27,485.19,437.71,485.13,438.16z"/>
		<path class="st5" d="M470.9,436.89c0.36-0.11,0.72-0.22,1.08-0.34C471.61,436.66,471.26,436.78,470.9,436.89z"/>
		<path class="st5" d="M474.44,436.32c0.41-0.11,0.82-0.22,1.24-0.33C475.34,436.39,474.9,436.38,474.44,436.32z"/>
		<path class="st5" d="M445.63,436.51c0.44-0.08,0.85-0.09,1.11,0.37C446.37,436.76,446,436.63,445.63,436.51z"/>
		<path class="st5" d="M441.42,436.02c0.48-0.08,0.94-0.07,1.31,0.31C442.26,436.36,441.79,436.41,441.42,436.02z"/>
		<path class="st5" d="M462.05,381.62c0.25-0.29,0.55-0.5,0.97-0.41C462.69,381.34,462.37,381.48,462.05,381.62z"/>
		<path class="st5" d="M469.38,381.22c0.41-0.1,0.71,0.02,0.88,0.42C469.97,381.5,469.68,381.36,469.38,381.22z"/>
		<path class="st5" d="M460.42,382.13c0.33-0.12,0.67-0.24,1-0.36C461.09,381.89,460.75,382.01,460.42,382.13z"/>
		<path class="st5" d="M460.08,391.68c-0.35,0.36-0.78,0.4-1.24,0.3C459.18,391.6,459.62,391.62,460.08,391.68z"/>
		<path class="st5" d="M494.87,397.9c-0.09-0.43-0.03-0.83,0.3-1.15C495.07,397.13,494.97,397.52,494.87,397.9z"/>
		<path class="st5" d="M527.55,400.54c0.11-0.39,0.23-0.77,0.34-1.16C527.94,399.82,527.92,400.23,527.55,400.54z"/>
		<path class="st5" d="M493.26,405.28c-0.08-0.44-0.03-0.85,0.32-1.17C493.64,404.54,493.62,404.96,493.26,405.28z"/>
		<path class="st5" d="M527.02,405.29c-0.06-0.46-0.03-0.9,0.33-1.25C527.4,404.5,527.42,404.95,527.02,405.29z"/>
		<path class="st5" d="M489.02,420.03c-0.09-0.44,0.01-0.81,0.36-1.11C489.27,419.3,489.14,419.67,489.02,420.03z"/>
		<path class="st3" d="M396.49,424.74c-0.02,0.19-0.03,0.39-0.05,0.58c-0.29,0-0.58,0.01-0.86,0.01
			C395.72,424.88,395.79,424.32,396.49,424.74z"/>
		<path class="st5" d="M486.41,430.04c-0.09-0.48-0.09-0.94,0.3-1.31C486.76,429.2,486.8,429.67,486.41,430.04z"/>
		<path class="st5" d="M414.44,425.94c-0.09-0.37-0.18-0.73-0.27-1.1C414.25,425.21,414.35,425.58,414.44,425.94z"/>
		<path class="st5" d="M433.15,425.92c-0.34,0.4-0.77,0.4-1.23,0.3C432.26,425.84,432.7,425.86,433.15,425.92z"/>
		<path class="st5" d="M428.56,428.51c-0.02,0.32-0.05,0.65-0.07,0.97C428.13,429.13,428.18,428.81,428.56,428.51z"/>
		<path class="st3" d="M186.44,455.39c0.31-0.21,0.48-0.04,0.62,0.22c-0.03,0.28-0.05,0.56-0.08,0.84
			C186.61,456.2,185.98,456.07,186.44,455.39z"/>
		<path class="st5" d="M462.47,391.69c-0.15-0.09-0.31-0.17-0.46-0.26C462.32,391.23,462.42,391.42,462.47,391.69z"/>
		<path class="st5" d="M484.81,435.84c0.11-0.21,0.23-0.42,0.34-0.62C485.04,435.43,484.92,435.63,484.81,435.84z"/>
		<path class="st5" d="M526.86,434.87c-0.09-0.18-0.17-0.36-0.26-0.55C526.69,434.51,526.77,434.69,526.86,434.87z"/>
		<path class="st5" d="M471.33,440.58c-0.12,0.12-0.24,0.24-0.36,0.37C471.09,440.82,471.21,440.7,471.33,440.58z"/>
		<path class="st5" d="M471.94,440.06c-0.16,0.13-0.32,0.26-0.49,0.38C471.62,440.32,471.78,440.19,471.94,440.06z"/>
		<path class="st5" d="M513.7,405.3c0.13,0.13,0.27,0.27,0.4,0.4c-0.14,0.02-0.27,0.04-0.41,0.06
			C513.69,405.6,513.69,405.45,513.7,405.3z"/>
		<path class="st5" d="M529.53,443.72c-0.09-0.15-0.18-0.29-0.28-0.44C529.35,443.43,529.44,443.57,529.53,443.72z"/>
		<path class="st5" d="M494.34,400.01c0.1-0.23,0.19-0.46,0.29-0.69C494.53,399.55,494.43,399.78,494.34,400.01z"/>
		<path class="st2" d="M466.71,449.04c0.13-0.04,0.27-0.07,0.4-0.11C466.96,448.9,466.83,448.94,466.71,449.04z"/>
		<path class="st5" d="M513.72,382.59c0.13,0.2,0.26,0.4,0.39,0.6C513.98,382.99,513.85,382.79,513.72,382.59z"/>
		<path class="st5" d="M470.4,381.78c0.12,0.12,0.25,0.25,0.37,0.37C470.64,382.03,470.52,381.9,470.4,381.78z"/>
		<path class="st5" d="M509.23,378.89c0.25-0.1,0.5-0.21,0.75-0.31C509.73,378.69,509.48,378.79,509.23,378.89z"/>
		<path class="st5" d="M478.37,436.41c-0.19,0.14-0.37,0.28-0.56,0.42C478,436.69,478.19,436.55,478.37,436.41z"/>
		<path class="st5" d="M444.11,447.48c-0.19,0.09-0.38,0.18-0.57,0.27C443.73,447.66,443.92,447.57,444.11,447.48z"/>
		<path class="st5" d="M524.6,377.32c0.23-0.1,0.46-0.2,0.69-0.3C525.05,377.12,524.83,377.22,524.6,377.32z"/>
		<path class="st5" d="M441.38,447.84l-0.25,0.08l-0.25-0.07C441.04,447.61,441.21,447.6,441.38,447.84z"/>
		<path class="st5" d="M250.51,435.8c-3.7,2.18-7.21,4.66-11.42,6c-2.12,0.67-3.96,1.98-6.17,2.64c-3.95,1.18-7.93,2.21-11.98,2.75
			c-5.91,0.79-11.81,1.46-17.84,0.21c-8.31-1.73-14.08-6.18-16.62-14.26c-1.49-4.73-2.54-9.86-1.02-14.62
			c1.43-4.48,4.85-8.07,8.04-11.57c6.43-7.07,14.2-12.49,22.17-17.62c5.85-3.77,12.32-6.26,18.92-8.39
			c2.09-0.67,4.17,0.07,6.19,0.43c0.96,0.17,1.65,1.31,1.81,2.42c0.72,4.89,0.17,9.42-2.46,13.88c-3.51,5.96-8.81,10.14-13.71,14.66
			c-6.2,5.73-13.33,10.27-21.29,13.33c-0.81,0.31-1.67,0.57-2.53,0.64c-1.35,0.12-2.63,0.1-2.99,1.86c-0.37,1.82,0.38,3,1.82,3.96
			c3.84,2.55,8.25,3.22,12.64,4.11c8.68,1.76,17.38,1.87,26.11,0.71c3.37-0.44,6.71-1.16,10.06-1.75
			C250.35,435.4,250.43,435.6,250.51,435.8z M232.92,391.67c-13.37,2.75-23.38,10.34-30.78,21.67
			C215.78,410.98,225.54,403.03,232.92,391.67z"/>
		<path class="st5" d="M170.22,434.78c-8.35-16.01-4.49-32.32,9.85-41.66c1.93,0.96,3.11-0.28,4.3-1.47
			c0.36-0.19,0.73-0.39,1.09-0.58l-0.04,0.03c0.47,0.02,0.86-0.12,1.1-0.56c0,0-0.04,0.03-0.04,0.03c3.18-1.12,6.37-2.22,9.53-3.38
			c2.84-1.04,5.93-1.28,8.61-2.8c0.14,0.15,0.29,0.31,0.43,0.46c-3.66,2.7-7.28,5.46-11,8.09c-8.01,5.66-14.26,12.93-19.37,21.19
			c-2.41,3.89-2.02,8.38-1.88,12.74c-0.16,0.19-0.33,0.38-0.49,0.56c-0.92-1.64-0.73-3.37-0.38-5.11c0.36-1.85,0.41-3.7,0-5.56
			c-3.11,5.64-3.09,11.49-1.22,17.48C170.54,434.42,170.38,434.6,170.22,434.78z"/>
		<path class="st3" d="M226.63,452.85c-7.2,1.99-14.62,2.68-22.01,3.28c-2.95,0.24-6.16-0.12-9.07-1.26
			c-4.08-1.61-8.95-1.31-12.14-5.02c-0.48-0.55-1.77-0.66-1.11-1.89c0.16,0.05,0.37,0.06,0.48,0.16c6.22,5.65,14.12,6.8,21.86,6.94
			c6.26,0.12,12.69-0.73,18.83-2.62c0.97-0.3,2.08-0.15,3.12-0.21C226.61,452.43,226.62,452.64,226.63,452.85z"/>
		<path class="st3" d="M184.37,391.65c-1.19,1.2-2.37,2.43-4.3,1.47c7.15-5.29,15.25-8.42,23.86-10.39
			c0.19,0.17,0.39,0.34,0.58,0.51c-2.16,0.69-4.36,1.27-6.47,2.08c-3.96,1.52-8.18,2.48-11.57,5.25c0,0,0.04-0.03,0.04-0.03
			c-0.46,0.01-0.98-0.11-1.1,0.56c0,0,0.04-0.03,0.04-0.03C185.06,391.19,184.53,391.08,184.37,391.65z"/>
		<path class="st3" d="M172.31,427.43c0.16-0.19,0.33-0.38,0.49-0.56c1.13,3.45,0.73,7.23,2.57,10.58c1.13,2.05,2.07,4.21,3.32,6.21
			c-0.17,0.17-0.35,0.34-0.52,0.5c-0.93-0.68-1.05-2.07-2.24-2.52l0.02,0.03C174.29,437.03,172.09,432.54,172.31,427.43z"/>
		<path class="st3" d="M169.66,444.78c-3.23-2.06-5.89-4.69-7.94-7.93c2.55,0.88,3.68,3.35,5.56,4.98
			C168.21,442.64,169.63,443.2,169.66,444.78z"/>
		<path class="st3" d="M170.22,434.78c0.16-0.18,0.31-0.36,0.47-0.54c0.53,0.89,0.99,1.84,1.62,2.66c1.22,1.58,1.51,3.87,3.63,4.77
			c0,0-0.02-0.03-0.02-0.03c-0.43,0.55,0.12,0.95,0.22,1.42c-0.18,0.19-0.37,0.38-0.55,0.57
			C173.47,440.88,171.58,437.99,170.22,434.78z"/>
		<path class="st5" d="M204.51,383.24c-0.19-0.17-0.39-0.34-0.58-0.51c1.77-0.67,3.57-1.17,5.81-1.15c-1.45,1.6-3.08,2.42-4.69,3.27
			c-0.14-0.15-0.29-0.31-0.43-0.46c0.36-0.34,0.73-0.68,1.09-1.01C205.3,383.34,204.9,383.29,204.51,383.24z"/>
		<path class="st0" d="M226.63,452.85c-0.01-0.21-0.02-0.42-0.03-0.63c2.81-1.07,5.46-2.57,8.42-3.24
			C232.69,451.28,229.56,451.85,226.63,452.85z"/>
		<path class="st3" d="M304.76,451.63c-2.23-0.69-3.44-2.53-4.78-4.24C302.38,447.9,303.62,449.71,304.76,451.63z"/>
		<path class="st3" d="M179.57,448.01c1.71,1,3.04,2.33,3.72,4.23C181.39,451.4,180.11,450.03,179.57,448.01z"/>
		<path class="st3" d="M182.29,447.94c-1.66,0.68-1.69-1.97-3.21-1.56l0.03,0.04c0.32-0.61-0.07-0.88-0.55-1.1
			c0,0,0.03,0.03,0.03,0.03c-0.14-0.4-0.29-0.8-0.43-1.2c0.17-0.17,0.35-0.34,0.52-0.51C179.89,445.08,181.09,446.51,182.29,447.94z
			"/>
		<path class="st3" d="M161.75,436.88c-1.51-0.86-2.7-1.99-3.19-3.72C160.33,433.79,161.38,435.05,161.75,436.88z"/>
		<path class="st3" d="M172.78,447.89c-0.79-0.78-2.32-0.96-2.09-2.57c1.19,0.32,1.87,1.26,2.64,2.11
			C173.15,447.58,172.96,447.73,172.78,447.89z"/>
		<path class="st3" d="M179.08,446.38c-0.05,0.62,0.79,0.96,0.52,1.65c-1.54-0.06-1.67-1.58-2.49-2.39c0.2-0.16,0.39-0.31,0.59-0.47
			c0.3,0.06,0.6,0.12,0.9,0.18c0,0-0.03-0.03-0.03-0.03c-0.23,0.57,0.05,0.89,0.55,1.1L179.08,446.38z"/>
		<path class="st0" d="M243.99,444.27c0.19,0.18,1.14-0.2,0.48,0.63c-1.07,0.21-1.77,1.66-3.12,0.94
			C242.01,444.94,243.07,444.72,243.99,444.27z"/>
		<path class="st3" d="M177.1,445.64c-0.5-0.67-1.01-1.34-1.51-2.01c0.18-0.19,0.37-0.38,0.55-0.57c0.52,0.7,1.03,1.41,1.55,2.11
			C177.5,445.33,177.3,445.48,177.1,445.64z"/>
		<path class="st0" d="M172.78,447.89c0.18-0.15,0.36-0.31,0.54-0.46c0.49,0.21,0.87,0.53,1.05,1.05
			C173.55,449.08,173.28,448.17,172.78,447.89z"/>
		<path class="st3" d="M170.68,445.31c-0.73,0.53-0.94,0.08-1.05-0.55C170.33,444.27,170.51,444.77,170.68,445.31z"/>
		<path class="st3" d="M185.91,454.86c0.43-0.07,0.63,0.09,0.53,0.54C185.87,455.62,185.69,455.44,185.91,454.86z"/>
		<path class="st3" d="M185.39,454.33c0.45-0.09,0.6,0.11,0.54,0.53C185.34,455.09,185.16,454.92,185.39,454.33z"/>
		<path class="st3" d="M300,447.41c-0.44,0.08-0.62-0.1-0.53-0.54C300.04,446.66,300.22,446.84,300,447.41z"/>
		<path class="st3" d="M184.86,453.81c0.44-0.09,0.62,0.09,0.53,0.53C184.81,454.56,184.64,454.39,184.86,453.81z"/>
		<path class="st3" d="M184.33,453.28c0.44-0.08,0.62,0.09,0.53,0.54C184.29,454.03,184.11,453.85,184.33,453.28z"/>
		<path class="st3" d="M183.81,452.75c0.47-0.11,0.61,0.1,0.54,0.53C183.77,453.51,183.59,453.33,183.81,452.75z"/>
		<path class="st3" d="M183.28,452.23c0.47-0.11,0.65,0.06,0.53,0.53C183.23,452.98,183.06,452.79,183.28,452.23z"/>
		<path class="st3" d="M329.05,437.45c0.27-1.07,0.54-2.13,0.81-3.2c0.31-0.7,0.61-1.41,1.15-2.66c0.46,3.23,2.18,5.42,3.27,7.92
			c-2.2-0.59-2.23-2.91-3.42-4.26c-0.44,0.9-0.89,1.81-1.33,2.73C329.37,437.8,329.21,437.63,329.05,437.45z"/>
		<path class="st3" d="M338.01,444.78c-2.17-1.1-3.44-2.83-3.72-5.26C335.81,441.08,337.12,442.78,338.01,444.78z"/>
		<path class="st3" d="M340.08,446.84c-0.86-0.54-1.82-0.97-2.1-2.08c1.35-0.22,1.87,0.88,2.6,1.64
			C340.41,446.54,340.25,446.69,340.08,446.84z"/>
		<path class="st0" d="M338.48,449.61c0.76-0.69,1.36-1.74,2.67-1.09C340.32,449.03,339.78,450.26,338.48,449.61z"/>
		<path class="st0" d="M341.14,448.53c-0.65-0.39-0.07-0.76,0.02-1.14c0.54-0.48,0.93-0.08,0.98,0.35
			C342.21,448.35,341.63,448.46,341.14,448.53z"/>
		<path class="st0" d="M340.08,446.84c0.17-0.15,0.33-0.3,0.5-0.45c0.35,0.26,1.02,0.33,0.6,1.03
			C340.63,447.57,340.37,447.17,340.08,446.84z"/>
		<path class="st3" d="M406.59,442.15c-0.52,0.49-0.83-0.01-0.98-0.32c-1.66-3.45-3.62-6.79-3.85-10.77
			c-0.08-1.3-0.24-2.61-0.55-3.87c-0.82-3.43-1.74-3.88-4.73-2.42c0.09-1.39,1.13-2.32,2.19-2.06c1.23,0.3,2.69,0.93,3.08,2.5
			c0.23,0.93,0.56,1.87,0.58,2.81C402.42,433.14,404.59,437.61,406.59,442.15z"/>
		<path class="st3" d="M413.48,450.04c-3.24-1.8-5.92-4.1-6.88-7.88C408.89,444.79,411.18,447.42,413.48,450.04z"/>
		<path class="st3" d="M415.58,451.62c-1.1-0.02-1.79-0.58-2.13-1.6C414.66,449.9,415.4,450.39,415.58,451.62z"/>
		<path class="st0" d="M468.26,447.22c0.02,0.25,0.04,0.5,0.05,0.76c-0.34-0.14-0.68-0.28-1.02-0.41
			C467.61,447.45,467.93,447.33,468.26,447.22z"/>
		<path class="st0" d="M469.87,446.07c-0.11,0.59-0.53,0.79-1.07,0.84C469.16,446.63,469.52,446.35,469.87,446.07z"/>
		<path class="st0" d="M405.86,410.84c-0.22,0.23-0.44,0.45-0.66,0.68c-0.39-0.45-0.12-0.74,0.24-1.02
			C405.58,410.62,405.72,410.73,405.86,410.84z"/>
		<path class="st0" d="M405.44,410.51c0.08-0.28,0.1-0.75,0.55-0.46c0.41,0.26,0.01,0.54-0.13,0.8
			C405.72,410.73,405.58,410.62,405.44,410.51z"/>
		<path class="st3" d="M509.57,418.49c1.41-3.76,2.64-7.6,4.76-11.69c0,1.79,0,3.06,0,4.32c-0.53,3.47-1.96,6.71-1.18,10.5
			c0.7,3.43-0.62,7.11,0.48,10.67c1.74,5.65,2.54,11.62,5.61,16.83c0.04,0.07-0.13,0.27-0.21,0.4c-1.84-0.66-2.22-2.41-2.62-3.92
			c-1.31-4.89-3.18-9.63-4.07-14.63c-0.11-0.6-0.28-1.2-0.29-1.8c-0.02-4.51-0.01-9.01-0.01-13.61c-1.11,0.75-0.88,2.16-1.73,2.94
			C510.07,418.5,509.82,418.49,509.57,418.49z"/>
		<path class="st3" d="M524.27,455.32c-1.75-0.32-2.58-1.41-2.63-3.15C522.81,452.97,523.72,454,524.27,455.32z"/>
		<path class="st3" d="M521.63,452.16c-1.67-0.11-2.29-1.24-2.62-2.66C520.57,449.71,520.98,451.06,521.63,452.16z"/>
		<path class="st0" d="M509.57,418.49c0.25,0.01,0.49,0.01,0.74,0.02c-0.33,0.5-0.02,1.36-0.89,1.55
			C508.71,419.46,509.54,419.01,509.57,418.49z"/>
		<path class="st0" d="M303.1,411.64c0.09-0.17,0.18-0.34,0.27-0.52c0,0,0.07-0.02,0.07-0.02c0.01,0.2,0.03,0.39,0.04,0.59
			C303.35,411.68,303.22,411.66,303.1,411.64z"/>
		<path class="st5" d="M272.97,502.42c0.2-1.55-0.84-3.56,2.17-3.37c2.18,0.13,3.28,0.81,3.31,3.02c0.03,2.44-0.92,3.21-3.56,3.39
			C271.91,505.67,273.39,503.47,272.97,502.42z"/>
		<path class="st5" d="M515.91,508.48c-0.09,0.79-0.07,1.51-0.26,2.17c-0.39,1.4-1.03,2.67-2.76,2.68c-1.72,0.01-2.43-1.2-2.79-2.63
			c-0.39-1.54-0.45-3.11-0.03-4.67c0.39-1.42,1.02-2.64,2.75-2.69c1.8-0.05,2.38,1.24,2.75,2.64
			C515.8,506.82,515.82,507.7,515.91,508.48z"/>
		<path class="st0" d="M255.12,458.43c0.87-0.57,1.74-0.57,2.6,0.02C256.85,458.44,255.99,458.44,255.12,458.43z"/>
		<path class="st5" d="M395.37,502.34c0.61-1.18-1.09-3.45,1.96-3.28c2.63,0.14,3.76,1.08,3.73,3.61c-0.03,2.4-1.07,3.24-3.67,3.34
			C393.91,506.14,396.22,503.48,395.37,502.34z"/>
		<path class="st5" d="M232.02,507.34c0.55-1.63,1.09-3.23,1.65-4.86c0.66,0.58,0.7,1.31,0.93,1.97
			C235.73,507.67,235.74,507.66,232.02,507.34z"/>
		<path class="st5" d="M244.99,505.88c-1.87,0.5-1.93-0.68-2.05-2.31c-0.16-2.15,0.76-2.46,2.56-2.32c1.64,0.13,3.3,0.08,3.27,2.35
			C248.74,506.08,246.88,505.87,244.99,505.88z"/>
		<path class="st5" d="M526.44,508.57c0.58,0.27,1.77-0.62,1.82,0.97c0.06,1.94-1.45,3.89-3.07,3.83c-1.44-0.05-1.97-1.01-1.96-2.24
			C523.24,509.1,524.56,508.51,526.44,508.57z"/>
		<path class="st5" d="M350,508.58c0.82,0.03,1.79-0.28,1.72,1.2c-0.09,1.94-1.48,3.66-3.08,3.6c-1.53-0.06-1.84-1.09-1.84-2.33
			C346.81,508.87,348.25,508.51,350,508.58z"/>
		<path class="st5" d="M458.72,511.04c0.12-2.21,1.54-2.52,3.28-2.47c0.9,0.02,1.7-0.11,1.59,1.31c-0.16,2.03-1.45,3.62-3.1,3.5
			C458.94,513.27,458.78,512.16,458.72,511.04z"/>
		<path class="st5" d="M288.91,507.59c-0.79-0.67-2.58,0.86-2.55-1.16c0.02-1.66,0.85-3.13,2.87-3.09c2.07,0.04,2.81,1.75,2.67,3.25
			C291.73,508.36,289.89,506.93,288.91,507.59z"/>
		<path class="st5" d="M378.84,507.64c-0.84-0.76-2.66,0.85-2.63-1.03c0.02-1.56,0.75-3.34,2.95-3.27c1.86,0.06,2.61,1.42,2.59,2.97
			C381.72,508.73,379.67,506.72,378.84,507.64z"/>
		<path class="st0" d="M329.05,437.45c0.16,0.17,0.32,0.35,0.48,0.52c-0.07,0.32-0.17,0.6-0.6,0.5
			C328.41,438.07,328.94,437.79,329.05,437.45z"/>
		<path class="st5" d="M312.09,508.01c0,3.39-1.08,5.25-2.95,5.33c-1.95,0.08-3.28-2.01-3.24-5.12c0.01-0.69,0.07-1.4,0.25-2.06
			c0.43-1.62,1.21-2.96,3.19-2.8c1.85,0.15,2.38,1.53,2.65,3.07C312.09,507.02,312.07,507.64,312.09,508.01z"/>
		<path class="st1" d="M232.92,391.67c-7.38,11.36-17.14,19.3-30.78,21.67C209.54,402.02,219.54,394.42,232.92,391.67z"/>
		<path class="st2" d="M175.95,441.66c-2.12-0.89-2.41-3.19-3.63-4.77c-0.63-0.82-1.09-1.77-1.62-2.66
			c-1.87-5.99-1.89-11.84,1.22-17.48c0.42,1.86,0.37,3.71,0,5.56c-0.34,1.74-0.53,3.46,0.38,5.11
			C172.09,432.54,174.29,437.03,175.95,441.66z"/>
		<path class="st2" d="M204.51,383.24c0.4,0.05,0.8,0.09,1.19,0.14c-0.36,0.34-0.73,0.68-1.09,1.01c-2.68,1.52-5.78,1.76-8.61,2.8
			c-3.16,1.16-6.35,2.26-9.53,3.38c3.39-2.77,7.61-3.73,11.57-5.25C200.15,384.51,202.35,383.93,204.51,383.24z"/>
		<path class="st2" d="M184.37,391.65c0.16-0.57,0.69-0.46,1.09-0.58C185.1,391.26,184.73,391.46,184.37,391.65z"/>
		<path class="st2" d="M185.42,391.1c0.12-0.67,0.64-0.55,1.1-0.56C186.28,390.98,185.89,391.12,185.42,391.1z"/>
		<path class="st2" d="M177.69,445.17c-0.52-0.7-1.03-1.41-1.55-2.11c-0.1-0.47-0.64-0.87-0.22-1.42c1.19,0.45,1.31,1.84,2.24,2.52
			c0.14,0.4,0.28,0.8,0.43,1.2C178.29,445.29,177.99,445.23,177.69,445.17z"/>
		<path class="st2" d="M179.11,446.42c-0.5-0.21-0.77-0.53-0.55-1.1C179.04,445.54,179.43,445.8,179.11,446.42z"/>
	</g>
</g>
</svg>
