<?xml version="1.0" encoding="UTF-8"?>
<!DOCTYPE svg PUBLIC "-//W3C//DTD SVG 1.1//EN" "http://www.w3.org/Graphics/SVG/1.1/DTD/svg11.dtd">
<!-- Creator: CorelDRAW 2021 (64 Bit) -->
<svg xmlns="http://www.w3.org/2000/svg" xml:space="preserve" width="110mm" height="160mm" version="1.1" style="shape-rendering:geometricPrecision; text-rendering:geometricPrecision; image-rendering:optimizeQuality; fill-rule:evenodd; clip-rule:evenodd"
viewBox="0 0 11000 16000"
 xmlns:xlink="http://www.w3.org/1999/xlink"
 xmlns:xodm="http://www.corel.com/coreldraw/odm/2003">
 <defs>
  <style type="text/css">
   <![CDATA[
    .fil0 {fill:#921E29}
    .fil1 {fill:#D7A957}
   ]]>
  </style>
 </defs>
 <g id="Camada_x0020_1">
  <metadata id="CorelCorpID_0Corel-Layer"/>
  <g id="_2484568822288">
   <path class="fil0" d="M10038.88 6686.02c-382.91,69.16 -560.71,405.69 -517.77,831.4 39.24,388.94 298.5,663.18 769.49,586.34 753.05,-122.84 702.07,-1590.01 -251.72,-1417.74zm30.7 243.15c-128.23,51.71 -159.17,60.62 -209.23,205.13 -84.94,245.31 -62.25,872.13 399.9,727.55 389.8,-121.92 303.74,-1132.06 -190.67,-932.68z"/>
   <path class="fil0" d="M7243.49 6717.41c-774.1,138.83 -676.43,1586.73 247.62,1427.1 785.55,-135.7 697.2,-1596.58 -247.62,-1427.1zm62.33 236.02c-238.41,48.92 -278.81,293.25 -265.26,550.08 12.41,235.41 114.35,464.07 407.98,403.84 236.47,-48.52 274.71,-314 258.96,-563.34 -15.31,-242.37 -134.11,-445.45 -401.68,-390.58z"/>
   <path class="fil0" d="M8260.27 8108.14l337.25 -0.22 -14.26 -606.2c299.81,11.47 347.71,397.3 463,594.16l339.53 4.17c-5.72,-51.89 -137.59,-297.11 -163.72,-349.03 -67.82,-134.61 -126.08,-201.1 -233.6,-300.74 51.66,-45.38 215.3,-76.08 271.75,-229.88 55.78,-151.96 7.48,-292.59 -80.61,-379.11 -177.66,-174.42 -650.08,-121.5 -920.92,-118.48 -0.47,227.36 25.04,455.59 26.25,692.25 1.23,235.81 -28.5,471.38 -24.67,693.08zm321.13 -771.67c441.43,52.42 459.89,-260.96 341.65,-351.01 -46.14,-35.12 -275.08,-94.07 -328.03,-41.32 -30.66,30.53 -21.31,330.12 -13.62,392.33z"/>
   <path class="fil0" d="M4104.55 8166.83l335.21 5.47c43.25,-474.35 99.92,-394.35 547.41,-384.96l119.79 367.46 347.67 0.08 -503.66 -1393.73 -383.81 1.14c-84.77,517.98 -427.66,1231.58 -462.61,1404.54zm477.73 -602.2l347.25 6c-6.89,-87.39 -48.41,-198.16 -75.04,-275.25 -16.24,-47.03 -28.33,-91.14 -42.7,-133.28l-37.95 -86.04c-26.48,-41.7 -6.23,-11.04 -22.04,-28.86l-169.52 517.43z"/>
   <path class="fil0" d="M5820.02 8132.81c119.09,29.57 260.83,9.47 384.9,7.08 52.88,-246.55 132.52,-466.07 201.35,-702.51 48.86,-167.85 210.91,-578.02 228.9,-693.64l-326.35 0.71c-27.86,52.17 -171.28,878.26 -283.57,1086.44 -135.86,-266.49 -210.83,-813.8 -290.36,-1075.02l-359.02 -2.08 343.03 1022.33c29.4,100.26 63.44,268.71 101.12,356.69z"/>
   <path class="fil0" d="M3145.9 8185.06l833 -8.47 42.6 -244.24c-136.52,8.26 -425.96,48.05 -544.45,18.75l-4.02 -1172.36 -352.52 0.96c-10.03,188.16 34.43,461.41 39.63,670.58 6.2,249.05 -18.82,493.64 -14.24,734.78z"/>
   <g>
    <path class="fil1" d="M2750.91 5701.31c186.35,-125.06 236.36,-214.13 183.04,-425.78 -221.8,133.42 -230.43,164.41 -183.04,425.78z"/>
    <path class="fil1" d="M2456.02 6039.51c173.84,-170.17 209.51,-274.99 110.77,-490 -209.95,186.11 -213.02,220.84 -110.77,490z"/>
    <path class="fil1" d="M2644.5 5860.81c217.47,55.42 317.2,33.26 439.31,-147.65 -247.35,-76.24 -276.2,-62 -439.31,147.65z"/>
    <path class="fil1" d="M2398.14 6303.71c254,64.73 370.47,38.86 513.1,-172.44 -288.9,-89.05 -322.6,-72.42 -513.1,172.44z"/>
    <path class="fil1" d="M2240.37 6546.17c165.72,-210.94 189.71,-330.66 50.98,-551.61 -202.92,233.54 -201.3,271.96 -50.98,551.61z"/>
    <path class="fil1" d="M2110.04 6845.78c261.88,11.31 370.57,-37.88 466.88,-273.92 -301.02,-27.96 -330.59,-4.78 -466.88,273.92z"/>
    <path class="fil1" d="M2048.49 7145.4c130.53,-264.56 129.21,-398.83 -70.16,-605.16 -165.44,297.3 -154.99,338.28 70.16,605.16z"/>
    <path class="fil1" d="M1917.83 7448.96c284.04,-49.18 389.32,-127.5 437.52,-403.69 -330,40.46 -356.34,72.3 -437.52,403.69z"/>
    <path class="fil1" d="M1887.46 7700.93c108.91,-292.99 92.97,-434.37 -139.52,-630.23 -142.16,331.28 -126.7,373.34 139.52,630.23z"/>
    <path class="fil1" d="M1838.96 8027.68c274.57,-124.94 360.44,-232.09 336.16,-524.47 -323.4,128.27 -341.65,167.48 -336.16,524.47z"/>
    <path class="fil1" d="M1773.93 8341.63c130.14,-350.14 111.1,-519.09 -166.74,-753.16 -169.88,395.9 -151.41,446.16 166.74,753.16z"/>
    <path class="fil1" d="M1770.21 8621.21c292.74,-133.21 384.29,-247.45 358.41,-559.17 -344.8,136.75 -364.26,178.55 -358.41,559.17z"/>
    <path class="fil1" d="M1438.33 8375.34c-455.61,-504.98 -905.01,-522.69 -1349.73,-172.52 -8.58,8.6 -13.52,36.32 18.67,32.97 528.98,-280.59 943.17,-174.68 1267.52,233.62 113.88,115.78 141.75,267.38 212.63,401.07l58.55 120.1c44.73,133.67 39.6,278.01 59.4,417.02 27.36,135.86 27.27,297.79 82.08,407.57l22.5 -26.51 8.13 -108.4c-23.26,-270.69 -46.53,-541.38 -69.79,-812.07 -6.57,-142.3 9.52,-267.51 59.99,-302.02l-3.32 -443.32 120.96 -662.17 164.62 -524.49 252.54 -585.68 253.97 -441.51 209.87 -234.97c-0.29,-63.7 -57.81,-38.14 -67.32,-7.39 -40.74,131.68 -81.89,109.82 -122.84,164.73l-159.99 214.56c19.59,102.36 -111.53,139.57 -125.46,240.66 -11.13,80.73 -108.02,140.16 -140.35,254.51l-214.17 572.69 -144.91 564.77c-45.07,210.34 -90.14,420.69 -135.21,631.04 -23.41,153.7 20.3,419.86 -32.13,477.43l-226.21 -411.69z"/>
   </g>
   <g>
    <path class="fil0" d="M6951.01 9366.94l120.85 -2.12 -5.02 -210.03c115.76,12.9 110.25,137.6 175.79,206.27l108.01 -1.67c-15.29,-79.34 -75.47,-180.58 -123.67,-228.44 0.24,-0.26 176.23,-113.38 51.14,-229.71 -70.04,-65.14 -224.11,-39.38 -333.21,-39.1l6.11 504.8zm2127.83 -43.48l105.29 6.17 -6.55 -321.3c186.5,136.74 91.21,323.92 329.68,315.81l3.91 -493.75 -99.86 1.34 5.6 317.65c-87.09,-55.73 -139.2,-215.17 -218.9,-311.38l-108.12 -4.02 -11.05 489.48zm-4154.86 78.36l109.88 -1.08 48.33 -130.64 153.12 -3.08 44.61 128.34 119.76 -1.14c-7.44,-83.67 -57.69,-173.38 -87.31,-252.77 -29.02,-77.79 -55.13,-174.73 -81.71,-250.05l-147.65 4.1c-33.3,187.25 -124.52,339.02 -159.03,506.32zm1522.02 -27.22c147.91,-6.57 62.2,-39.31 126.72,-131.1l144.82 -4.22 47.22 127.92 120.79 0.06c-7.44,-52.71 -141.34,-431.84 -167.97,-494.43l-144.88 -3.9c-44.48,119.25 -48.28,188.76 -118.32,361.22l-24.54 96.59c5.57,49.68 -6.55,13.28 16.16,47.86zm2103.78 -36.7l105.05 1.81 44.49 -129.56 154.53 -6.21 46.8 128.81 121.81 2.08c-20.2,-105.68 -128.62,-390.01 -171.39,-499.51l-134.07 2.84c-16.41,34.83 -165.31,478.26 -167.22,499.74zm-4000.63 71.66l118.83 -1.27 -2.78 -179.03c137.07,-6.8 266.14,-59.46 234.19,-213.39 -30.12,-144.88 -196.15,-113.85 -354.18,-110.44l3.94 504.13zm5024.86 -85.55l94.69 2.77c38.98,-45.44 30.06,-46.56 49.96,-130.78l156.86 -2.71c19.27,32.55 34.43,85.89 51.91,125.96l116.64 2.47 -168.22 -497.77 -116.57 -1.09c-48.58,54.39 -72.08,174.87 -97.51,247.5 -26.48,75.71 -76.13,179.84 -87.76,253.65zm-4113.77 61.29c60.61,9.46 110.92,5.23 172.23,5.02 107.27,-0.42 115.08,22.03 133.72,-65.55l-79.63 -18.6c-23.46,-1.31 -68.07,2.82 -97.63,2.24l-2.11 -144.79c64.28,-0.32 122.53,8.22 167.78,-15.04l5.31 -52.81c-50.05,-25.05 -106.06,-11.09 -178.45,-19.05l-0.45 -102.88 179.86 -19.07c-10.97,-79.39 -13.02,-92.7 -300.84,-60.93 -4.42,164.11 15.48,318.76 0.21,491.46zm2375.97 -37.81c253.67,9.05 248.17,18.9 295.79,-50.57 -47.69,-50.77 -47.65,-24.54 -178.94,-29.59l-6.63 -137.14c119.25,-13.79 156.42,34.37 174.02,-69.71l-30.57 -10.27c-23.79,-4.92 -22.6,-5.79 -50.04,-8.27 -25.68,-2.31 -58.96,0.04 -88.2,-1.41l-1.29 -111.67c209.25,-7.2 141.85,19.84 172.54,-44.57 -46.46,-68.94 -209.91,-35.39 -285.59,-32.38l-1.09 495.58zm-1809.08 -60.8c-48.96,18.75 -114.86,14.92 -182.11,12 24.53,180.28 265.57,84 297.92,-20.73 58.51,-189.3 -186.02,-138.36 -184.99,-305l159.05 -10.99c10.44,-175.24 -239.55,-86.47 -265.68,15.83 -50.72,198.7 196.74,143.9 175.81,308.89zm2373.71 -67.65c-29.53,33.45 -15.36,35.31 -75.83,43.59 -29.35,4.02 -37.89,-1.04 -60.36,0.3l-53.31 8.98c10.35,76.18 -7.61,68.69 79.8,78.19 42.9,4.66 98.25,-4.45 133.21,-20.7 59.76,-27.79 109.07,-101.86 72.86,-184.97 -35.95,-82.46 -337.39,-186.27 -97.36,-223.47l80.74 -19.04c-21.77,-140.9 -252.66,-62.85 -267.15,53.02 -20.33,162.4 140.57,139.89 187.4,264.1zm-1038.26 -299.51c39.01,23.9 100.78,19.31 144.4,23.74l4.47 363.37c10.92,42.06 2.35,21.19 20.87,46.82l72.44 -2.21c32.4,-60.12 7.64,-286.78 13.23,-416.35l145.26 1.63 -5.8 -77.58c-73.78,-10.93 -150.79,-4.69 -225.57,-4.77 -112.66,-0.1 -159.28,-30.22 -169.3,65.35zm-2238.43 242.55l87.53 1.51c-1.74,-22.02 -12.2,-49.94 -18.91,-69.37 -4.1,-11.86 -7.15,-22.98 -10.77,-33.61l-9.57 -21.68c-6.67,-10.5 -1.56,-2.78 -5.55,-7.27l-42.73 130.42zm1474.24 -9.58l87.52 1.51c-1.74,-22.02 -12.21,-49.93 -18.91,-69.37 -4.11,-11.84 -7.14,-22.97 -10.78,-33.59l-9.55 -21.68c-6.68,-10.52 -1.58,-2.78 -5.55,-7.28l-42.73 130.41zm2132.93 -41.23l87.52 1.51c-1.73,-22.04 -12.2,-49.94 -18.91,-69.39 -4.09,-11.84 -7.14,-22.97 -10.76,-33.59l-9.58 -21.68c-6.67,-10.52 -1.56,-2.78 -5.54,-7.28l-42.73 130.43zm1030.81 -4.75l87.52 1.51c-1.74,-22.02 -12.2,-49.94 -18.91,-69.38 -4.11,-11.86 -7.14,-22.96 -10.78,-33.59l-9.55 -21.68c-6.68,-10.51 -1.58,-2.8 -5.55,-7.27l-42.73 130.41zm-2692.48 -52.81c-2.17,-40.09 -4.35,-80.17 -6.5,-120.26 192.95,-41.18 181.79,166.67 6.5,120.26zm-2403.45 61.75c-2.15,-40.1 -4.33,-80.18 -6.5,-120.28 192.96,-41.15 181.8,166.68 6.5,120.28zm360.41 -326.36c-6.06,-16.51 -12.12,-33.01 -18.17,-49.51 201.57,-52.13 142.27,51.42 275.44,-16.1 9.82,13.52 19.63,27.04 29.43,40.55 -220.2,110.8 -110.23,-37.61 -286.7,25.06z"/>
    <path class="fil0" d="M10104.86 8905.97l4.47 363.37c10.92,42.06 2.35,21.19 20.87,46.82l72.44 -2.21c32.4,-60.12 7.64,-286.78 13.23,-416.35 0.87,-45.63 -5.07,-76.33 -23.79,-78.87l-62.32 -1.85c-17.98,18.97 -24.6,50.54 -24.9,89.09z"/>
    <path class="fil0" d="M10478.79 9214.29c-70.29,32.81 -101.08,15.68 -183.46,16.73 18.29,192.97 265.64,68.34 294.14,5.32 87.54,-193.75 -250.48,-231.59 -167.59,-318.36 31.62,-33.1 31,-15.55 90.46,-22.99 6.49,-0.8 10.98,-0.76 17.11,-1.6 5.86,-0.8 11.04,-1.64 16.22,-2.45l30.46 -6.97c-18.88,-157.28 -282.33,-75.4 -279.04,70.08 3.57,157.11 222.14,144.49 181.7,260.24z"/>
   </g>
  </g>
 </g>
</svg>
