<?xml version="1.0" encoding="UTF-8"?>
<!DOCTYPE svg PUBLIC "-//W3C//DTD SVG 1.1//EN" "http://www.w3.org/Graphics/SVG/1.1/DTD/svg11.dtd">
<!-- Creator: CorelDRAW 2021 (64 Bit) -->
<svg xmlns="http://www.w3.org/2000/svg" xml:space="preserve" width="110mm" height="160mm" version="1.1" style="shape-rendering:geometricPrecision; text-rendering:geometricPrecision; image-rendering:optimizeQuality; fill-rule:evenodd; clip-rule:evenodd"
viewBox="0 0 11000 16000"
 xmlns:xlink="http://www.w3.org/1999/xlink"
 xmlns:xodm="http://www.corel.com/coreldraw/odm/2003">
 <defs>
  <style type="text/css">
   <![CDATA[
    .fil2 {fill:#026373}
    .fil3 {fill:#079799}
    .fil1 {fill:#0AA3AB}
    .fil0 {fill:#7D9699}
   ]]>
  </style>
 </defs>
 <g id="Camada_x0020_1">
  <metadata id="CorelCorpID_0Corel-Layer"/>
  <g id="_2082300884304">
   <path class="fil0" d="M2128.56 6951.44c-605.51,158.59 -368.57,1012.96 215.93,885.39 574.82,-125.44 386.21,-1043.1 -215.93,-885.39zm40.8 111.27c-457.02,99.7 -293.59,755.8 145.45,659.58 155.12,-34.06 301.24,-208.06 251.78,-409.59 -39.79,-162.31 -195.58,-293.94 -397.23,-249.99z"/>
   <path class="fil1" d="M3857.09 7145.27l150.45 0.34 5.92 -506.11c69.71,63.46 191.21,337.84 254.69,367.19 71.69,9.3 168.09,-266.92 268.1,-364.49l3.91 500.24 156.02 2.47 1.1 -789.35 -162.65 -8.68 -246.69 400.04c-3.55,-2.1 -8.51,-9.9 -10.08,-7.17 -1.53,2.69 -7.62,-5.43 -9.63,-7.34 -42.38,-40.1 -215.43,-332.5 -243.52,-381.66l-164.17 -2.62 -3.45 797.14z"/>
   <path class="fil0" d="M3072.1 7756.66l-118.07 40.82c45.86,97.98 123.47,163.3 171.25,256.44 -23.27,38.21 -139.51,167.72 -201.62,198.6 -274.78,-235.74 -724.6,-324.97 -1096.47,-169.89 -112.75,47.02 -228.09,138.02 -315.11,168.89l-181.48 -194.75c48.89,-88.92 134.05,-165.15 169.18,-254.27 -50.75,-29.68 -51.18,-41.33 -118.74,-48.73 -28.05,100.61 -187.64,225.84 -169.81,323.53 9.73,53.4 212.44,258.67 245.62,277.75 70.17,40.42 123.1,3.5 176.25,-29.78 57.52,-36.03 112.6,-65.79 169.51,-97.47 257.2,-143.22 583.82,-138.75 845.97,-7.66 92.42,46.22 251.87,185.77 344.96,139.2 50.81,-25.42 239.36,-229.13 251.47,-271.17 26.05,-90.36 -132.53,-249.72 -172.91,-331.51z"/>
   <path class="fil0" d="M1400.45 6997.49l115.14 -41.68c-21.05,-79.25 -118.47,-191.36 -152.7,-270.5l196.25 -186.91c202.26,101.54 550.93,525.84 1201.54,90.34 54.33,-36.38 91.79,-73.49 158.85,-91.96 49.08,73.56 131.37,123.07 178.66,188.53 -31.61,60.11 -140.53,207.34 -155.71,270.02l97.45 41.5 53.18 -75.73c140.74,-234.49 194.83,-232.42 18.45,-391.51 -241.84,-218.1 -129.9,-208.3 -478.76,1.07 -660.98,396.72 -940.59,-235.57 -1131.77,-143.95 -19.98,9.58 -247.39,219.11 -259.82,263.37 -23.5,83.63 123.2,255.69 159.24,347.41z"/>
   <path class="fil2" d="M4322.21 8331.29l-0.68 287.18 104.54 -1.01 0.78 -793.78 -88.12 0.45c-2.25,4.27 -4.27,5.95 -5.06,11.8l-21.13 59.01c-178.5,-185.69 -497.16,-57.1 -487.71,229.86 6.63,200.75 203.78,408.14 497.38,206.49zm-273.25 -403.87c-238.18,107.69 -87.9,484.23 165.56,368.91 206.04,-93.63 88.24,-483.67 -165.56,-368.91z"/>
   <path class="fil2" d="M7184.31 7822.1c-395.88,113.08 -225.48,683.52 156.91,582.47 387,-102.17 227.28,-692.17 -156.91,-582.47zm14.27 98.69c-235.37,80.37 -136.23,462.76 127.24,383.63 228.4,-68.68 137.69,-474.22 -127.24,-383.63z"/>
   <path class="fil3" d="M994.75 7202.95l0 353.18c138.35,123.93 228.48,54.46 464.65,174.24 120.55,61.15 293.8,198.15 334.78,301.25l121.13 -30.28c-56.54,-177.69 -331.26,-361.97 -535.95,-430.85 -47.01,-15.81 -226.33,-53.36 -251.86,-68.37 -20.78,-18.22 -35.29,-254.62 15.27,-273.45 14.41,-5.37 15.45,-6.45 33.64,-10.92 155.22,-38.2 251.71,-26.51 434.1,-128.49 123.71,-69.14 271.79,-190.41 327.77,-305.18 -32.77,-27.34 -65.73,-36.03 -115.34,-45.98 -90.14,206.31 -386.21,316.02 -619.7,353.63 -144.03,23.22 -140.06,4.23 -208.49,111.22z"/>
   <path class="fil3" d="M2519.03 6777.92c49.13,122.35 219.07,253.23 328.08,312.53 174.93,95.14 301.81,85.25 494.19,140.33l5.07 277.1c-301.14,47.21 -559.52,154.84 -737.64,382.68 -31.91,40.83 -52.94,56.26 -64.37,106.93l100.17 38.72c73.06,-73.74 77.42,-121.04 180.16,-198.08 197.93,-148.38 282.32,-158.7 523.48,-211.81 136.86,-30.15 119.28,-99.54 117.47,-249.64 -4.34,-359.74 -46.05,-219.26 -408.22,-327.34 -167.42,-49.97 -354.85,-183.22 -422.99,-310.7l-115.4 39.28z"/>
   <path class="fil1" d="M8053.63 7032.59c-35.75,-11.92 -72.17,-41.14 -93.64,-45.07 -47.2,-8.55 -61.37,27.2 -109.7,37.76 -96.22,21.14 -181.87,-33.27 -190.86,-108.58l418.92 -3.03c15.63,-468.72 -464.33,-433.2 -564.82,-170.63 -152.08,397.79 439.05,551.9 540.1,289.55zm-398.47 -232.67l278.2 -0.12c-22.37,-67.44 -49.8,-112.62 -138.37,-112.85 -80.26,-0.22 -127.47,45.3 -139.83,112.97z"/>
   <path class="fil1" d="M6970.52 7047.99c-114.88,-109.59 -97.01,-54.07 -194.12,-25.85 -98.02,28.66 -197.38,-27.99 -202.89,-106.67l419.71 -1.02c36.76,-429.93 -444.89,-453.88 -561,-181.64 -146.8,344.29 311.92,579.32 538.3,315.18zm-399.26 -250.21l276.63 2.92c-23.72,-72.05 -50.7,-116.33 -138.71,-114.65 -82.61,1.69 -118.36,45.41 -137.92,111.73z"/>
   <path class="fil1" d="M5781.21 7143.99l143.38 1.03c13.03,-140.63 -58.39,-441.98 121.69,-446.66 184.91,-4.82 97.78,306.8 119.93,445.83 160.65,9.15 145.42,21.28 142.34,-134.02 -1.62,-80.69 8.8,-211.86 -7.5,-284.83 -18.37,-82.36 -62.93,-138.95 -135.4,-159.5 -138.26,-39.21 -150.12,17.45 -235.78,49.93l-2.5 -260.61 -143.01 -5.14 -3.15 793.97z"/>
   <path class="fil2" d="M5733.98 8307.91c-24.62,-31.03 -41.93,-39.23 -84.98,-52.72 -122.52,106.56 -333.94,62.61 -335.86,-98.24l449.95 -0.11c26.75,-394.2 -412.52,-457.37 -545.49,-169.06 -75.19,163.33 18.21,326.31 115.78,383.63 137.58,80.93 331.13,43.95 400.6,-63.5zm-426.23 -240.77l345.3 0.34c-14.16,-99.82 -59.35,-158.94 -171.53,-157.25 -100.26,1.35 -157.58,64.97 -173.77,156.91z"/>
   <path class="fil2" d="M10165.91 8399.2l0 -434.49c-45.5,-72.29 -54.41,-129.78 -157.78,-149.33 -106.66,-20.18 -184.97,26.45 -221.41,83.11 -20.65,-14.25 -190.78,-182.53 -308.65,-24.63 -32.16,-37.93 -14.38,-60.78 -126.15,-44.86l-0.1 567.52 105.12 -2.2c0.55,-224.98 -46.63,-483.47 130.63,-483.8 190.18,-0.35 99.56,336.35 123.16,488.56l95.33 0c26.49,-148.23 -70.89,-490.23 134.21,-488.43 185.21,1.64 120.78,344.95 121.25,489.3l104.39 -0.75z"/>
   <path class="fil2" d="M8747.49 7898.76c25.17,34.73 34.5,35.63 63.84,53.51 138.03,-58 275.27,-102.74 287.97,106.67 -163.54,1.68 -416.45,-7.99 -392.17,206.7 8.88,78.68 79.92,134.32 160.51,145.56 102.4,14.17 176.81,-33.83 225.93,-71.6 24.73,75.65 -18.54,62.84 98.8,58.12 41.82,-88.24 19.34,-436.35 -30.12,-511.1 -74.75,-113.19 -332.26,-90.59 -414.76,12.14zm74.86 289.33c-20.8,103.97 20.23,155.9 143.87,138.25 109.59,-15.62 140.05,-71.6 129.15,-185.69 -137.47,1.35 -173.55,-4.83 -273.02,47.44z"/>
   <path class="fil1" d="M5200.07 7095.75c43.86,54.42 -8.96,39.09 56.8,50.29 22.54,3.83 80.49,-1.1 104.87,-3.41l3.7 -567.19 -148.05 -4.23c0.88,96.5 25.24,375.09 -47.38,423.43 -55.63,37.03 -134.72,21.93 -162.47,-18.28 -39.21,-56.83 -21.23,-314.61 -22.44,-402.07l-147.54 -3.87c-0.7,128.94 -17.49,378.64 28.23,475.85 54.1,115.05 232.88,167.15 334.28,49.48z"/>
   <path class="fil2" d="M6880.61 8265.56l-83.5 -60.91c-265.51,231.23 -507.46,33.07 -512.49,-192.94 -6.74,-303.32 330.84,-406.37 509.12,-216.04 34.63,-14.7 55.63,-30.47 91.77,-44.8 -114.93,-259.95 -712.58,-219.67 -719.06,246.49 -2.72,195.51 113.8,334.5 252.48,389.26 174.48,68.89 392.88,4.1 461.68,-121.06z"/>
   <path class="fil1" d="M8471.8 6950.18l0.3 60.89c-62.66,33.42 -110.85,39.5 -172.28,1.25 -2.72,-1.68 -56.48,-74.44 -162.73,11.62 46.16,178.51 404.72,174.98 473.69,25.78 51.15,-110.67 -4.88,-191.15 -95.5,-224.04 -84.01,-30.48 -254.02,-25.27 -197.71,-125.74 146.51,-85.82 100.7,98.39 281.83,-0.51 -28.19,-167.85 -321.04,-193.47 -411.73,-60.08 -52.67,77.47 -36.83,187.28 39.02,235.22 77.83,49.2 172.75,38.83 245.11,75.61z"/>
   <path class="fil2" d="M7788.43 7892.49c-13.25,-72.48 22.08,-3.53 -21.13,-67.51l-87.64 -2.2 2.46 577.17 93.93 0.58c40.41,-173.99 -69.35,-473.68 146.9,-489.49 242.73,-17.75 123.75,311.05 162.78,486.93l95.89 2.11c5.96,-167.23 33.76,-418.78 -58.58,-518.44 -95.59,-103.19 -260.82,-90.24 -334.61,10.85z"/>
   <path class="fil2" d="M4574.36 7926.94l-0.37 225.75c0,271.61 284.79,339.46 385.39,181.43l12.27 32.93c19.5,30.13 -5,9.42 21.13,24.42 22.98,13.21 58.64,7.83 86.24,7.96l0.15 -575.43 -105.04 0.51c-1.1,139.02 39.06,374.06 -55.61,456.35 -48.38,42.08 -150.97,44.63 -198.09,-2.1 -63.58,-63.04 -41.18,-347.89 -41.61,-455.35l-104.99 0 0.53 103.53z"/>
   <path class="fil3" d="M1902.88 8228.37c-2.2,45.48 35.7,247.52 49.95,292.68 37.21,117.9 141.75,91.87 269.45,91.72 105.17,-0.13 232.49,22.6 277.08,-69.85 11.9,-24.67 57.91,-272.16 60.56,-305.57l-89.72 -40.94c-14.88,11.84 -19.08,3.28 -35.13,56.46l-41.23 240.55 -327.44 -0.93 -54.23 -296.25 -109.29 32.13z"/>
   <path class="fil3" d="M2396.54 6163.27l-339.66 0c-78.61,95.62 -107.02,244.46 -125.47,389.81l105.16 33.14 77.02 -305.05 230.47 -0.48 73.75 304.8c58.89,-13.85 65.67,-17.22 110.7,-42.63 -45.49,-189.39 -38.5,-300.87 -131.97,-379.59z"/>
   <path class="fil1" d="M7260.39 6644.5l-29.25 -73.88 -131.7 -0.81 -1.6 573.12 148.13 0.48c13.9,-372.18 -54.77,-393.04 189.75,-436.27l2.83 -143.5c-84.46,-12.98 -150,35.75 -178.16,80.86z"/>
   <polygon class="fil1" points="5500.04,7142.36 5642.26,7145.84 5647.24,6352.8 5503.65,6349.93 "/>
   <path class="fil2" d="M8369.01 7814.07c-33.26,17.38 -15.4,2.83 -38.94,10.16l-23.82 7.83c-4.01,1.44 -9.16,3.72 -12.5,4.95 -3.4,1.27 -8.81,2.84 -12.71,5.27l1.03 70.61 89.76 15.16c-6.57,228.99 -56.88,526.88 234.2,469.87l2.95 -84.36 -113.15 -15.18c-36.48,-99.83 -20.03,-251.89 -20.58,-371.44l132.15 -5.12 1.38 -89.76 -123.51 -10.8 -12.65 -117.77 -97.14 -0.25 -6.47 110.83z"/>
   <path class="fil0" d="M2860.56 7171.27c-16.24,119.19 -39.92,322.57 10.74,430.95l104.91 -37.81c-17.53,-179.23 -8.4,-203.58 -0.48,-372.21 -19.89,-5.18 -44.92,-15.76 -59.2,-18.88l-55.97 -2.05z"/>
   <path class="fil0" d="M1478.16 7201.99c20.32,181.07 16.63,195.36 0.4,366.82l115.17 40.83c31.82,-367.11 26.4,-87.84 3.44,-453.73l-119.01 46.08z"/>
  </g>
 </g>
</svg>
