<?xml version="1.0" encoding="UTF-8"?>
<!DOCTYPE svg PUBLIC "-//W3C//DTD SVG 1.1//EN" "http://www.w3.org/Graphics/SVG/1.1/DTD/svg11.dtd">
<!-- Creator: CorelDRAW 2021 (64 Bit) -->
<svg xmlns="http://www.w3.org/2000/svg" xml:space="preserve" width="110mm" height="160mm" version="1.1" style="shape-rendering:geometricPrecision; text-rendering:geometricPrecision; image-rendering:optimizeQuality; fill-rule:evenodd; clip-rule:evenodd"
viewBox="0 0 11000 16000"
 xmlns:xlink="http://www.w3.org/1999/xlink"
 xmlns:xodm="http://www.corel.com/coreldraw/odm/2003">
 <defs>
  <style type="text/css">
   <![CDATA[
    .str0 {stroke:#373435;stroke-width:70.57;stroke-miterlimit:22.9256}
    .fil2 {fill:none}
    .fil0 {fill:#373435}
    .fil1 {fill:#373435;fill-rule:nonzero}
   ]]>
  </style>
 </defs>
 <g id="Camada_x0020_1">
  <metadata id="CorelCorpID_0Corel-Layer"/>
  <g id="_2484390550016">
   <path class="fil0" d="M6782.72 4867.75c-40.23,-27.48 -28.15,-34.9 -81.69,-65.43 -16.27,-9.32 -26.92,-14.55 -43.94,-25.39l-61.15 -37.75c15.78,166.04 35.38,202.66 186.49,218.26l1.05 159.67c-38.14,-52.4 -138.47,-115.55 -189.73,-145.5 1.43,54.87 13.5,119.16 39.37,163.76 32.43,56.21 65.91,58.11 146.84,62.96l4.76 158.16c-64.58,-61.54 -133.05,-84.93 -188.97,-143.51 -7.61,150.07 41.46,217.02 186.49,234.23l1.05 158.54c-34.71,-56.59 -136.19,-113.84 -190.21,-145.41 12.84,235.47 84.74,189.44 189.35,235.47l1.53 149.31c-69.24,-69.23 -126.59,-84.26 -189.35,-143.79 -1.34,217.59 84.73,197.81 186.49,232.33l2.19 161.49c-25.01,-44.89 -136.66,-115.36 -190.68,-146.37 9.32,120.78 26.34,190.59 137.8,222.54 3.9,1.14 7.8,2 11.61,3.14l17.02 25.01c-21.4,15.31 -5.04,4.19 -26.34,17.88 -15.6,9.99 -23.02,12.08 -41.75,27.2 -126.21,101.38 -167.1,400.76 -407.04,627.96 -224.35,212.37 -456.02,337.71 -854.97,337.24 -501.29,-0.67 -880.65,-280.46 -1060.68,-706.33 -39.47,-93.49 -95.39,-215.41 -182.6,-264.19 -49.74,-27.87 -79.31,-5.52 -100.33,-53.74 123.25,-57.91 172.32,-2.47 187.54,-232.81 -73.61,51.45 -124.01,76.56 -185.83,133.05l-5.04 -154.16c150.26,-10.27 185.17,-68.28 190.21,-224.54l-187.64 130.86 -1.81 -142.08c125.92,-46.79 173.47,-3.99 190.78,-231.57l-190.78 126.29c-0.85,-145.69 -27.1,-128.1 65.53,-153.49 96.24,-26.44 122.01,-107.37 123.15,-218.26 -38.13,28.05 -144.93,106.89 -187.63,130.95l-0.48 -143.6c132,-52.69 174.23,-7.8 190.02,-230.34l-187.36 132.29 -3.89 -139.71c63.43,-36.42 97.67,1.24 146.26,-67.23 31.58,-44.61 42.61,-107.28 43.18,-170.33 -38.99,28.34 -37.85,33.76 -92.92,65.14 -46.31,26.44 -54.96,44.7 -95.1,64.86 -9.7,-261.91 125.25,-165.57 34.81,-426.44l-60.39 -131.05c-44.89,54.21 -76.75,149.69 -84.36,218.17 -15.88,141.7 49.17,146.64 61.63,242.6l-192.2 -124.2c6.75,60.1 17.21,124.39 45.55,162.34 39.37,52.69 96.44,39.09 145.41,68.19l1.34 141.89c-57.83,-44.79 -124.02,-94.34 -191.26,-130.58 5.24,86.83 20.26,179.27 103,208.75l64.96 20.07c3.61,1.52 8.46,4.28 11.41,5.61 3.04,1.33 8.08,3.43 11.5,6.09l-18.73 115.64 -172.99 -109.17c28.15,234.71 64.1,167.38 190.39,231.38l2.38 133.33c-4.47,-2.09 -9.7,-9.89 -11.51,-6.94l-80.45 -54.3c-39.66,-24.25 -61.53,-43.18 -100.53,-61.53 14.55,175.27 31.2,185.16 190.97,221.49l2.09 153.49c-35.57,-15.02 -127.34,-101.66 -193.25,-128.1 17.69,184.31 35.76,172.99 184.79,218.26l-13.03 132.19c-19.02,-13.79 -10.56,-8.17 -27.3,-20.35l-144.65 -88.82c12.94,147.31 42.23,219.21 191.54,221.49l0 133.24c-21.59,15.12 -151.02,458.11 -124.58,455.25l174.41 -18.83c0.67,-0.09 6.76,-18.35 -7.13,-48.88 -21.02,-46.12 -57.63,-108.61 -63.53,-170.71 -8.65,-90.73 84.07,-212.46 87.12,-210.17l20.82 16.26c0,0 -27.01,35.85 -54.01,84.07 -13.22,23.58 -16.84,52.4 -24.54,82.07 -8.56,33.38 12.36,95.58 64.76,200.1 16.84,33.66 -1.23,69.8 -4.47,69.9l-191.82 8.94c-164.24,7.99 -373.85,47.83 -552.16,8.08 -54.21,-12.17 -96.72,-35.95 -149.03,-38.23 8.18,85.5 53.64,128.58 78.18,191.73 -46.51,52.21 -60.11,55.35 -75.32,133.43 231,77.6 441.08,80.17 711.74,38.99 4.47,48.5 21.4,81.5 1.9,100.71 -0.28,0.19 44.23,4.57 102.33,-7.89 30.34,-6.47 60.68,-6.85 83.69,-19.59 0,0 -59.63,-105.76 -59.63,-105.76l23.88 -13.5c0,0 57.44,86.45 64.38,110.03 10.46,35.95 25.01,271.23 10.84,280.36 0,0 -10.55,-10.65 -10.55,-10.65 0,0 -12.08,18.17 -12.08,18.17 2.95,0 3.14,-75.9 -0.48,-144.08 -2.95,-55.73 -9.98,-106.71 -10.17,-106.61 -24.45,9.32 -52.41,13.12 -79.61,18.26 -90.53,17.21 -134.18,6.27 -137.61,7.22 -7.42,2.19 -15.69,-8.75 -26.72,-7.22 -53.07,7.7 -149.88,7.79 -321.35,1.52 -156.54,-5.71 -219.02,-42.32 -353.88,-62.48 15.5,64.57 65.53,122.68 70.95,165.47 7.99,62.68 -53.36,82.46 -72,149.22 194.2,110.7 529.15,102.23 745.04,57.25 69.33,-14.46 151.88,-23.87 192.58,-88.25 1.05,-1.72 3.33,-5.9 5.33,-8.47 168.33,169.85 284.54,299.86 550.07,414.65 563.29,243.46 1435.76,203.99 1889.78,-215.98 61.81,-57.16 207.04,-180.79 229.86,-265.72 66,97.29 -39.28,101.95 170.14,134.29 177.65,27.39 360.34,46.6 538.94,10.27 82.46,-16.83 171.47,-28.91 235.86,-79.98 -20.35,-55.26 -50.98,-65.81 -77.32,-125.92l85.31 -182.4c-322.31,82.07 -380.7,88.16 -731.15,67.9 -63.81,9.41 -136.19,-0.19 -215.31,-23.49 -3.9,26.06 -4.85,52.4 -3.9,79.51l11.22 118.59 -27.2 2.28c-11.03,-104.33 -16.17,-162.62 -2.28,-239.66l63.81 -107.37 22.83 13.51 -59.92 107.08c58.01,21.78 127.53,30.05 206.94,26.73l1.81 -81.03c162.63,-25.2 472.19,58.01 706.33,-89.49 -23.3,-57.73 -85.88,-94.15 -75.89,-146.46 9.51,-49.26 66.85,-108.42 76.36,-174.7 -306.04,89.96 -597.62,119.73 -921.82,28.15 -15.6,77.6 10.46,189.06 -35.38,245.65 -129.63,159.58 -218.07,313.55 -401.53,438.99 -242.32,165.76 -503.18,232.33 -856.39,280.46 -246.51,33.47 -726.49,-120.5 -897.77,-218.07 -120.78,-68.86 -223.59,-151.5 -307.47,-252.31 -43.36,-52.21 -75.98,-100.33 -116.5,-163.86 -56.2,-88.35 -88.44,-77.42 -82.07,-226.92 3.52,2.86 8.18,3.05 9.8,9.32l247.74 350.55c521.06,592.39 1618.26,571 2157.3,-3.04 334.29,-355.97 205.04,-362.34 269.33,-500.34 0,0 0.1,-16.16 2.76,-25.39 2.85,-10.08 6.37,-21.21 14.74,-33.47 38.23,-55.45 77.6,-130.77 61.44,-206.38 -9.42,-43.74 -43.18,-89.39 -83.12,-135.04l20.06 -17.12c0,0 84.17,79.22 93.49,185.35 4.94,57.45 -18.74,100.24 -78.84,207.61 -9.04,16.26 -5.8,36.14 -5.8,36.14 52.4,24.44 95.2,36.52 167.85,33 47.36,-83.97 24.25,-188.02 -7.41,-278.93 -25.97,-74.75 -54.4,-97.77 -111.37,-138.66 -38.9,-27.96 -52.78,-34.43 -40.7,-91.97 14.26,-68.38 177.46,-4.75 188.49,-266 -53.54,31.29 -123.25,92.16 -186.59,128.48l-1.71 -128.29 35.47 -14.26c42.8,-14.27 81.98,-20.74 107.09,-57.73 28.24,-41.56 41.37,-107.94 46.98,-169.85 -58.78,36.14 -118.22,85.3 -189.45,123.63l0.48 -133.71c115.07,-54.88 180.03,-11.99 187.44,-236.81 -50.21,36.42 -128.76,94.72 -185.92,128.01l-1.71 -128.96c54.3,-28.15 100.43,-9.61 143.22,-71.61 28.53,-41.28 40.99,-109.85 45.46,-169 -50.31,30.15 -121.83,88.16 -189.63,123.73 0.19,-243.27 51.73,-75.13 141.6,-194.68 30.63,-40.7 46.03,-115.07 45.75,-176.03 -49.74,42.32 -128.01,97.57 -185.17,128.01l-1.52 -130.1c139.52,-55.16 175.75,-40.9 188.78,-240.23 -60.96,35.66 -118.78,85.88 -189.73,124.2 24.44,-101.85 81.79,-103.75 58.01,-244.41 -6.37,-37.66 -60.48,-188.68 -79.79,-219.4 -65.43,77.13 -139.13,261.34 -51.73,407.89 33.85,56.87 25.39,90.44 20.35,169.28zm-2903.67 2509.38l-28.53 -196.39 73.61 -10.65c15.12,-2.19 27.3,-1.9 37,0.66 9.7,2.76 17.59,7.9 23.96,15.41 6.28,7.42 10.18,15.69 11.51,24.73 1.24,8.37 0,16.64 -3.43,24.63 -3.51,8.08 -9.51,15.12 -17.97,20.92 12.36,1.81 22.35,6.37 29.96,13.89 7.61,7.41 12.27,16.92 13.98,28.34 1.33,9.22 0.57,18.07 -2.28,26.53 -2.67,8.46 -6.57,15.22 -11.61,20.35 -5.13,5.04 -11.79,9.42 -20.16,12.84 -8.27,3.33 -18.73,5.99 -31.29,7.89l-74.75 10.85zm9.42 -117.55l42.51 -6.18c11.51,-1.71 19.68,-3.62 24.53,-5.9 6.28,-2.95 10.75,-6.94 13.41,-11.98 2.76,-5.04 3.62,-11.03 2.57,-17.88 -0.95,-6.66 -3.33,-12.08 -7.23,-16.55 -3.8,-4.56 -8.84,-7.32 -14.93,-8.37 -5.99,-0.95 -16.07,-0.38 -30.24,1.62l-39.18 5.71 8.56 59.53zm13.22 90.73l48.88 -7.14c8.37,-1.23 14.26,-2.37 17.59,-3.51 5.8,-1.91 10.56,-4.38 14.17,-7.52 3.71,-3.04 6.47,-7.22 8.37,-12.36 2,-5.23 2.38,-10.94 1.52,-17.12 -1.14,-7.42 -3.9,-13.5 -8.46,-18.35 -4.57,-4.95 -10.27,-7.99 -17.31,-9.13 -6.94,-1.33 -16.64,-0.95 -29.1,0.85l-45.46 6.56 9.8 67.72zm-179.94 -155.02l26.25 -1.62 7.04 114.41c1.14,19.88 -0.19,35.76 -3.9,47.74 -3.8,11.99 -11.32,22.07 -22.54,30.06 -11.32,7.98 -26.44,12.64 -45.46,13.79 -18.54,1.14 -33.95,-1.15 -46.12,-6.76 -12.18,-5.8 -21.02,-14.45 -26.82,-26.24 -5.8,-11.8 -9.32,-28.16 -10.56,-49.17l-7.04 -114.41 26.35 -1.62 6.94 114.32c1.05,17.21 3.42,29.86 7.04,37.75 3.71,7.99 9.51,13.98 17.59,17.88 8.08,3.99 17.69,5.52 28.91,4.85 19.12,-1.14 32.53,-6.37 40.14,-15.6 7.7,-9.22 10.65,-26.15 9.13,-51.07l-6.95 -114.31zm-386.59 109.18l24.63 2.09c-0.57,10.08 0.67,18.55 3.81,25.58 3.14,7.04 8.75,13.22 16.93,18.74 8.27,5.42 17.78,9.13 29,11.13 9.8,1.71 18.74,1.9 26.82,0.28 8.08,-1.62 14.36,-4.75 18.93,-9.13 4.66,-4.56 7.41,-9.79 8.55,-15.79 1.05,-6.08 0.2,-11.79 -2.47,-16.92 -2.76,-5.24 -7.99,-10.09 -15.59,-14.65 -4.85,-2.95 -15.89,-8.18 -33.1,-15.69 -17.12,-7.42 -29.01,-13.79 -35.47,-18.83 -8.56,-6.56 -14.27,-13.89 -17.6,-21.88 -3.33,-8.08 -4.09,-16.64 -2.57,-25.58 1.81,-9.98 6.28,-18.64 13.32,-26.25 7.13,-7.51 16.36,-12.65 27.96,-15.12 11.51,-2.57 23.87,-2.76 37.09,-0.38 14.36,2.47 26.82,7.13 36.99,13.79 10.18,6.56 17.5,14.93 21.88,25.11 4.28,10.08 5.61,20.92 4.09,32.52l-25.21 -2.56c0.86,-12.46 -1.9,-22.64 -8.46,-30.34 -6.66,-7.61 -17.4,-12.75 -32.43,-15.41 -15.69,-2.76 -27.48,-1.9 -35.76,2.57 -8.08,4.37 -12.93,10.75 -14.36,18.73 -1.23,7.04 0.29,13.32 4.57,18.74 4.18,5.33 16.35,12.36 36.52,20.83 20.06,8.46 33.76,15.12 40.99,20.06 10.36,7.23 17.59,15.31 21.58,24.35 4.09,8.94 5.04,18.64 3.14,29.1 -1.8,10.46 -6.46,19.69 -14.07,27.77 -7.52,8.08 -17.31,13.7 -29.29,16.83 -12.08,3.14 -25.02,3.52 -39,1.05 -17.59,-3.14 -31.95,-8.37 -42.98,-15.69 -11.03,-7.13 -18.93,-16.55 -23.87,-28.15 -5.04,-11.51 -6.47,-23.87 -4.57,-36.9zm490.92 -430.15l20.35 -6.66c4,9.8 9.51,16.65 16.26,20.45 6.76,3.71 14.17,4.75 22.26,2.85 9.7,-2.37 17.02,-7.89 21.87,-16.64 4.85,-8.84 5.9,-19.21 3.05,-31.19 -2.76,-11.32 -7.99,-19.59 -15.89,-24.64 -7.8,-5.13 -16.93,-6.37 -27.39,-3.89 -6.46,1.52 -11.79,4.37 -16.26,8.55 -4.47,4.09 -7.51,8.94 -9.41,14.27l-19.4 1.81 -4.19 -87.12 80.46 -19.11 4.47 19.02 -64.48 15.31 1.71 45.84c8.08,-9.13 17.5,-14.93 28.24,-17.5 13.98,-3.33 27.11,-1.24 39.19,6.28 12.08,7.51 19.97,18.92 23.58,34.33 3.52,14.74 2.28,28.43 -3.8,41.08 -7.23,15.6 -19.88,25.59 -37.85,29.87 -14.74,3.42 -27.77,2.18 -38.99,-3.9 -11.32,-6 -19.31,-15.7 -23.78,-29.01zm-166.81 20.35l20.92 -4.94c3.14,10.08 7.99,17.4 14.46,21.68 6.37,4.28 13.69,5.9 21.87,4.66 9.89,-1.52 17.6,-6.37 23.21,-14.74 5.61,-8.37 7.51,-18.64 5.61,-30.81 -1.71,-11.51 -6.28,-20.17 -13.7,-25.87 -7.41,-5.71 -16.35,-7.71 -27.01,-6.09 -6.56,0.95 -12.17,3.33 -16.92,7.13 -4.76,3.71 -8.28,8.28 -10.56,13.41l-19.5 0.19 3.14 -87.11 81.7 -12.36 2.85 19.21 -65.53 9.98 -2.09 45.75c8.84,-8.37 18.64,-13.32 29.58,-15.03 14.26,-2.19 27.2,1.05 38.51,9.51 11.42,8.47 18.36,20.45 20.74,36.14 2.28,15.03 -0.1,28.53 -7.23,40.7 -8.56,14.94 -21.88,23.78 -40.23,26.54 -14.93,2.28 -27.87,-0.1 -38.52,-7.04 -10.74,-6.94 -17.88,-17.31 -21.3,-30.91zm-141.7 -48.31c-8.37,-3.52 -14.36,-8.37 -18.07,-14.36 -3.81,-5.99 -5.42,-13.03 -4.95,-21.11 0.67,-11.99 5.61,-21.88 14.84,-29.68 9.13,-7.7 21.02,-11.22 35.47,-10.36 14.46,0.85 25.87,5.8 34.24,14.83 8.37,8.94 12.17,19.5 11.51,31.58 -0.48,7.7 -2.86,14.36 -7.33,19.78 -4.28,5.52 -10.74,9.61 -19.21,12.08 10.08,3.99 17.41,9.79 22.35,17.59 4.85,7.71 6.94,16.64 6.37,27.01 -0.85,14.27 -6.56,25.87 -17.21,34.9 -10.65,9.13 -24.16,13.13 -40.51,12.18 -16.46,-0.95 -29.39,-6.57 -38.9,-16.84 -9.42,-10.46 -13.79,-22.73 -12.93,-37.28 0.66,-10.84 3.99,-19.78 9.89,-26.72 5.99,-7.04 14.17,-11.51 24.44,-13.6zm-2 -34.81c-0.47,7.8 1.62,14.46 6.37,19.69 4.66,5.32 11.13,8.27 19.31,8.75 7.89,0.47 14.55,-1.71 19.87,-6.37 5.24,-4.66 8.09,-10.56 8.47,-17.79 0.47,-7.51 -1.62,-13.98 -6.56,-19.4 -4.85,-5.42 -11.13,-8.37 -18.93,-8.84 -7.89,-0.48 -14.45,1.71 -19.88,6.46 -5.32,4.57 -8.27,10.46 -8.65,17.5zm-11.32 76.46c-0.38,5.9 0.67,11.51 3.05,17.22 2.37,5.61 6.27,9.98 11.5,13.41 5.33,3.23 11.13,5.13 17.41,5.42 9.79,0.66 18.07,-2 24.72,-7.89 6.66,-5.9 10.28,-13.7 10.85,-23.4 0.57,-9.89 -2.19,-18.26 -8.18,-25.11 -6.18,-6.75 -14.17,-10.46 -24.06,-11.03 -9.7,-0.57 -17.88,2.09 -24.44,8.08 -6.66,6 -10.28,13.79 -10.85,23.3zm-107.75 39.85l-20.16 -3.14 19.59 -128.95c-5.61,3.89 -12.74,7.6 -21.4,10.93 -8.65,3.52 -16.26,5.9 -22.92,7.23l2.95 -19.59c12.18,-3.52 23.02,-8.47 32.62,-14.84 9.7,-6.18 16.84,-12.65 21.4,-19.21l13.12 2 -25.2 165.57zm3162.54 -82.64l12.65 -19.12c7.89,4.95 15.31,7.71 22.44,8.28 7.13,0.57 14.74,-1.33 22.73,-5.42 8.08,-4.38 15.31,-10.47 21.78,-18.64 5.8,-7.23 9.89,-14.46 12.08,-21.78 2.18,-7.23 2.56,-13.79 0.95,-19.4 -1.62,-5.71 -4.57,-10.46 -9.04,-13.98 -4.47,-3.52 -9.41,-5.33 -14.93,-5.42 -5.42,-0.1 -11.6,2.09 -18.73,6.27 -4.47,2.57 -13.6,9.32 -27.3,19.88 -13.69,10.65 -24.06,17.5 -31,20.54 -9.04,4 -17.59,5.52 -25.68,4.66 -7.89,-0.95 -15.12,-3.99 -21.78,-9.32 -7.32,-5.8 -12.36,-13.22 -15.4,-22.35 -3.05,-9.13 -3.05,-18.83 0,-29.38 3.04,-10.56 8.37,-20.64 16.07,-30.25 8.46,-10.55 17.69,-18.64 27.58,-24.06 9.89,-5.32 19.87,-7.61 29.96,-6.66 10.17,0.96 19.59,4.57 28.24,11.04l-13.12 19.3c-9.8,-6.27 -19.31,-8.46 -28.44,-6.46 -9.13,1.99 -18.07,8.46 -26.82,19.59 -9.13,11.41 -13.79,21.49 -13.69,30.05 -0.1,8.65 3.04,15.31 8.94,20.07 5.13,4.08 10.84,5.61 17.21,4.56 6.18,-1.05 17.12,-7.89 33,-20.54 15.79,-12.56 27.2,-20.73 34.43,-24.44 10.46,-5.14 20.16,-7.52 29.29,-6.85 9.03,0.76 17.5,4.18 25.11,10.27 7.7,6.18 13.12,13.98 16.26,23.68 3.33,9.8 3.61,20.26 0.76,31.38 -2.76,11.23 -8.18,21.78 -16.36,32.05 -10.46,13.03 -20.82,22.35 -31.67,28.06 -10.74,5.8 -21.87,8.08 -33.47,7.04 -11.51,-1.05 -22.26,-5.33 -32.05,-12.65zm-75.8 194.96l-133.43 -125.92 16.65 -17.59 133.42 125.82 -16.64 17.69zm-197.53 174.23l-113.26 -144.27 19.11 -15.03 100.05 127.34 70.95 -55.63 13.22 16.93 -90.07 70.66zm-326.39 69.33c-14.26,-26.92 -18.07,-51.83 -11.79,-74.66 6.37,-22.82 21.02,-40.32 43.94,-52.4 15.02,-7.99 30.33,-11.6 46.12,-10.84 15.79,0.85 30.24,5.99 43.37,15.4 13.03,9.42 23.87,22.16 32.52,38.43 8.66,16.35 13.13,32.81 13.32,49.26 0.28,16.55 -4,31.29 -12.56,44.41 -8.65,13.13 -20.06,23.4 -34.14,30.81 -15.31,8.18 -30.81,11.7 -46.79,10.75 -15.88,-1.05 -30.34,-6.18 -43.27,-15.69 -12.93,-9.42 -23.2,-21.3 -30.72,-35.47zm22.35 -11.42c10.37,19.5 23.78,32.15 40.23,37.76 16.36,5.61 32.52,4.28 48.41,-4.19 16.16,-8.55 26.34,-21.11 30.81,-38.04 4.47,-16.92 1.14,-35.66 -9.89,-56.58 -6.94,-13.03 -15.31,-23.4 -25.01,-30.82 -9.7,-7.51 -20.16,-11.69 -31.58,-12.55 -11.5,-0.76 -22.54,1.62 -33.19,7.23 -15.21,8.08 -25.48,20.16 -30.91,36.42 -5.51,16.17 -1.71,36.43 11.13,60.77zm-258.58 168.72l-40.71 -178.89 67.62 -15.41c11.89,-2.66 21.11,-4.18 27.58,-4.37 9.13,-0.67 17.12,0.47 24.06,3.23 6.85,2.76 13.03,7.42 18.26,13.98 5.33,6.56 8.94,14.27 10.94,23.11 3.42,15.12 1.52,29.1 -5.8,41.84 -7.23,12.75 -23.59,21.88 -48.88,27.68l-45.94 10.46 16.64 72.94 -23.77 5.43zm2.38 -99.29l46.31 -10.56c15.31,-3.52 25.49,-8.75 30.53,-15.98 5.13,-7.22 6.56,-15.88 4.18,-26.24 -1.71,-7.42 -4.94,-13.41 -9.98,-17.98 -5.04,-4.37 -10.84,-6.75 -17.41,-7.13 -4.18,-0.1 -11.69,1.05 -22.35,3.42l-45.84 10.46 14.56 64.01zm-328.01 29.1c0.85,-30.43 9.79,-54.02 26.53,-70.76 16.74,-16.73 38.14,-24.72 64,-24.06 17.03,0.48 32.05,4.85 45.46,13.32 13.41,8.46 23.4,20.06 30.15,34.71 6.75,14.65 9.99,31.1 9.42,49.45 -0.48,18.45 -4.76,35 -12.65,49.46 -7.9,14.55 -18.83,25.29 -32.72,32.43 -13.98,7.22 -29,10.55 -44.89,10.08 -17.3,-0.48 -32.62,-5.04 -45.93,-13.7 -13.41,-8.75 -23.49,-20.35 -30.05,-35 -6.66,-14.55 -9.7,-29.95 -9.32,-45.93zm25.1 1.14c-0.57,22.06 4.95,39.56 16.46,52.59 11.5,12.94 26.25,19.69 44.22,20.16 18.26,0.48 33.29,-5.42 45.55,-17.97 12.18,-12.46 18.55,-30.53 19.12,-54.11 0.47,-14.84 -1.81,-27.87 -6.47,-39.19 -4.75,-11.22 -11.89,-20.06 -21.4,-26.43 -9.6,-6.38 -20.35,-9.7 -32.43,-9.99 -17.21,-0.48 -32.14,5.04 -44.79,16.45 -12.74,11.42 -19.49,30.91 -20.26,58.49zm46.98 -104.61l17.31 -34.81 29.77 0.86 -28.44 34.42 -18.64 -0.47zm-343.89 101.57l22.73 2.85c-0.95,9.23 -0.09,17.12 2.48,23.87 2.66,6.56 7.7,12.55 15.02,17.88 7.42,5.33 16.17,9.13 26.35,11.32 9.03,1.9 17.3,2.38 24.91,1.14 7.42,-1.24 13.41,-3.81 17.79,-7.7 4.37,-4.09 7.22,-8.75 8.46,-14.36 1.24,-5.62 0.57,-10.75 -1.71,-15.79 -2.38,-4.85 -7.04,-9.42 -13.89,-13.98 -4.37,-2.85 -14.45,-8.09 -29.95,-15.69 -15.6,-7.52 -26.35,-13.79 -32.24,-18.64 -7.52,-6.38 -12.75,-13.41 -15.41,-21.02 -2.76,-7.42 -3.23,-15.31 -1.43,-23.59 2,-9.13 6.47,-17.02 13.22,-23.68 6.85,-6.84 15.6,-11.12 26.44,-13.12 10.75,-1.9 22.16,-1.62 34.24,1.04 13.12,2.86 24.54,7.61 33.67,14.08 9.22,6.47 15.69,14.46 19.21,23.87 3.7,9.61 4.66,19.59 2.75,30.24l-23.2 -3.23c1.33,-11.6 -0.95,-21.02 -6.75,-28.34 -5.8,-7.23 -15.6,-12.46 -29.49,-15.41 -14.26,-3.14 -25.29,-2.85 -33,1.05 -7.7,3.8 -12.36,9.51 -13.98,16.93 -1.42,6.46 -0.19,12.27 3.52,17.4 3.62,5.14 14.65,11.98 33,20.54 18.26,8.56 30.63,15.22 37.19,20.07 9.32,7.04 15.69,14.74 19.11,23.2 3.33,8.37 4,17.5 1.91,27.11 -2.1,9.51 -6.76,17.88 -13.98,25.01 -7.33,7.32 -16.65,12.17 -27.87,14.65 -11.22,2.37 -23.11,2.28 -35.95,-0.57 -16.26,-3.52 -29.29,-8.75 -39.18,-15.89 -9.99,-7.13 -16.93,-16.07 -21.11,-26.91 -4.19,-10.84 -5.04,-22.25 -2.86,-34.33zm-283.59 -34.52l77.98 -166.15 119.93 56.3 -9.13 19.5 -97.96 -45.94 -23.87 51.07 91.58 42.89 -9.12 19.5 -91.59 -42.99 -26.63 56.69 101.76 47.74 -9.13 19.4 -123.82 -58.01zm-255.54 -144.75l105.66 -149.98 66.47 46.79c13.41,9.42 22.54,17.98 27.68,25.59 4.94,7.6 7.13,16.16 6.56,25.96 -0.66,9.7 -3.9,18.73 -9.7,27.01 -7.51,10.65 -17.31,17.12 -29.29,19.59 -12.08,2.38 -25.87,-0.48 -41.66,-8.56 3.52,6.18 5.71,11.51 6.66,15.88 2,9.32 2.85,19.88 2.38,31.58l-2.85 59.05 -24.83 -17.49 2.19 -45.08c0.67,-13.22 0.67,-23.4 0.29,-30.82 -0.38,-7.41 -1.33,-13.12 -3.05,-17.21 -1.52,-3.9 -3.61,-7.32 -6.18,-10.27 -1.9,-2.09 -5.42,-4.85 -10.55,-8.56l-22.92 -16.07 -46.98 66.57 -19.88 -13.98zm78.93 -69.81l42.61 30.06c9.03,6.27 16.74,10.36 23.2,12.07 6.38,1.72 12.37,1.53 17.98,-0.85 5.52,-2.19 9.98,-5.71 13.41,-10.65 5.04,-7.04 6.56,-14.65 4.66,-22.92 -1.9,-8.18 -8.37,-16.07 -19.5,-23.97l-47.36 -33.38 -35 49.64zm-295.67 -126.67l129.53 -129.91 93.87 93.48 -15.22 15.22 -76.56 -76.37 -39.85 39.95 71.71 71.42 -15.21 15.31 -71.62 -71.42 -44.22 44.32 79.7 79.31 -15.22 15.22 -96.91 -96.53zm-135.52 -182.6l133.14 -92.25 -34.52 -49.64 17.69 -12.27 82.74 119.35 -17.69 12.27 -34.43 -49.64 -133.05 92.25 -13.88 -20.07zm3281.79 557.11l-25.29 -196.77 26.05 -3.42 25.4 196.77 -26.16 3.42zm41.09 -482.36l-20.26 2.85 -18.26 -129.24c-4.28,5.42 -9.98,10.94 -17.31,16.74 -7.23,5.8 -13.98,10.27 -19.97,13.41l-2.76 -19.59c10.65,-6.85 19.69,-14.74 27.01,-23.59 7.52,-8.75 12.56,-16.93 14.93,-24.63l13.13 -1.81 23.49 165.86zm-324.21 506.33l-8.84 -198.2 143.13 -6.37 0.95 23.3 -116.69 5.23 2.66 60.87 109.27 -4.85 1.05 23.2 -109.27 4.95 3.04 67.43 121.54 -5.43 1.05 23.31 -147.89 6.56zm67.91 -504.71l19.21 -3.43c2.57,9.04 6.27,15.51 11.41,19.12 5.04,3.8 11.13,5.33 18.54,4.66 6.28,-0.57 11.61,-2.47 16.08,-5.9 4.56,-3.23 8.08,-7.41 10.65,-12.45 2.47,-5.14 4.47,-11.8 5.7,-20.26 1.34,-8.27 1.62,-16.64 0.86,-25.2 -0.09,-0.86 -0.28,-2.19 -0.57,-4 -3.42,6.75 -8.46,12.56 -15.22,17.31 -6.65,4.76 -14.17,7.42 -22.25,8.18 -13.79,1.24 -25.87,-2.76 -36.23,-11.89 -10.37,-9.03 -16.36,-21.78 -17.79,-38.04 -1.52,-16.93 2.19,-30.91 11.22,-42.03 8.85,-11.23 20.93,-17.41 35.76,-18.83 10.84,-0.96 20.92,1.14 30.43,6.08 9.42,5.04 16.93,12.65 22.54,23.02 5.62,10.27 9.42,25.67 11.23,46.12 1.99,21.21 1.23,38.23 -2.29,51.26 -3.42,13.03 -9.41,23.21 -17.97,30.53 -8.46,7.51 -18.74,11.7 -31,12.74 -12.94,1.24 -23.87,-1.42 -32.81,-7.89 -8.85,-6.47 -14.75,-16.17 -17.5,-29.1zm76.55 -80.84c-1.04,-11.6 -5.04,-20.64 -11.79,-26.91 -6.75,-6.28 -14.55,-9.04 -23.39,-8.28 -9.13,0.86 -16.65,5.23 -22.64,13.22 -6.08,8.09 -8.56,17.88 -7.42,29.67 0.96,10.47 4.95,18.84 11.8,24.83 6.94,5.99 15.12,8.65 24.53,7.79 9.42,-0.85 16.84,-4.94 22.35,-12.07 5.42,-7.14 7.61,-16.55 6.56,-28.25zm-235.56 29.1c-8.47,-3.23 -14.65,-7.89 -18.64,-13.79 -3.9,-5.8 -5.9,-12.74 -5.62,-20.82 0.29,-12.08 4.85,-22.16 13.79,-30.25 8.85,-8.08 20.55,-11.98 35,-11.6 14.55,0.38 26.16,4.95 34.81,13.6 8.65,8.65 12.84,19.02 12.55,31.19 -0.19,7.71 -2.37,14.46 -6.56,20.07 -4.09,5.61 -10.46,9.89 -18.73,12.74 10.17,3.62 17.68,9.23 22.82,16.74 5.23,7.52 7.61,16.45 7.42,26.82 -0.38,14.27 -5.71,25.96 -15.98,35.47 -10.36,9.42 -23.68,13.98 -40.13,13.6 -16.45,-0.47 -29.58,-5.61 -39.37,-15.5 -9.9,-10.08 -14.65,-22.25 -14.27,-36.8 0.29,-10.84 3.23,-19.88 8.94,-27.01 5.71,-7.32 13.69,-11.98 23.97,-14.46zm-3.24 -34.8c-0.19,7.89 2.09,14.45 7.04,19.49 4.85,5.14 11.41,7.89 19.69,8.09 7.89,0.19 14.36,-2.19 19.59,-7.04 5.04,-4.85 7.61,-10.84 7.8,-18.07 0.19,-7.52 -2.1,-13.98 -7.23,-19.21 -5.04,-5.23 -11.41,-7.99 -19.21,-8.18 -7.9,-0.19 -14.46,2.19 -19.69,7.13 -5.13,4.85 -7.89,10.75 -7.99,17.79zm-8.65 76.84c-0.1,5.89 1.04,11.6 3.71,17.12 2.47,5.51 6.56,9.79 11.88,12.93 5.52,3.14 11.32,4.76 17.6,4.95 9.79,0.19 17.97,-2.76 24.54,-8.85 6.37,-6.09 9.7,-14.07 9.98,-23.77 0.19,-9.89 -2.85,-18.07 -9.13,-24.73 -6.37,-6.56 -14.55,-9.99 -24.44,-10.18 -9.61,-0.28 -17.69,2.67 -24.16,8.94 -6.37,6.18 -9.7,14.08 -9.98,23.59zm-139.04 32.05l-20.35 -2.38 15.12 -129.62c-5.52,4.18 -12.46,8.08 -21.02,11.79 -8.46,3.71 -16.07,6.37 -22.63,7.99l2.28 -19.69c11.98,-3.99 22.73,-9.32 32.05,-15.98 9.51,-6.56 16.45,-13.22 20.73,-19.97l13.12 1.52 -19.3 166.34zm-40.8 447.55l37.66 -194.77 67.14 13.03c15.12,2.95 26.54,6.09 34.14,9.51 10.66,4.75 19.31,11.32 25.87,19.4 8.56,10.75 14.08,23.3 16.55,37.85 2.57,14.36 2.09,30.43 -1.24,47.74 -2.85,14.74 -7.22,27.58 -12.84,38.33 -5.61,10.75 -11.88,19.4 -18.83,25.77 -6.84,6.47 -13.88,11.22 -21.11,14.27 -7.23,3.04 -15.69,4.75 -25.11,5.32 -9.51,0.38 -20.16,-0.57 -31.95,-2.85l-70.28 -13.6zm30.24 -17.88l41.56 8.08c12.84,2.48 23.11,3.33 30.81,2.29 7.8,-1.05 14.27,-3.24 19.5,-6.76 7.23,-4.94 13.6,-12.26 18.93,-21.96 5.51,-9.7 9.6,-21.88 12.45,-36.52 3.9,-20.45 3.62,-36.81 -0.95,-48.98 -4.47,-12.36 -11.22,-21.21 -20.06,-26.82 -6.28,-3.99 -17.12,-7.42 -32.53,-10.46l-40.89 -7.9 -28.82 149.03zm-448.03 164.62l-136.18 -144.17 28.62 -27.01 130.48 69.9c12.18,6.47 21.21,11.41 27.11,14.74 -3.33,-6.75 -8.09,-16.93 -14.08,-30.43l-60.1 -133.05 25.49 -24.16 136.28 144.27 -18.36 17.31 -113.93 -120.68 71.8 160.43 -17.12 16.17 -157.68 -83.5 116.12 122.87 -18.45 17.31zm-353.78 -12.17l23.4 -12.08 52.5 101.95c9.12,17.69 14.36,32.81 15.69,45.27 1.42,12.46 -1.43,24.73 -8.47,36.61 -7.13,11.89 -19.02,22.16 -36.04,30.91 -16.55,8.56 -31.48,12.65 -44.89,12.37 -13.5,-0.38 -25.11,-4.76 -35.19,-13.13 -9.98,-8.56 -19.87,-22.06 -29.48,-40.8l-52.5 -101.85 23.4 -12.08 52.5 101.85c7.89,15.22 15.12,25.87 21.68,31.67 6.56,5.81 14.26,8.94 23.2,9.23 9.04,0.38 18.45,-2 28.44,-7.13 17.12,-8.85 27.2,-19.02 30.53,-30.53 3.23,-11.51 -0.86,-28.25 -12.37,-50.41l-52.4 -101.85zm-385.92 328.2l-33.57 -171.85 -64.2 12.55 -4.47 -22.92 154.26 -30.15 4.47 22.92 -64.29 12.56 33.67 171.85 -25.87 5.04zm-375.94 34.14l14.55 -197.81 26.34 1.9 -14.55 197.81 -26.34 -1.9zm-355.11 -130.58l6.94 -22.06 80.07 25.2 -22.06 70.09c-15.41,5.8 -30.34,9.32 -45.08,10.08 -14.64,0.86 -28.81,-0.95 -42.51,-5.23 -18.54,-5.89 -34.24,-15.12 -46.88,-27.96 -12.75,-12.65 -20.55,-27.77 -23.49,-45.27 -3.05,-17.49 -1.62,-35.47 4.18,-54.11 5.8,-18.45 15.12,-34.33 27.86,-47.84 12.75,-13.6 27.49,-21.96 44.32,-25.01 16.93,-3.33 34.71,-1.99 53.64,4 13.7,4.28 25.3,10.46 35,18.35 9.6,7.99 16.45,16.83 20.06,26.73 3.9,9.89 5.33,21.68 4.57,35.47l-24.44 -0.95c0.19,-10.56 -0.95,-19.21 -3.43,-26.06 -2.47,-6.85 -7.13,-13.12 -13.88,-18.93 -6.75,-5.7 -14.93,-10.17 -24.44,-13.12 -11.41,-3.61 -21.88,-4.95 -31.29,-4.09 -9.51,0.76 -17.69,3.33 -24.54,7.42 -6.94,4.09 -12.84,9.13 -17.88,14.93 -8.37,10.27 -14.83,22.25 -19.11,35.95 -5.33,16.83 -6.94,31.86 -4.76,45.17 2.29,13.13 8.09,24.25 17.41,33.29 9.32,9.03 20.25,15.4 32.62,19.3 10.84,3.43 22.06,4.66 33.76,3.81 11.6,-1.05 20.83,-3.05 27.67,-6.18l11.13 -35.48 -55.44 -17.5zm-399.34 -49.26l88.35 -177.56 23.59 11.7 -88.35 177.65 -23.59 -11.79zm-367.76 -259.34l132 -148.08 51.07 45.56c11.51,10.27 19.69,18.83 24.44,25.58 6.76,9.6 10.84,19.59 12.27,29.96 1.9,13.69 0.19,27.2 -5.04,40.99 -5.23,13.69 -13.79,27.19 -25.58,40.41 -9.99,11.23 -20.26,19.98 -30.62,26.35 -10.28,6.37 -20.17,10.55 -29.3,12.55 -9.22,2 -17.69,2.47 -25.48,1.43 -7.8,-1.14 -15.89,-3.9 -24.35,-8.37 -8.27,-4.47 -17.02,-10.75 -25.96,-18.64l-53.45 -47.74zm35.19 0.19l31.57 28.15c9.7,8.65 18.17,14.64 25.3,17.78 7.23,3.04 13.88,4.47 20.16,4.19 8.75,-0.57 17.97,-3.62 27.58,-9.23 9.61,-5.51 19.4,-13.88 29.29,-25.11 13.89,-15.5 21.97,-29.67 24.35,-42.51 2.38,-12.84 1.14,-23.87 -3.62,-33.28 -3.32,-6.66 -10.93,-15.22 -22.63,-25.59l-31 -27.67 -101 113.27z"/>
   <path class="fil1" d="M3088.43 8624.85l0 -498.57 175.8 0c66.61,0 109.96,2.43 130.18,7.43 31.09,7.54 57.13,23.79 78.1,48.85 20.99,25.07 31.47,57.45 31.47,97.14 0,30.64 -6.06,56.29 -18.06,77.18 -12.14,20.89 -27.43,37.25 -46.01,49.21 -18.58,11.83 -37.54,19.73 -56.75,23.56 -26.16,4.75 -63.95,7.19 -113.5,7.19l-71.27 0 0 188.01 -109.96 0zm109.96 -414.32l0 142.05 59.77 0c43.11,0 71.79,-2.66 86.33,-7.89 14.54,-5.22 25.91,-13.34 34.12,-24.6 8.22,-11.14 12.39,-24.02 12.39,-38.88 0,-18.22 -5.81,-33.19 -17.31,-45.03 -11.64,-11.84 -26.17,-19.26 -43.99,-22.28 -13.01,-2.21 -39.18,-3.37 -78.61,-3.37l-52.7 0z"/>
   <path id="_1" class="fil1" d="M3594.22 8624.85l0 -498.57 230.9 0c58.01,0 100.23,4.52 126.52,13.46 26.41,8.94 47.39,24.84 63.18,47.7 15.8,22.98 23.76,49.09 23.76,78.57 0,37.48 -11.88,68.35 -35.76,92.73 -23.89,24.37 -59.52,39.69 -107.05,46.07 23.63,12.65 43.09,26.58 58.4,41.78 15.42,15.2 36.14,42.24 62.18,81.01l66.22 97.25 -131.06 0 -78.62 -108.86c-28.18,-38.65 -47.51,-63.02 -58.01,-73.11 -10.35,-9.98 -21.35,-16.95 -32.98,-20.66 -11.75,-3.72 -30.2,-5.57 -55.48,-5.57l-22.25 0 0 208.2 -109.95 0zm109.95 -287.58l81.15 0c52.57,0 85.3,-2.09 98.44,-6.16 13.03,-4.06 23.38,-11.14 30.72,-21.12 7.45,-9.98 11.12,-22.51 11.12,-37.48 0,-16.83 -4.93,-30.29 -14.66,-40.74 -9.73,-10.33 -23.51,-16.83 -41.21,-19.5 -8.97,-1.16 -35.64,-1.74 -79.99,-1.74l-85.57 0 0 126.74z"/>
   <polygon id="_2" class="fil1" points="4141.84,8624.85 4141.84,8126.28 4543.75,8126.28 4543.75,8210.53 4251.8,8210.53 4251.8,8321.25 4523.28,8321.25 4523.28,8405.51 4251.8,8405.51 4251.8,8540.59 4554.37,8540.59 4554.37,8624.85 "/>
   <polygon id="_3" class="fil1" points="4647.63,8624.85 4647.63,8126.28 5020.72,8126.28 5020.72,8210.53 4757.58,8210.53 4757.58,8328.91 4985.08,8328.91 4985.08,8413.17 4757.58,8413.17 4757.58,8624.85 "/>
   <polygon id="_4" class="fil1" points="5110.82,8624.85 5110.82,8126.28 5512.73,8126.28 5512.73,8210.53 5220.78,8210.53 5220.78,8321.25 5492.26,8321.25 5492.26,8405.51 5220.78,8405.51 5220.78,8540.59 5523.35,8540.59 5523.35,8624.85 "/>
   <polygon id="_5" class="fil1" points="5612.82,8624.85 5612.82,8126.28 5722.77,8126.28 5722.77,8624.85 "/>
   <polygon id="_6" class="fil1" points="5949.37,8624.85 5949.37,8210.53 5788.61,8210.53 5788.61,8126.28 6219.32,8126.28 6219.32,8210.53 6059.33,8210.53 6059.33,8624.85 "/>
   <path id="_7" class="fil1" d="M6290.48 8126.28l109.96 0 0 270.17c0,42.94 1.39,70.68 4.04,83.33 4.68,20.43 15.67,36.91 33.11,49.21 17.57,12.42 41.46,18.57 71.79,18.57 30.71,0 53.96,-5.81 69.64,-17.53 15.67,-11.72 25.01,-25.99 28.18,-43.05 3.16,-17.06 4.81,-45.26 4.81,-84.72l0 -275.98 109.94 0 0 262.17c0,59.88 -2.91,102.24 -8.84,126.96 -5.94,24.72 -16.82,45.61 -32.74,62.67 -15.8,17.06 -37.02,30.52 -63.56,40.62 -26.67,10.1 -61.3,15.2 -104.14,15.2 -51.7,0 -90.88,-5.45 -117.54,-16.48 -26.67,-11.02 -47.77,-25.3 -63.32,-42.94 -15.54,-17.64 -25.66,-35.97 -30.58,-55.36 -7.21,-28.55 -10.75,-70.79 -10.75,-126.61l0 -266.23z"/>
   <path id="_8" class="fil1" d="M6838.1 8624.85l0 -498.57 230.9 0c58.02,0 100.24,4.52 126.52,13.46 26.41,8.94 47.4,24.84 63.19,47.7 15.8,22.98 23.76,49.09 23.76,78.57 0,37.48 -11.88,68.35 -35.76,92.73 -23.9,24.37 -59.53,39.69 -107.05,46.07 23.63,12.65 43.09,26.58 58.39,41.78 15.42,15.2 36.14,42.24 62.18,81.01l66.22 97.25 -131.06 0 -78.61 -108.86c-28.18,-38.65 -47.51,-63.02 -58.01,-73.11 -10.36,-9.98 -21.36,-16.95 -32.99,-20.66 -11.75,-3.72 -30.2,-5.57 -55.47,-5.57l-22.25 0 0 208.2 -109.96 0zm109.96 -287.58l81.14 0c52.58,0 85.3,-2.09 98.45,-6.16 13.02,-4.06 23.38,-11.14 30.72,-21.12 7.45,-9.98 11.12,-22.51 11.12,-37.48 0,-16.83 -4.94,-30.29 -14.66,-40.74 -9.74,-10.33 -23.51,-16.83 -41.21,-19.5 -8.97,-1.16 -35.64,-1.74 -80,-1.74l-85.56 0 0 126.74z"/>
   <path id="_9" class="fil1" d="M7874.83 8624.85l-118.42 0 -46.89 -113.5 -217.76 0 -45.11 113.5 -116.28 0 210.81 -498.57 116.14 0 217.51 498.57zm-200.94 -197.76l-75.46 -184.53 -73.3 184.53 148.76 0z"/>
   <g>
    <path class="fil0" d="M7486.34 8964.9c-634.71,132.21 -433.29,1065.66 214.03,929.76 611.19,-128.33 440.06,-1066.02 -214.03,-929.76zm38.75 225.21c-280.54,88.77 -179.43,544.05 119.77,478.35 291.36,-63.89 188.44,-575.77 -119.77,-478.35z"/>
    <path class="fil0" d="M5538.32 8966.26c-639.39,143.11 -416.35,1069.62 222.6,926.78 244.22,-54.61 424.55,-287.21 368.14,-567.39 -48.04,-237.91 -299.92,-424.46 -590.74,-359.39zm40.74 226.65c-288.2,99.49 -164.92,562.88 140.49,471.32 284.96,-85.34 151.85,-572.26 -140.49,-471.32z"/>
    <path class="fil0" d="M2563.13 9882.14l248.64 -9.46 8.02 -263.15c139.14,-0.18 115.44,14.42 175.55,106.97 36.23,55.69 76.15,110.85 110.13,167.62l286.3 2.79c-22.89,-87.86 -166.81,-224.48 -197.63,-317.85 71.92,-57.22 151.76,-92.37 169.7,-215.29 43.16,-297.58 -156.9,-383.46 -406.8,-383.19 -104.63,0.18 -298.66,-10.81 -392.29,5.59l-1.62 905.97zm254.4 -478.9c102.29,28.39 294.78,24.79 297.31,-99.85 2.61,-128.96 -174.38,-132.65 -294.69,-110.21l-2.62 210.06z"/>
    <polygon class="fil0" points="3497.83,9885.85 4235.9,9886.54 4237.36,9669.12 3751.34,9666.77 3750.76,9526.47 4182.01,9523.26 4186,9325.31 3751.63,9322.1 3750.84,9186.07 4229.14,9185.07 4230.24,8972.87 3500.85,8970.75 "/>
    <path class="fil0" d="M1708.73 9886.16l558.84 0.66c30.75,0.05 63.34,1.36 93.65,0.97l71.03 -9.99c2.41,-0.72 6.76,-2.21 9.8,-3.99l5.26 -203.47 -486.1 -3.36 2 -144.14 431.14 -0.22 -0.87 -197.31 -425.95 0.58 -7.28 -138.46 479.19 -2.38 1.53 -212.17 -729.47 -2.21 -2.77 915.49z"/>
    <path class="fil0" d="M6255.13 9885.83l249.99 0.27 3.88 -254.94c174.83,-18.66 262.33,10.54 392.38,-81.65 88.58,-62.82 155.09,-193.58 110.84,-351.2 -77.86,-277.2 -448.16,-238 -754.2,-226.29l-2.89 913.81zm253.87 -450.41c118.96,5.31 265.13,13.87 262.61,-118.42 -2.44,-127.16 -141.76,-122.92 -259.46,-115.89l-3.15 234.31z"/>
    <path class="fil0" d="M4415.27 9588.76c-43.26,56.56 -92.7,102.42 -123.62,152.66 82.3,187.98 838.06,298.09 782.11,-182.44 -32.37,-278.1 -469.63,-200.23 -486.06,-323.3 -21.82,-163.52 344.6,13.23 344.62,13.23 34.18,-40.31 96.16,-122.73 112.52,-170.38 -96.19,-117.38 -367.02,-146.92 -509.15,-103.49 -245.17,74.91 -326.14,410.68 -2.16,527.32 70.3,25.32 204.46,44.58 248.89,70.71 119.17,70.11 -13.08,132.72 -137.15,110.82 -102.87,-18.17 -177.54,-87.24 -230,-95.13z"/>
    <path class="fil0" d="M9893.92 9601.48c-8.24,108.67 -97.16,101.09 -192.79,78.56 -133.71,-31.49 -147.89,-72.41 -208.21,-89.26 -35.34,30.83 -115.78,123.02 -128.06,163.88 169.71,165.83 623.68,229.93 754.01,-10.83 146.17,-270.06 -115.65,-386.5 -315.13,-431.22 -80.36,-18.02 -165.79,-21.3 -133.78,-123.89 137.45,-71.98 239.92,40.01 340.1,61.63l113.54 -168.91c-71.72,-91.22 -256.77,-126.41 -379,-124.81 -377.75,4.95 -447.88,382.94 -215.26,510.5 100.26,54.96 271.5,64.04 364.58,134.35z"/>
    <path class="fil0" d="M802.13 9184.22c55.5,23.9 207.79,7.02 269.13,13.69l2.3 687.8 248.23 0.95c18.04,-172.91 -23.75,-562.75 12.15,-694.4l263.29 0.01 0.12 -223.51 -794.75 2.54 -0.47 212.92z"/>
    <path class="fil0" d="M8904.27 9883.08l2.8 -216.87 -434.87 -4.18 -4.05 -685.63 -254.34 -4.82c-11.53,269.31 2.71,544.57 -2.24,810.39 -2.49,133.48 -42.61,104.8 287.03,104.84 120.01,0 292.02,9.91 405.67,-3.73z"/>
    <polygon class="fil0" points="9003.75,9884.21 9254.07,9886.7 9259.56,8971.17 9005.56,8971.19 "/>
    <path class="fil0" d="M5608.64 8909.93l143.43 -241.79 217.2 73.76 -173.28 185.95c-58.76,-20.55 -123.86,-23.22 -187.35,-17.92z"/>
   </g>
   <polygon class="fil1" points="3446.31,11795.37 3446.31,11119.36 3191.65,11119.36 3191.65,10981.89 3873.94,10981.89 3873.94,11119.36 3620.48,11119.36 3620.48,11795.37 "/>
   <path id="_1_0" class="fil1" d="M4308.38 11795.37l0 -88.24c-22.82,31.43 -52.66,56.43 -89.69,75.17 -37.04,18.56 -76.08,27.84 -117.12,27.84 -42.05,0 -79.68,-8.71 -112.91,-26.13 -33.45,-17.42 -57.47,-42.04 -72.28,-73.47 -15.01,-31.63 -22.42,-75.18 -22.42,-130.85l0 -373.98 164.56 0 0 271.54c0,83.13 3,133.87 9.21,152.62 6,18.75 17.02,33.71 33.24,44.5 16.02,10.98 36.43,16.47 61.26,16.47 28.23,0 53.45,-7.38 75.88,-21.96 22.42,-14.58 37.64,-32.76 45.84,-54.54 8.21,-21.77 12.41,-74.79 12.41,-159.44l0 -249.19 164.57 0 0 589.66 -152.55 0z"/>
   <path id="_2_1" class="fil1" d="M4787.47 11795.37l-164.57 0 0 -589.66 152.56 0 0 83.69c26.22,-39.57 49.85,-65.51 70.87,-77.82 21.02,-12.31 44.85,-18.37 71.47,-18.37 37.64,0 73.87,9.85 108.71,29.35l-51.05 135.96c-27.83,-17.04 -53.65,-25.56 -77.49,-25.56 -23.21,0 -42.84,6.06 -58.85,17.99 -16.02,12.11 -28.63,33.7 -37.84,65.14 -9.21,31.43 -13.81,97.33 -13.81,197.5l0 181.78z"/>
   <path id="_3_2" class="fil1" d="M5097.58 11126.18l0 -144.29 164.57 0 0 144.29 -164.57 0zm0 669.19l0 -589.66 164.57 0 0 589.66 -164.57 0z"/>
   <path id="_4_3" class="fil1" d="M5372.46 11629.49l165.77 -23.86c7.01,30.11 21.22,53.02 42.84,68.55 21.42,15.72 51.66,23.48 90.29,23.48 42.65,0 74.68,-7.38 96.3,-22.15 14.42,-10.42 21.63,-24.43 21.63,-41.85 0,-11.74 -4.01,-21.59 -11.82,-29.35 -8.21,-7.39 -26.62,-14.39 -55.05,-20.64 -133.14,-27.84 -217.42,-53.21 -253.06,-76.12 -49.45,-32.01 -74.08,-76.32 -74.08,-132.93 0,-51.32 21.43,-94.3 64.06,-129.15 42.66,-34.84 108.71,-52.26 198.21,-52.26 85.28,0 148.75,13.26 190.2,39.58 41.44,26.51 70.06,65.51 85.68,117.21l-154.96 27.27c-6.61,-23.1 -19.42,-40.9 -38.04,-53.21 -18.62,-12.31 -45.24,-18.37 -79.88,-18.37 -43.64,0 -74.87,5.68 -93.89,17.23 -12.62,8.14 -18.82,18.75 -18.82,31.62 0,11.18 5.4,20.64 16.42,28.41 15.01,10.41 66.46,24.99 154.55,43.93 88.09,18.93 149.55,42.04 184.39,69.49 34.64,27.65 51.85,66.47 51.85,116.08 0,53.97 -23.82,100.55 -71.67,139.37 -47.65,38.82 -118.32,58.32 -212.02,58.32 -84.88,0 -152.15,-16.28 -201.8,-48.67 -49.45,-32.38 -81.89,-76.31 -97.1,-131.98z"/>
   <path id="_5_4" class="fil1" d="M6087.39 11205.71l151.36 0 0 80.48c54.24,-61.92 118.92,-92.98 193.98,-92.98 39.85,0 74.49,7.76 103.71,23.29 29.44,15.53 53.46,39.01 72.08,70.44 27.42,-31.43 57.06,-54.91 88.69,-70.44 31.64,-15.53 65.47,-23.29 101.5,-23.29 45.65,0 84.29,8.71 116.12,26.32 31.63,17.61 55.25,43.36 70.87,77.45 11.42,24.99 17.02,65.71 17.02,121.95l0 376.44 -164.56 0 0 -336.49c0,-58.51 -5.62,-96.19 -17.03,-113.05 -15.21,-22.15 -38.84,-33.32 -70.46,-33.32 -23.03,0 -44.85,6.62 -65.28,19.88 -20.21,13.44 -35.03,32.95 -44.03,58.51 -9.02,25.75 -13.42,66.28 -13.42,121.76l0 282.71 -164.57 0 0 -322.67c0,-57.18 -3,-94.3 -8.81,-110.77 -5.81,-16.66 -14.82,-29.16 -27.23,-37.3 -12.21,-8.15 -29.03,-12.12 -50.05,-12.12 -25.43,0 -48.24,6.43 -68.47,19.31 -20.41,13.07 -34.84,31.62 -43.64,56.05 -8.81,24.43 -13.22,64.95 -13.22,121.38l0 286.12 -164.56 0 0 -589.66z"/>
   <path id="_6_5" class="fil1" d="M7129.06 11493.34c0,-51.88 13.4,-102.06 40.44,-150.54 27.02,-48.66 65.26,-85.59 114.71,-111.15 49.45,-25.56 104.5,-38.44 165.57,-38.44 94.3,0 171.37,28.97 231.64,86.92 60.25,58.13 90.29,131.22 90.29,219.84 0,89.38 -30.44,163.42 -91.1,222.12 -60.86,58.7 -137.34,88.05 -229.64,88.05 -57.05,0 -111.51,-12.31 -163.36,-36.74 -51.65,-24.42 -91.09,-60.21 -118.11,-107.55 -27.04,-47.15 -40.44,-104.72 -40.44,-172.51zm169.36 8.34c0,58.51 14.62,103.38 43.85,134.44 29.43,31.24 65.46,46.77 108.5,46.77 42.85,0 78.89,-15.53 107.92,-46.77 29.03,-31.06 43.64,-76.31 43.64,-135.58 0,-57.76 -14.61,-102.25 -43.64,-133.31 -29.03,-31.24 -65.07,-46.77 -107.92,-46.77 -43.04,0 -79.07,15.53 -108.5,46.77 -29.23,31.06 -43.85,75.93 -43.85,134.45z"/>
   <line class="fil2 str0" x1="733.73" y1="10478.32" x2="10229.9" y2= "10478.32" />
   <path class="fil0" d="M4770.02 4613.27l1364.44 4.6c-477.39,-192.6 -841.71,-181.22 -1364.44,-4.6zm481.82 -648.23c-78.82,5.31 -137.42,21.99 -205.39,30.71 24.17,-83.94 2.77,-207.51 -37.08,-297.58 -102.52,-0.65 -79.35,14.73 -119.97,85.3 -1.12,2.12 -3.48,6.48 -5.95,9.14 -121.21,-117.73 -140.37,10.37 -153.93,50.81 -39.26,-8.84 -43.8,-25.05 -69.97,-47.57l-78.29 21.87c4.95,57.83 32.19,100.93 48.7,145.26 33.19,88.72 13.14,70.33 78.17,123.91l-188.65 71.69c16.04,-87.13 -52.53,-226.08 -97.8,-282.26 -92.44,12.55 -78.05,31.83 -85.83,124.68 -88.84,-44.51 -38.32,-63.37 -148.09,-11.97 2.06,37.85 88.43,173.56 114.13,203.8 73.51,4.95 134.29,25.76 165.65,82.83 38.79,9.96 16.92,-13.45 70.39,15.03 32.31,27.59 114.49,174.61 128.75,215.94 -26.35,34.19 -28.71,18.92 -50.46,55.94 16.98,35.08 20.52,31.48 31.95,74.58 -39.85,1.53 -76.28,0.76 -115.78,0.76 -36.61,0 -73.98,-3.06 -90.78,16.33 -25.88,39.5 -20.64,1558.45 3.41,1690.73 74.17,408.18 517.72,739.08 997.88,740.79 500.44,1.71 904.26,-313.57 995.63,-739.55 23.58,-109.83 27.12,-1654.65 6.31,-1691.67 -23.11,-28.89 -201.62,-15.86 -237.28,-15.21 13.97,-50.52 14.15,-35.02 31.18,-76.76l-42.74 -46.1c-1.94,-2.3 -5.6,-6.19 -7.78,-9.84 21.11,-45.75 41.21,-74.16 62.79,-114.96 93.79,-177.09 76.34,-83.47 161.64,-127.16 49.93,-88.07 89.31,-47.81 134.23,-66.97 25.29,-26.05 117.32,-173.55 123.74,-208.51 -86.66,-49.69 -76.52,-16.5 -151.5,3.3 0.76,-99.92 2.06,-95.85 -82.77,-117.54l-111.95 283.49 -181.45 -67.5c66.32,-60.19 116.72,-174.55 131.34,-276.18 -24.88,-6.67 -50.99,-20.64 -73.39,-17.51 -54.59,7.78 -13.97,16.86 -78.11,43.68 -8.14,-56.59 6.48,-72.81 -56.01,-89.55 -64.67,-17.39 -70.39,12.03 -106.05,41.56l-30.6 -79.64 -85.42 -24.11c-18.27,107.47 -68.56,186.17 -43.56,297.29l-193.78 -27.65c34.49,-91.02 57.77,-187.52 43.33,-303.3l-81.76 -0.65c-32.43,35.84 -26.24,29.3 -35.96,72.69 -40.21,-27.12 -30.13,-26.18 -62.02,-70.51l-83.89 -1.53 -40.85 68.97c-3.89,-2.65 -7.55,-10.26 -8.61,-8.02l-25.94 -31.18c-26.88,-30.72 7.9,-31.95 -104.05,-30.54 -8.07,62.73 -1.88,100.34 3.83,161.88 10.26,111.3 7.02,70.68 40.39,148.56zm-738.84 2542.29c14.56,64.19 45.09,89.31 71.62,146.14 175.85,16.38 256.56,-4.07 438.01,36.55 367.51,82.17 435.01,103.75 817.72,7.95 198.08,-49.63 247.01,-23.1 437.48,-41.26 212.75,-325.53 -542,-110 -766.9,-87.07 -149.03,15.09 -346.17,-41.33 -488.06,-63.43 -85.78,-13.45 -160.53,-26.65 -250.9,-27.83 -60.37,-0.83 -169.37,-6.72 -226.14,13.44 -34.9,12.44 -16.27,5.54 -32.83,15.51zm467.54 -502.15c-41.68,58.65 -42.92,132.76 -125.09,152.62 -35.73,-15.8 -115.14,-131.81 -153.87,-167.95 -53.35,15.15 -114.42,58.48 -148.56,89.13 -77.46,69.51 -107.46,27.95 -108.58,140.19l1997.75 3.42 -0.3 -480.1c-54.88,35.31 -61.84,62.6 -115.66,94.26 -59.25,34.78 -91.32,9.43 -151.33,44.33 -65.2,37.91 -34.13,42.68 -135.24,63.97 -70.91,15.03 -115.6,41.67 -162.88,43.21 -8.55,-19.34 -11.79,-31.31 -20.28,-46.04 -52.88,-91.56 -83.59,-3.78 -95.21,-302.54 -2.82,-75.11 9.73,-96.21 -59.42,-117.02 -32.07,82.06 -48.69,179.51 -81.23,266.52 -54.36,145.14 -118.5,48.22 -213.29,150.97 -165.89,179.51 -153.86,205.39 -313.74,132.35 -63.43,-29.01 -47.87,-55.42 -113.07,-67.32zm-156.75 -1144.96l55.77 126.51 129.57 4.07 -106.88 90.55 36.08 120.91 -121.73 -70.57 -107.41 70.57 31.59 -134.12 -102.34 -77.34 141.25 -12.27 44.1 -118.31zm466.13 377.88l0 24.35 308.67 -0.3 0.12 -24.17 -132.47 0 0 -407.24 59.48 0 0 -26.52 -155.63 0 0 26.52 57.07 0 0 407.42 -137.24 -0.06zm773.56 -377.88l55.71 126.51 129.63 4.07 -106.82 90.55 36.08 120.91 -121.73 -70.57 -107.41 70.57 31.6 -134.12 -102.46 -77.34 141.36 -12.27 44.04 -118.31zm-75.69 -683.01l-61.49 218.94 -139.3 -37.2 58.65 -224.25c45.28,-92.43 155.99,-39.38 142.14,42.51zm-633.5 -78.64l2.01 227.37 144.13 0.59 2.13 -231.86c-19.52,-101.1 -140.19,-78.81 -148.27,3.9zm-492.54 83.23l61.43 218.89 139.3 -37.2 -58.65 -224.31c-45.28,-92.37 -155.99,-39.38 -142.08,42.62zm583.56 702.29c79.71,0 144.26,64.62 144.26,144.32 0,79.64 -64.55,144.25 -144.26,144.25 -79.7,0 -144.31,-64.61 -144.31,-144.25 0,-79.7 64.61,-144.32 144.31,-144.32z"/>
  </g>
 </g>
</svg>
