<?xml version="1.0" encoding="utf-8"?>
<!-- Generator: Adobe Illustrator 25.0.0, SVG Export Plug-In . SVG Version: 6.00 Build 0)  -->
<svg version="1.1" id="Camada_1" xmlns="http://www.w3.org/2000/svg" xmlns:xlink="http://www.w3.org/1999/xlink" x="0px" y="0px"
	 viewBox="0 0 1920 1080" style="enable-background:new 0 0 1920 1080;" xml:space="preserve">
<style type="text/css">
	.st0{fill-rule:evenodd;clip-rule:evenodd;fill:#005593;}
	.st1{fill-rule:evenodd;clip-rule:evenodd;fill:#F68B1F;}
	.st2{fill-rule:evenodd;clip-rule:evenodd;fill:#F5BE85;}
</style>
<g id="Camada_x0020_1">
	<g id="_2484527359808">
		<path class="st0" d="M80.4,750.15c0,45.99,20.65,72.85,51.75,93.39c6.14,4.06,12.22,6.75,18.56,9.87
			c52.08,25.69,132.09,29.47,176.11,51.33c13.47,6.69,24.42,12.92,24.42,32.44c0,42.57-52.21,43.39-86.79,43.39
			c-49.05,0-93.95-22.75-124.18-44.91c-14.77-10.83-17.11-4.01-39.32,19.06l-38.5,42.3c11.96,17.86,70.08,41.73,90.63,50.03
			c68.18,27.52,188.16,28.48,250.83-9.32c9.85-5.94,14.02-9.13,22.61-16.29c7.12-5.93,13.24-12.01,18.72-20.19
			c6.3-9.39,9.3-13.97,13.76-25.14c3.55-8.88,5.39-24.05,8.95-31.45l31.41,44.9c9.17,11.88,28.75,25.49,42.92,33.39
			c39.38,21.93,79.7,29.45,136.64,29.45c6.52,0,4.61-8.02,4.52-14.94l-1.52-67.36c-33.35,0-56.59-1.01-82.95-18.8
			c-15.06-10.17-26.1-30-30.77-50.03h273.82l1.5,145.14h116.71V853.4c0-31.83,8.34-55.94,34.68-73.05
			c36.31-23.59,101.48-7.56,101.48,71.55v193.02h115.22c0-25.6,1.5-46.03,1.5-71.82c0.21,0.3,0.47,0.44,0.54,0.95
			c0.07,0.52,0.43,0.75,0.53,0.96c5.1,10.89,9.72,21.55,17.07,30.81c22.84,28.79,67.06,45.08,107.54,45.08
			c39.5,0,76.04-4.63,107.44-25.73c6.99-4.7,16.1-12.49,24.24-14.67v34.42c39.12,0,73.17,1.5,112.22,1.5V905.76l3.95,8.02
			c9.3,26.96,27.27,52.4,47.29,72.42c53.81,53.81,130.82,79.67,215.1,79.67c5.64,0,2.83-0.98,8.98-1.5v-84.33
			c-0.28-1.49-1.19-1.8-4.47-2.47c-13.27-2.74-34.47,3.7-75.84-15.43c-62.66-28.96-89.14-100.86-60.33-165.6
			c2.83-6.36,8.13-14.87,12.37-20.55c5.56-7.45,9.32-10.81,15.67-17.24c19.05-19.28,56.76-37.03,94.65-37.03h17.96v-86.79
			c-68.9,0-128.57,12.49-185.48,46.45c-21.56,12.87-40.95,31.85-56.29,51.44c-18.89,24.13-22.5,40.82-33.96,66.3l-2.59,4.89
			c-1.4-16.84-8.87-39.09-17.3-53.03c-9.29-15.37-19.71-27.67-33.97-37.85c-40.69-29.07-87.19-30.32-137.26-30.32
			c-8.31,0-8.87,1.5-16.46,1.5v83.79l33.84,2.07c25.43,3.81,60.43,19.71,60.43,50.29v10.48l-79.73-5.6
			c-20.92-2.98-91.62,6.03-112.24,14.12c-20.97,8.23-35.4,20.75-48.52,38.26c-3.66,4.88-5.24,7.68-7.9,13.05l-6.93,14.02
			c-0.11,0.2-0.34,0.65-0.54,0.95c0-60.37,1.82-115.39-37.87-164.13c-4.15-5.1-6.9-9.31-11.94-13.5c-4.95-4.1-9.01-7.79-14.21-11.23
			c-37.2-24.64-78.23-34.09-127.51-34.09c-51.93,0-91.92,15.55-120.86,39.25c-31.39,25.71-46.54,60.2-57.2,105.98
			c-6.65-21.3-11.02-43.37-22.71-62.66c-16.61-27.39-37.43-45.99-63.77-61.92c-72.95-44.11-190.39-25.82-245.3,27.62
			c-8.53,8.3-16.31,15.26-23.91,25.47c-7.74,10.41-12.95,18.08-18.9,30.48c-5.35,11.15-9.33,23.55-12.32,37.05
			c-3.02,13.61-6.61,30.17-6.61,44.27c-3.06-2.05-5.25-4.12-7.85-7.12c-2.66-3.08-3.78-5.54-6.86-8.1c-5.8-4.83-10.49-8.77-17-12.93
			c-71.25-45.47-198.79-44.06-218.73-82.03c-16.67-31.74,20.16-55.92,57.41-55.92c30.26,0,61.15,11.97,80.8,11.97
			c0-20.54,2.38-74.65-1.5-91.27c-16.69,0-42.54-5.99-74.81-5.99C176.98,616.98,80.4,655.14,80.4,750.15L80.4,750.15z
			 M1334.9,969.11c-22.38-9.91-68.13-86.99,116.01-75.51c12.24,0.3,20,4.25,16.96,16.96
			C1466.39,965.8,1395.28,1001.54,1334.9,969.11z M583.94,813.72c-3.12,7.59-3.7,13.33,3.8,13.31l152.17,0.95
			c9.65,0.1,12.46-5.16,10.94-13.79c-6.45-28.09-36.74-63.85-83.25-62.1C618.9,753.91,598.19,779.61,583.94,813.72L583.94,813.72z"
			/>
		<path class="st1" d="M997.5,199.51c-6.65,14.97-35.02,53.33-46.8,72.75c-10.58,17.43-32.74,61.34-40.88,80.37
			c-7.48,17.5,1.21,21.51,17.56,35.27c22.16,18.64,58.23,52.55,81.11,68.57c5.59,3.92,14.66,8.12,19.07,12.37
			c47.29-31.74,74.13-48.4,120.9-76.61l18.24-10.19c56.55-29.44,79.86-40.02,137.04-61.97l62.53-21.26
			c14.85-4.88,30.08-8.05,44.52-12.34c38.92-11.54,138.85-29.51,180.87-31.6c5.08-0.25,9.42,0.29,14.56-0.41l108.14-5.58
			c-3.46-4.73-11.17-6.56-16.67-8.77c-6.94-2.78-12.16-4.6-19.81-7.12l-39.27-13.1c-13.44-4.52-26.83-8.66-39.64-12.73
			c-55.22-17.53-115.25-29.82-173.83-37.15c-22.34-2.8-80.04-8.04-98.3-7.93c-8.32,0.05-17.25,0.32-25.51,0.07
			c-10.21-0.31-12.38-2.55-24.52-0.68c-16.65,2.56-34.63-0.7-51.66,0.71c-64.79,5.36-160.46,14.69-222.2,35.16
			c-0.47,0.15-1.82,0.61-2.25,0.77L997.5,199.51L997.5,199.51z"/>
		<path class="st2" d="M1027.56,468.85c-4.41-4.25-13.48-8.46-19.07-12.37c-22.88-16.02-58.95-49.93-81.11-68.57
			c-16.35-13.76-25.04-17.77-17.56-35.27c8.13-19.03,30.3-62.94,40.88-80.37c11.78-19.42,40.14-57.78,46.8-72.75
			c-8.4,0-17.03,3.22-24.45,5.34c-25.4,7.26-45.69,14.02-70.33,23.94c-15.06,6.06-29.12,11.08-43.73,17.61
			c-14.57,6.51-30.63,11.92-43.9,18.94c4.77,9.02,25.85,35.68,33.3,43.01l23.18,24.7c5.28,5.26,27.97,29.69,28.17,34
			c0.13,2.87-13.73,38.77-16.01,46.24c-20.09,65.64-32.73,132.38-32.73,218.65c1.7-1.14,4.52-3.2,6-4.47
			c3.66-3.15,1.77-1.78,4.94-5.53l29.83-33.02c14.61-14.56,28.07-28.03,42.62-42.67C934.39,546.26,1027.56,468.85,1027.56,468.85z"
			/>
		<path class="st0" d="M1064.97,120.21c28.26,0,90.13-10.47,133.17-10.47c65.84,0,92.07-1.33,159.04,7.05
			c62.8,7.85,184.53,28.24,241.97,55.8c-1.3-4.87-4.31-5.49-8.36-8.1c-4.14-2.66-6.79-4.69-10.78-7.17l-68.13-38.1
			c-31.28-16.85-64.02-31.99-96.98-45.17c-54.91-21.94-104.17-35.82-162.25-48.73c-9.89-2.2-20.71-4.84-29.46-6.45
			c-47.99-8.85-33.65-9.21-84.03,30.38C1119.6,64.61,1076.29,103.3,1064.97,120.21z"/>
	</g>
</g>
</svg>
