<?xml version="1.0" encoding="UTF-8"?>
<!DOCTYPE svg PUBLIC "-//W3C//DTD SVG 1.1//EN" "http://www.w3.org/Graphics/SVG/1.1/DTD/svg11.dtd">
<!-- Creator: CorelDRAW 2021 (64 Bit) -->
<svg xmlns="http://www.w3.org/2000/svg" xml:space="preserve" width="110mm" height="160mm" version="1.1" style="shape-rendering:geometricPrecision; text-rendering:geometricPrecision; image-rendering:optimizeQuality; fill-rule:evenodd; clip-rule:evenodd"
viewBox="0 0 11000 16000"
 xmlns:xlink="http://www.w3.org/1999/xlink"
 xmlns:xodm="http://www.corel.com/coreldraw/odm/2003">
 <defs>
  <style type="text/css">
   <![CDATA[
    .fil0 {fill:#B03037}
    .fil2 {fill:#BFBFBF}
    .fil1 {fill:#E04145}
   ]]>
  </style>
 </defs>
 <g id="Camada_x0020_1">
  <metadata id="CorelCorpID_0Corel-Layer"/>
  <g id="_2484581011200">
   <g>
    <polygon class="fil0" points="3336.35,5660.57 3185.18,5775.18 3812.17,6200.84 3940.15,6040.86 "/>
    <path class="fil1" d="M2693.25 9130.68c24.53,0.02 55.98,-1.86 79.54,-0.24 9.57,0.66 5.85,3.65 11.28,5.82 7,2.79 1546.85,1.73 1691.98,1.82l0.32 -1843.85 -189.73 -0.12 0.37 1648.6 0 9.48 -1189.87 -0.56 -0.34 -1572.56c-304.84,0 -610.73,-0.54 -916.1,1.19l0.19 688.01 196.04 0.66 1.36 -486.24 522.42 -0.54c0,228.16 -1.59,456.69 -1.59,685.03 0,18.92 -2.37,655.13 0.88,675.53l0 8.84 -995.94 0.39c-110.09,0 -221.57,3.89 -331.05,-1.81l-0.97 -1939.61 8.19 0 0 -17.19 -8.58 0.36 -161.17 -0.48 0 -8.51 1773.96 -1277.87 636.12 435.41 125.03 -159.5 -801.64 -545.69 -2340.85 1762.58 571.25 -0.43 0 1288.87 0.07 641.13c439.18,3.73 879.52,1.09 1318.83,1.48z"/>
    <path class="fil2" d="M7387.64 6139.8l0 1734.93 313.11 0c10.8,0 36.14,-24.55 36.45,-68.62 0,-500.09 -8.58,-1020 -8.58,-1531.2 2.48,-5.91 1.65,-22.83 36.46,-23.59l643.36 0c17.25,-0.1 28.3,6.02 27.88,23.59l0 1555.24c0.61,27.29 22.79,44.57 45.04,44.58l304.52 0 0 -1548.35c2.88,-19.59 -30.63,-65.19 -62.19,-75.06l555.44 0c84.31,-0.26 204.29,59.95 205.87,169.42l0 1411.1c0.88,28.32 16.71,42.47 25.74,42.89l323.82 0 -8.58 -1471.15c-14.4,-233.78 -209.92,-462.11 -546.85,-469.65l-1677.03 0c-117.63,12.13 -183.36,81.49 -214.46,205.87z"/>
    <path class="fil2" d="M5972.25 7797.53c0.38,0.52 3.11,6.82 3.11,6.82 14.22,27.95 30.44,59.32 50.5,61.81l197.3 0c16.54,4.28 36.79,-47.35 41.03,-56.28l4.21 -11.27 806.14 -1873.26 -332.4 0c-33.81,1.94 -47.5,26.3 -53.62,42.89l-572.59 1351.06 -555.44 -1359.64c-3.59,-15.82 -45.57,-32.88 -72.91,-34.31l-313.1 0 797.77 1872.18z"/>
    <path class="fil0" d="M4286.64 7294.11l189.73 0.12 -0.32 1843.85c-145.13,-0.09 -1684.98,0.97 -1691.98,-1.82 -5.43,-2.17 -1.71,-5.16 -11.28,-5.82 -23.56,-1.62 -55.01,0.26 -79.54,0.24l-1271.72 -1.13 -10.72 -0.26 0 25.73 3109.58 0 0 -1870.07 -233.75 0.04 0 9.12z"/>
    <path class="fil0" d="M2900 8942.71l-1223.26 0 -68.63 0 0.01 -1957.96 -36.07 0 0.96 1965.38c109.48,5.7 220.96,1.81 331.05,1.81l995.94 -0.39 0 -8.84z"/>
    <path class="fil0" d="M2180.7 7380.26c305.37,-1.73 611.26,-1.19 916.1,-1.19l0.34 1572.56 1189.87 0.56 0 -9.48 -1156.28 0 -0.07 -1571.99 -949.96 0.05 0 9.49z"/>
    <polygon class="fil0" points="1572.05,6993.68 1572.05,6984.75 1492.3,6984.75 3233.67,5740.53 3184.44,5706.83 1410.48,6984.7 1410.48,6993.21 "/>
    <polygon class="fil0" points="2217.16,8068.52 2217.16,8095.62 2414.46,8095.62 2414.46,7591.65 2900.71,7591.65 2900.71,7582.15 2378.29,7582.69 2376.93,8068.93 "/>
   </g>
   <path class="fil2" d="M8367.38 8223.44l0 104.63 57.66 54.59 -61.3 54.98c-18.33,18.29 -24.58,36.12 -24.24,54.02l0 132.81c1.57,48.88 28.75,67.67 62.19,68.63l180.14 0 92.95 -73.07 76.47 73.07 72.91 0 -108.52 -105.19c1.35,-1.82 51.19,-41.31 54.77,-43.43l-48.34 -38.13 -50.02 39.39 -242.48 -234.13 0 -77.76c1.13,-5.82 5.07,-9.4 12.23,-10.41l148.61 0 0 68.63c0.11,5.63 4.43,9.17 17.16,8.58l36.45 0c5.69,-0.41 8.37,-3.41 8.58,-8.58l0 -120.09c0.18,-5.9 -2.91,-8.53 -8.58,-8.58l-197.29 0c-50.93,3.27 -78.87,26.37 -79.35,60.04zm50.31 412.49c-16.48,-0.37 -27.09,-12.05 -27.69,-29.48l-5.13 -111.41c1.04,-13.95 9.56,-28.46 22.18,-38.11l50.79 -43.22 173.08 164.42 -73.16 57.61 -140.07 0.19z"/>
   <path class="fil2" d="M6323.63 8360.69c-11.68,-16.41 -14.75,-14.76 -27.88,-17.15l-141.54 0c-39.47,2.38 -72.45,37.23 -72.91,68.62l0 220.89c1.21,40.67 26.79,59.94 62.19,60.05l242.26 0 0.07 -306.67 0 -214.45c-0.1,-6.14 -3.48,-8.38 -8.57,-8.58l-53.62 0 0 197.29zm-165.07 274.96c-16.57,1.27 -25.06,-11.52 -26.82,-36.05l0.68 -163.02c1.06,-23.81 9.32,-38.86 27.14,-42.24l154.38 0.32c5.84,0.77 9.37,3.84 9.93,9.88l-0.01 231.94 -165.3 -0.83z"/>
   <path class="fil2" d="M5731.74 8369.27l0 17.16c1.73,7.7 4.33,13.86 8.58,17.16l171.56 0c11.29,0.01 25.72,4.41 25.73,25.73l0 42.89 -152.26 0c-63.98,2.86 -88.79,34.49 -87.92,66.48l0 94.36c2.23,47.67 44.73,58.34 76.09,59.94l208.41 0c5.61,-0.65 9.04,-5.8 9.3,-10.75l0 -278.65c-1.83,-47.28 -48.35,-57.96 -87.93,-60.05l-162.98 0c-5.82,7.92 -8.43,16.55 -8.58,25.73zm44.39 265.94c-16.2,0.74 -24.3,-9.55 -26.02,-23.92l0.47 -68.32c1.04,-13.95 9.11,-22.77 26.53,-24.75l160.56 0.2 -0.01 117.28 -161.53 -0.49z"/>
   <path class="fil2" d="M6484.47 8395.01l0 246.62c0.58,19.22 18.75,51.14 53.62,51.47l233.75 0 0 -51.47 -214.45 0c-10.71,-0.33 -19.44,-7.27 -19.3,-17.16l0 -77.93 232.3 0.7c7.78,-0.1 18.52,-9.02 18.61,-19.08l0 -107.42c-1.33,-83.04 -49.48,-76.53 -79.35,-77.2l-162.99 0c-31.8,1.6 -62.31,18.4 -62.19,51.47zm216.76 108.51c16.19,0.74 24.3,-9.55 26.02,-23.92l-0.47 -68.32c-1.05,-13.95 -9.11,-22.77 -26.53,-24.75l-160.56 0.2 0.01 117.28 161.53 -0.49z"/>
   <path class="fil2" d="M5176.3 8360.69l0 332.41 62.2 0 0 -289.51 126.52 0 0 280.93c1.17,4.72 3.83,7.8 8.58,8.58l53.62 0 0 -289.51 115.8 0c13.19,0.7 19.05,8.42 19.3,25.73l0 263.78 53.61 0 0 -289.51c-2.06,-28.44 -39.11,-58.8 -72.91,-60.05l-338.84 0c-19.23,-0.06 -27.5,12.28 -27.88,17.15z"/>
   <path class="fil2" d="M7659.68 8420.74l0 66.48c0.36,10.84 9.42,23.67 24.2,26.55l215.99 42.08c12.46,0.59 19.53,5.86 19.3,17.46l0 50.85c-1.26,8.99 -16.25,18.85 -36.46,17.47l-205.87 0c-4.97,0.91 -7.73,3.87 -8.58,8.58l0 51.47 242.33 0c47.33,-0.71 70.47,-46.88 70.77,-68.63l0 -85.78c0.86,-23.5 -10.91,-31.99 -27.88,-34.31l-232.07 -45.21c0,0 0.46,-39.47 0.46,-47.01 2.14,-12.52 10.34,-18.64 25.74,-17.15l216.6 0 0 -51.47c0.3,-6.01 -3.27,-8.87 -10.73,-8.58l-195.15 0c-51.77,1.58 -98.02,33.74 -98.65,77.2z"/>
   <path class="fil2" d="M9145.85 8437.9l0 177.99c0.4,46.76 38.06,76.82 72.91,77.21l178 0 0 -51.47 -160.84 0c-16.95,-0.3 -26.54,-11.89 -27.88,-25.74l0 -195.15c0.12,-10.84 3.45,-16.61 19.3,-17.15l152.26 0c5.84,-0.41 16.75,-7.57 17.16,-17.16l0 -34.31c-0.46,-4.7 -3.45,-7.46 -8.58,-8.58l-169.42 0c-36.31,1.18 -71.92,8.38 -72.91,94.36z"/>
   <path class="fil2" d="M7039.91 8352.12l0 332.4c0.34,5.38 3.16,8.28 8.58,8.58l55.76 0 0 -280.94c0.21,-5.31 2.49,-8.71 8.57,-8.57l115.81 0c10.13,0.21 16.13,-2.45 17.15,-8.58l0 -51.47c-1.06,-6.74 -7.4,-9.08 -17.15,-8.58l-70.77 0c-19.52,1.21 -31.43,10.03 -36.46,25.73l-17.15 0 0 -17.15c-4.28,-6.55 -10.95,-9 -19.31,-8.58l-25.73 0c-10.13,2.14 -17.1,7.34 -19.3,17.16z"/>
   <polygon class="fil2" points="6887.65,8693.1 6941.26,8693.1 6941.26,8343.54 6887.65,8343.54 "/>
   <polygon class="fil2" points="9495.41,8693.1 9549.02,8693.1 9549.02,8343.54 9495.41,8343.54 "/>
   <polygon class="fil2" points="9495.41,8249.18 9549.02,8249.18 9549.02,8180.55 9495.41,8180.55 "/>
   <polygon class="fil2" points="6887.65,8249.18 6941.26,8249.18 6941.26,8189.13 6932.68,8189.13 6932.68,8180.55 6887.65,8180.55 "/>
   <path class="fil2" d="M7326.86 8368.39l0 17.16c1.73,7.69 4.33,13.86 8.58,17.15l171.56 0c11.29,0.02 25.72,4.41 25.74,25.74l0 42.89 -152.27 0c-63.98,2.86 -88.79,34.49 -87.92,66.48l0 94.36c2.23,47.67 44.73,58.34 76.09,59.94l208.41 0c5.61,-0.65 9.04,-5.81 9.3,-10.75l0 -278.66c-1.83,-47.27 -48.35,-57.95 -87.93,-60.04l-162.98 0c-5.82,7.92 -8.43,16.55 -8.58,25.73zm44.39 265.93c-16.2,0.75 -24.3,-9.54 -26.02,-23.91l0.47 -68.32c1.04,-13.96 9.11,-22.77 26.53,-24.76l160.56 0.21 -0.01 117.27 -161.53 -0.49z"/>
   <path class="fil2" d="M9670.62 8368.41l0 17.16c1.73,7.7 4.34,13.86 8.58,17.16l171.57 0c11.29,0.02 25.71,4.41 25.73,25.73l0 42.89 -152.26 0c-63.98,2.86 -88.8,34.49 -87.93,66.48l0 94.36c2.23,47.67 44.73,58.34 76.09,59.94l208.41 0c5.62,-0.65 9.04,-5.8 9.3,-10.75l0 -278.65c-1.82,-47.28 -48.35,-57.96 -87.92,-60.05l-162.99 0c-5.82,7.92 -8.43,16.56 -8.58,25.73zm44.39 265.94c-16.19,0.74 -24.3,-9.55 -26.02,-23.92l0.48 -68.32c1.04,-13.95 9.1,-22.77 26.52,-24.75l160.57 0.2 -0.02 117.28 -161.53 -0.49z"/>
  </g>
 </g>
</svg>
