<!DOCTYPE svg PUBLIC "-//W3C//DTD SVG 1.1//EN" "http://www.w3.org/Graphics/SVG/1.1/DTD/svg11.dtd">
<!-- Uploaded to: SVG Repo, www.svgrepo.com, Transformed by: SVG Repo Mixer Tools -->
<svg fill="rgb(137, 90, 149)" height="64px" width="64px" version="1.1" id="Layer_1" xmlns="http://www.w3.org/2000/svg" xmlns:xlink="http://www.w3.org/1999/xlink" viewBox="0 0 512 512" xml:space="preserve" stroke="rgb(137, 90, 149)">
<g id="SVGRepo_bgCarrier" stroke-width="0"/>
<g id="SVGRepo_tracerCarrier" stroke-linecap="round" stroke-linejoin="round"/>
<g id="SVGRepo_iconCarrier"> <g> <g> <path d="M511.58,330.27l-17.685-110.574c-2.88-18.007-19.873-30.323-37.884-27.435l-35.447,5.669l-1.415-8.848 c-2.716-16.977-18.738-28.591-35.715-25.865l-112.494,17.992c-8.21,1.313-15.425,5.755-20.317,12.51 c-2.701,3.729-4.506,7.912-5.366,12.291v-7.531c0-17.194-13.988-31.182-31.182-31.182H100.154 c-17.194,0-31.182,13.988-31.182,31.182v8.958H33.075C14.838,207.438,0,222.274,0,240.512v111.98 c0,18.237,14.838,33.075,33.075,33.075h35.897v37.332c0,17.194,13.988,31.182,31.182,31.182h113.925 c17.194,0,31.182-13.988,31.182-31.182V269.774c0.341-1.97,0.32-3.929,0-5.816v-45.881l10.156,63.502 c-0.018,1.915,0.27,3.854,0.919,5.746l24.182,151.202c2.451,15.318,15.731,26.26,30.773,26.26c1.63,0,3.282-0.128,4.941-0.395 l112.495-17.992c8.21-1.312,15.425-5.755,20.317-12.51s6.862-14.995,5.549-23.205l-5.896-36.864l35.447-5.669 c8.707-1.392,16.36-6.105,21.549-13.27C510.882,347.718,512.972,338.977,511.58,330.27z M68.133,350.919H34.646V242.084h33.487 V350.919z M210.613,419.433H103.618v-142.24c18.32,3.956,37.404,4.037,55.774,0.155c15.25-3.223,31.26-2.767,46.3,1.323 l4.92,1.339V419.433z M210.614,244.183c-19.093-4.526-39.184-4.789-58.385-0.732c-16.067,3.394-32.874,2.708-48.61-1.984v-39.521 h106.995V244.183z M286.505,256.583l-6.671-41.71l105.652-16.898L391.727,237c-14.798,7.121-31.288,10.451-47.686,9.638 C324.439,245.662,304.643,249.097,286.505,256.583z M314.181,429.634L292.162,291.96l4.647-2.098 c14.206-6.414,29.945-9.396,45.51-8.62c18.751,0.938,37.583-2.161,55.05-8.962l22.464,140.456L314.181,429.634z M444.052,339.479 l-17.188-107.471l33.067-5.288l17.187,107.47L444.052,339.479z"/> </g> </g> <g> <g> <path d="M343.477,103.526c-6.764-6.764-17.733-6.764-24.499,0l-35.547,35.547c-6.765,6.765-6.765,17.734,0,24.499 c3.383,3.383,7.816,5.075,12.249,5.075s8.867-1.692,12.25-5.075l35.547-35.547C350.241,121.26,350.241,110.291,343.477,103.526z"/> </g> </g> <g> <g> <path d="M220.005,130.958l-33.699-54.293c-5.045-8.128-15.725-10.631-23.854-5.583c-8.129,5.044-10.628,15.725-5.583,23.853 l33.699,54.293c3.28,5.285,8.941,8.19,14.735,8.19c3.118,0,6.276-0.842,9.119-2.608 C222.552,149.766,225.051,139.086,220.005,130.958z"/> </g> </g> <g> <g> <path d="M263.137,47.282c-9.514-0.836-17.947,6.179-18.802,15.708l-5.049,56.295c-0.855,9.528,6.177,17.946,15.706,18.8 c0.527,0.046,1.049,0.07,1.567,0.07c8.868,0,16.427-6.775,17.234-15.777l5.049-56.295 C279.698,56.555,272.666,48.137,263.137,47.282z"/> </g> </g> </g>
</svg>