<svg width="84" height="113" viewBox="0 0 84 113" fill="none" xmlns="http://www.w3.org/2000/svg">
<path d="M42.0345 0.723755C18.9392 0.723755 0.462891 19.2397 0.462891 42.3847C0.462891 71.0845 16.1677 96.544 39.725 111.357C41.1107 112.283 42.9583 112.283 44.8059 111.357C67.9013 96.0811 83.6061 71.0845 83.6061 42.3847C83.6061 19.2397 65.1298 0.723755 42.0345 0.723755ZM42.0345 60.9007C31.8726 60.9007 23.5582 52.5685 23.5582 42.3847C23.5582 32.2009 31.8726 23.8687 42.0345 23.8687C52.1964 23.8687 60.5108 32.2009 60.5108 42.3847C60.5108 52.5685 52.1964 60.9007 42.0345 60.9007Z" fill="#895A95"/>
</svg>
